<svg width="69" height="62" viewBox="0 0 69 62" fill="none" xmlns="http://www.w3.org/2000/svg">
<path id="Vector" d="M6.70117 0.421875C6.03229 0.421875 5.39079 0.688559 4.91782 1.16326C4.44484 1.63796 4.17913 2.2818 4.17913 2.95312C4.17913 3.62445 4.44484 4.26829 4.91782 4.74299C5.39079 5.21769 6.03229 5.48438 6.70117 5.48438H10.2051L1.00136 28.1542C0.882586 28.4588 0.819918 28.7824 0.816406 29.1094C0.816406 30.6606 1.12083 32.1967 1.71231 33.6298C2.30378 35.063 3.17072 36.3652 4.26362 37.4621C5.35652 38.559 6.65399 39.4291 8.08193 40.0227C9.50988 40.6163 11.0403 40.9219 12.5859 40.9219C14.1315 40.9219 15.662 40.6163 17.0899 40.0227C18.5179 39.4291 19.8154 38.559 20.9083 37.4621C22.0012 36.3652 22.8681 35.063 23.4596 33.6298C24.051 32.1967 24.3555 30.6606 24.3555 29.1094C24.352 28.7824 24.2893 28.4588 24.1705 28.1542L14.9667 5.48438H31.9216V45.9844H18.4808C16.4741 45.9844 14.5497 46.7844 13.1307 48.2085C11.7118 49.6326 10.9147 51.5641 10.9147 53.5781C10.9147 55.5921 11.7118 57.5236 13.1307 58.9477C14.5497 60.3718 16.4741 61.1719 18.4808 61.1719H50.4166C52.4232 61.1719 54.3477 60.3718 55.7666 58.9477C57.1856 57.5236 57.9827 55.5921 57.9827 53.5781C57.9827 51.5641 57.1856 49.6326 55.7666 48.2085C54.3477 46.7844 52.4232 45.9844 50.4166 45.9844H36.9657V5.48438H53.9205L44.7168 28.1542C44.598 28.4588 44.5353 28.7824 44.5318 29.1094C44.5318 32.2422 45.7718 35.2468 47.979 37.4621C50.1862 39.6773 53.1799 40.9219 56.3013 40.9219C59.4228 40.9219 62.4165 39.6773 64.6237 37.4621C66.8309 35.2468 68.0709 32.2422 68.0709 29.1094C68.0674 28.7824 68.0047 28.4588 67.8859 28.1542L58.6822 5.48438H62.1861C62.855 5.48438 63.4965 5.21769 63.9695 4.74299C64.4424 4.26829 64.7082 3.62445 64.7082 2.95313C64.7082 2.2818 64.4424 1.63796 63.9695 1.16326C63.4965 0.688559 62.855 0.421875 62.1861 0.421875L6.70117 0.421875ZM12.5859 13.0376L18.084 26.5781H7.08789L12.5859 13.0376ZM50.8033 26.5781L56.3013 13.0376L61.7994 26.5781H50.8033Z" fill="#00AFF1"/>
</svg>
