<svg width="148" height="149" viewBox="0 0 148 149" fill="none" xmlns="http://www.w3.org/2000/svg">
<rect y="0.946045" width="148" height="148" rx="20" fill="white"/>
<path opacity="0.9" d="M98.6414 132.945H19.3984C17.5213 132.945 16 131.423 16 129.546V100.755C16 94.4662 19.9965 88.8691 25.9459 86.8266L113.769 56.6843C120.606 54.3372 125.201 47.9018 125.201 40.6724C125.201 31.3382 117.606 23.744 108.272 23.744H22.7967V79.8124C22.7967 81.6895 21.2754 83.2108 19.3984 83.2108C17.5213 83.2108 16 81.6895 16 79.8124V20.3456C16 18.4686 17.5213 16.9473 19.3984 16.9473H108.272C121.355 16.9473 131.997 27.5898 131.997 40.6724C131.997 50.8051 125.559 59.8233 115.974 63.1129L28.1525 93.2552C24.949 94.354 22.7967 97.3684 22.7967 100.755V126.148H98.6414C105.736 126.148 112.405 123.385 117.422 118.369C122.438 113.352 125.201 106.683 125.201 99.5886C125.201 94.567 123.786 89.6699 121.11 85.4265C118.461 81.2239 114.704 77.8606 110.248 75.6981C108.559 74.8791 107.854 72.8458 108.674 71.1568C109.493 69.4678 111.527 68.7632 113.216 69.5834C118.814 72.2998 123.532 76.5251 126.86 81.8016C130.222 87.1325 131.999 93.2835 131.999 99.5898C131.999 108.499 128.529 116.876 122.228 123.177C115.928 129.475 107.551 132.945 98.6414 132.945Z" fill="#226EB3"/>
<path opacity="0.9" d="M54.2341 64.5039C46.7384 64.5039 40.6406 58.4061 40.6406 50.9105C40.6406 43.4148 46.7384 37.317 54.2341 37.317C61.7297 37.317 67.8275 43.4148 67.8275 50.9105C67.8275 58.4061 61.7297 64.5039 54.2341 64.5039ZM54.2341 44.1137C50.4868 44.1137 47.4373 47.1632 47.4373 50.9105C47.4373 54.6577 50.4868 57.7072 54.2341 57.7072C57.9813 57.7072 61.0308 54.6577 61.0308 50.9105C61.0308 47.1632 57.9813 44.1137 54.2341 44.1137ZM88.3106 112.501C80.8149 112.501 74.7171 106.403 74.7171 98.9078C74.7171 91.4121 80.8149 85.3143 88.3106 85.3143C95.8062 85.3143 101.904 91.4121 101.904 98.9078C101.904 106.403 95.8062 112.501 88.3106 112.501ZM88.3106 92.1111C84.5633 92.1111 81.5139 95.1605 81.5139 98.9078C81.5139 102.655 84.5633 105.705 88.3106 105.705C92.0578 105.705 95.1073 102.655 95.1073 98.9078C95.1073 95.1605 92.0578 92.1111 88.3106 92.1111Z" fill="#226EB3"/>
</svg>
