<svg width="148" height="149" viewBox="0 0 148 149" fill="none" xmlns="http://www.w3.org/2000/svg">
<rect y="0.777344" width="148" height="148" rx="20" fill="#00005B"/>
<path d="M30.9895 10H116.999C120.097 9.99728 123.165 10.6054 126.028 11.7896C128.89 12.9737 131.491 14.7107 133.682 16.9011C135.873 19.0915 137.61 21.6924 138.794 24.5549C139.979 27.4174 140.587 30.4853 140.585 33.5832V116.269C140.587 119.366 139.979 122.434 138.794 125.297C137.61 128.159 135.872 130.76 133.682 132.95C131.491 135.14 128.89 136.877 126.027 138.061C123.165 139.244 120.097 139.852 116.999 139.849H30.9895C27.8919 139.852 24.8242 139.244 21.9619 138.06C19.0996 136.876 16.4989 135.139 14.3084 132.949C12.118 130.759 10.381 128.158 9.1966 125.296C8.01225 122.434 7.40387 119.366 7.40626 116.269V33.5832C7.40387 30.4856 8.01223 27.4178 9.19655 24.5555C10.3809 21.6932 12.1179 19.0924 14.3083 16.902C16.4987 14.7117 19.0994 12.9746 21.9617 11.7903C24.8241 10.606 27.8918 9.99762 30.9895 10Z" fill="#00005B"/>
<path d="M39.0391 101.063V43.9608C39.0391 43.5738 39.2053 43.3505 39.5948 43.3505C40.5375 43.3505 41.4257 43.3505 42.7112 43.296C44.0435 43.2414 45.4302 43.2414 46.9287 43.1843C48.4272 43.1272 50.0451 43.1298 51.7565 43.0726C53.4679 43.0155 55.1326 43.0181 56.8076 43.0181C61.3575 43.0181 65.118 43.5738 68.2344 44.7373C71.0207 45.684 73.5614 47.2391 75.6721 49.2898C77.461 51.0833 78.8428 53.2409 79.7234 55.6161C80.5624 57.9281 80.9939 60.3683 80.9985 62.8279C80.9985 67.6011 79.8887 71.5416 77.6692 74.6493C75.437 77.753 72.321 80.1116 68.7278 81.4171C64.9544 82.8039 60.7914 83.3025 56.2415 83.3025C54.9092 83.3025 54.0211 83.3025 53.4679 83.248C52.9147 83.1934 52.1357 83.1934 51.0813 83.1934V101.006C51.0936 101.098 51.0875 101.191 51.0633 101.28C51.0391 101.369 50.9974 101.452 50.9405 101.524C50.8836 101.597 50.8128 101.658 50.7321 101.702C50.6515 101.747 50.5627 101.775 50.471 101.785H39.7039C39.2598 101.785 39.0391 101.562 39.0391 101.063ZM51.1358 54.0579V72.7042C51.9149 72.7587 52.6343 72.8159 53.2991 72.8159H56.2311C58.4012 72.8175 60.558 72.4775 62.6223 71.8082C64.3913 71.2889 65.9717 70.2677 67.1722 68.8685C68.3382 67.4791 68.894 65.5937 68.894 63.1551C68.9447 61.4224 68.5015 59.7111 67.6163 58.2208C66.6879 56.7784 65.3231 55.6701 63.7208 55.0577C61.6373 54.2409 59.4075 53.8633 57.1712 53.9488C55.7299 53.9488 54.4522 53.9488 53.3978 54.0033C52.6393 53.9546 51.8781 53.9729 51.1228 54.0579H51.1358Z" fill="#9999FF"/>
<path d="M88.7617 57.2811H98.4718C98.7351 57.287 98.9897 57.3761 99.1992 57.5357C99.4087 57.6952 99.5623 57.917 99.6379 58.1693C99.8078 58.6153 99.9195 59.0814 99.9703 59.556C100.082 60.1092 100.194 60.7195 100.248 61.2752C100.303 61.8855 100.36 62.553 100.36 63.2723C102.026 61.3283 104.039 59.7106 106.297 58.5017C108.876 57.0674 111.781 56.3215 114.732 56.3358C114.823 56.3235 114.916 56.3296 115.005 56.3537C115.094 56.3779 115.177 56.4197 115.25 56.4766C115.322 56.5335 115.383 56.6043 115.428 56.6849C115.473 56.7656 115.501 56.8544 115.511 56.9461V67.991C115.511 68.4351 115.233 68.6013 114.622 68.6013C112.609 68.534 110.596 68.7199 108.629 69.1545C107.027 69.4872 105.465 69.9895 103.97 70.653C102.896 71.1378 101.933 71.8368 101.139 72.7072V101.014C101.139 101.567 100.916 101.793 100.417 101.793H89.4733C89.3712 101.808 89.2672 101.803 89.1672 101.777C89.0673 101.752 88.9734 101.707 88.891 101.645C88.8086 101.583 88.7394 101.505 88.6873 101.416C88.6353 101.327 88.6014 101.228 88.5877 101.126V70.1543C88.5877 68.8221 88.5877 67.4353 88.5306 65.9992C88.4735 64.563 88.4761 63.1139 88.4189 61.6726C88.4189 60.3949 88.3098 59.1743 88.1982 57.8992C88.1709 57.7668 88.1964 57.6289 88.2691 57.515C88.3418 57.401 88.4561 57.3199 88.5877 57.2889C88.5877 57.2317 88.6968 57.2317 88.7539 57.2889L88.7617 57.2811Z" fill="#9999FF"/>
</svg>
