<svg width="148" height="148" viewBox="0 0 148 148" fill="none" xmlns="http://www.w3.org/2000/svg">
<rect width="148" height="148" rx="20" fill="#16020B"/>
<path d="M39 49.1111C39 45.184 42.184 42 46.1111 42H95.8889C99.816 42 103 45.184 103 49.1111V98.8889C103 102.816 99.816 106 95.8889 106H46.1111C42.184 106 39 102.816 39 98.8889V49.1111Z" fill="#E91E63"/>
<path d="M81.0405 69.5383C79.4742 69.5383 78.3303 70.1704 77.6088 71.4346C76.8873 72.6987 76.5234 74.9496 76.5234 78.1809V80.4379C76.5234 83.6507 76.8657 85.8954 77.5471 87.1688C78.2285 88.4422 79.3848 89.0805 81.0097 89.0805C82.6963 89.0805 83.9728 88.3282 84.833 86.8235V71.9495C83.9913 70.34 82.7271 69.5383 81.0405 69.5383Z" fill="#16020B"/>
<path d="M24.6641 27.75V120.25H117.164V27.75H24.6641ZM62.0988 95.5833H53.2466V51.7414H62.0988V95.5833ZM93.4131 95.5833H85.674L85.2824 92.2718C83.5372 94.8834 81.2895 96.1877 78.5361 96.1877C75.1228 96.1877 72.5174 94.8834 70.7229 92.2718C68.9284 89.6602 68.0096 85.8277 67.9664 80.771V78.3012C67.9664 72.964 68.8698 68.9772 70.6766 66.3472C72.4835 63.7171 75.1136 62.4036 78.5669 62.4036C81.0767 62.4036 83.1611 63.4889 84.8291 65.6565V49.3333H93.4101V95.5833H93.4131Z" fill="#16020B"/>
</svg>
