<svg width="148" height="148" viewBox="0 0 148 148" fill="none" xmlns="http://www.w3.org/2000/svg">
<rect width="148" height="148" rx="20" fill="#242424"/>
<path d="M79.4565 57.3331H60.4089C51.2041 57.3331 43.7422 49.8712 43.7422 40.6664C43.7422 31.4617 51.2041 23.9998 60.4089 23.9998H79.4565V57.3331Z" fill="#E64A19"/>
<path d="M77.0756 90.6666H60.4089C51.2041 90.6666 43.7422 83.2047 43.7422 73.9999C43.7422 64.7952 51.2041 57.3333 60.4089 57.3333H77.0756V90.6666Z" fill="#7C4DFF"/>
<path d="M60.4089 124C51.2041 124 43.7422 116.538 43.7422 107.333C43.7422 98.1284 51.2041 90.6665 60.4089 90.6665H77.0756V107.333C77.0756 116.538 69.6137 124 60.4089 124Z" fill="#66BB6A"/>
<path d="M93.7448 57.3331H77.0781V23.9998H93.7448C102.95 23.9998 110.412 31.4617 110.412 40.6664C110.412 49.8712 102.95 57.3331 93.7448 57.3331Z" fill="#FF7043"/>
<path d="M93.7448 90.6666C102.95 90.6666 110.412 83.2047 110.412 73.9999C110.412 64.7952 102.95 57.3333 93.7448 57.3333C84.5401 57.3333 77.0781 64.7952 77.0781 73.9999C77.0781 83.2047 84.5401 90.6666 93.7448 90.6666Z" fill="#29B6F6"/>
</svg>
