<svg width="148" height="148" viewBox="0 0 148 148" fill="none" xmlns="http://www.w3.org/2000/svg">
<rect width="148" height="148" rx="20" fill="#37474F"/>
<path d="M73.9974 15.4165C58.4601 15.4165 43.5592 21.5887 32.5727 32.5752C21.5862 43.5617 15.4141 58.4626 15.4141 73.9998C15.4141 89.5371 21.5862 104.438 32.5727 115.425C43.5592 126.411 58.4601 132.583 73.9974 132.583C89.5347 132.583 104.436 126.411 115.422 115.425C126.409 104.438 132.581 89.5371 132.581 73.9998C132.581 58.4626 126.409 43.5617 115.422 32.5752C104.436 21.5887 89.5347 15.4165 73.9974 15.4165Z" fill="#37474F"/>
<path d="M77.2812 77.5981L84.709 97.1187C86.3925 99.4035 88.3936 101.401 90.7801 102.755C98.2387 106.988 107.738 104.546 111.997 97.3006C111.997 97.3006 78.1322 78.2487 77.2812 77.5981Z" fill="#FF7043"/>
<path d="M77.2812 77.5981C78.2772 77.9958 111.997 97.2975 111.997 97.2975C116.252 90.0486 113.655 80.7431 106.194 76.5097C103.807 75.1561 101.048 74.4531 98.1924 74.1602L77.2812 77.5981Z" fill="#F16461"/>
<path d="M103.263 81.8471C102.366 81.3384 101.398 80.9036 100.399 80.5059C100.719 83.5676 100.137 86.7465 98.45 89.6171C96.7634 92.4877 94.2567 94.572 91.3984 95.83C92.2494 96.4806 93.1159 97.088 94.0131 97.5968C103.359 102.9 109.433 101.648 111.989 97.3008C114.545 92.9502 112.609 87.1504 103.263 81.8471Z" fill="#FF5252"/>
<path d="M85.2969 89.8297C87.113 92.0189 89.1695 94.1217 91.405 95.8268C94.2632 94.5688 96.773 92.4844 98.4565 89.6139C100.143 86.7433 100.726 83.5644 100.405 80.5026C97.7844 79.4543 94.9015 78.7544 92.0679 78.3042C92.2035 80.5889 91.6979 82.9384 90.4491 85.069C89.1942 87.1996 87.3781 88.806 85.2969 89.8297Z" fill="#FF855F"/>
<path d="M91.4053 95.8301C89.1698 94.125 87.1133 92.0191 85.2972 89.833C83.9991 90.4713 82.5962 90.8567 81.1562 91.017C82.1337 93.1229 83.3084 95.2196 84.7113 97.122C87.0208 97.1744 89.3055 96.752 91.4053 95.8301Z" fill="#FF8A65"/>
<path d="M92.0658 78.3074C94.9025 78.7607 97.7854 79.4575 100.403 80.5059C100.169 78.255 99.398 76.1029 98.1924 74.1604C95.8152 73.9168 93.3824 73.9692 91.0391 74.1881C91.6156 75.4955 91.9826 76.8829 92.0658 78.3074Z" fill="#FF8A80"/>
<path d="M90.4471 85.0693C91.6989 82.9387 92.2046 80.5923 92.0658 78.3045C84.4438 77.0896 77.2812 77.5984 77.2812 77.5984C77.2812 77.5984 80.4139 83.95 85.2979 89.83C87.3792 88.8063 89.1953 87.1999 90.4471 85.0693Z" fill="#FFCCBC"/>
<path d="M85.3011 89.8297C80.4171 83.9498 77.2844 77.5981 77.2844 77.5981C77.1056 77.9003 77.0409 78.2672 77.1179 78.6403C77.5897 80.9281 78.8138 85.9756 81.1571 91.0168C82.597 90.8534 84.003 90.4711 85.3011 89.8297Z" fill="#FFAB91"/>
<path d="M91.036 74.188C85.4212 74.7122 80.3646 76.1952 78.1137 76.9383C77.7468 77.0586 77.457 77.2991 77.2812 77.6012C77.2812 77.6012 84.4438 77.0925 92.0658 78.3073C91.9795 76.8828 91.6126 75.4953 91.036 74.188Z" fill="#FFCDD2"/>
<path d="M70.6731 77.5981C69.8221 78.2487 35.9609 97.2976 35.9609 97.2976C40.219 104.543 49.7157 106.985 57.1774 102.752C59.5639 101.398 61.5649 99.4004 63.2484 97.1156L70.6731 77.5981Z" fill="#C6CF47"/>
<path d="M70.6745 77.5981L49.7633 74.1602C46.9082 74.45 44.1455 75.1561 41.7621 76.5097C34.3035 80.7431 31.7042 90.0486 35.9592 97.2975C35.9592 97.2975 69.6786 77.9989 70.6745 77.5981Z" fill="#E1EB8A"/>
<path d="M53.9357 97.5963C54.8329 97.0875 55.6994 96.477 56.5504 95.8295C53.6921 94.5715 51.1823 92.4872 49.4988 89.6166C47.8122 86.746 47.2294 83.5671 47.5501 80.5054C46.5542 80.9031 45.5829 81.3379 44.6857 81.8466C35.3401 87.15 33.4069 92.9466 35.9599 97.2972C38.5159 101.648 44.5901 102.9 53.9357 97.5963Z" fill="#DCE775"/>
<path d="M55.8904 78.3071C53.0537 78.7604 50.1708 79.4572 47.553 80.5055C47.2324 83.5673 47.8151 86.7462 49.5017 89.6168C51.1883 92.4874 53.695 94.5717 56.5533 95.8297C58.7887 94.1246 60.8453 92.0187 62.6614 89.8326C60.5801 88.8059 58.764 87.2025 57.5122 85.072C56.2604 82.9383 55.7547 80.5919 55.8904 78.3071Z" fill="#FFF59D"/>
<path d="M47.5547 80.5056C50.1755 79.4573 53.0584 78.7573 55.892 78.3072C55.9784 76.8827 56.3422 75.4952 56.9188 74.1878C54.5754 73.9689 52.1396 73.9196 49.7654 74.1601C48.5599 76.1026 47.789 78.2578 47.5547 80.5056Z" fill="#E6EE9C"/>
<path d="M62.6628 89.8296C60.8467 92.0188 58.7901 94.1216 56.5547 95.8267C58.6544 96.7517 60.9392 97.1741 63.2517 97.1186C64.6546 95.2162 65.8263 93.1195 66.8068 91.0136C65.3638 90.8533 63.9609 90.4709 62.6628 89.8296Z" fill="#FFD740"/>
<path d="M57.5082 85.0688C58.7601 87.1994 60.5761 88.8027 62.6574 89.8295C67.5414 83.9496 70.6741 77.5979 70.6741 77.5979C70.6741 77.5979 63.5115 77.0891 55.8895 78.304C55.7507 80.5918 56.2564 82.9382 57.5082 85.0688Z" fill="#FFF9C4"/>
<path d="M55.8906 78.3073C63.5126 77.0925 70.6752 77.6012 70.6752 77.6012C70.4964 77.2991 70.2096 77.0586 69.8427 76.9383C67.5888 76.1952 62.5321 74.7152 56.9205 74.188C56.3408 75.4953 55.977 76.8828 55.8906 78.3073Z" fill="#F0F4C3"/>
<path d="M66.8002 91.0134C69.1436 85.9721 70.3677 80.9278 70.8394 78.6369C70.9165 78.2638 70.8518 77.8969 70.6729 77.5947C70.6729 77.5947 67.5402 83.9464 62.6562 89.8263C63.9574 90.4707 65.3603 90.8531 66.8002 91.0134Z" fill="#FFE082"/>
<path d="M127.563 88.3501C126.295 93.0892 124.433 97.5785 122.031 101.729L127.368 104.809C130.039 100.196 132.104 95.2136 133.514 89.9442L127.563 88.3501Z" fill="#F44336"/>
<path d="M34.7583 113.245L30.3984 117.604C34.194 121.4 38.5169 124.656 43.1943 127.363L46.2745 122.026C42.0658 119.59 38.1746 116.661 34.7583 113.245Z" fill="#FFD740"/>
<path d="M18.5026 74H12.3359C12.3359 79.5253 13.1314 84.8503 14.4943 89.947L20.4451 88.3529C19.2179 83.7649 18.5026 78.9703 18.5026 74Z" fill="#AED581"/>
<path d="M25.9779 101.729L20.6406 104.809C23.3478 109.486 26.6038 113.806 30.3994 117.605L34.7592 113.245C31.3429 109.828 28.4137 105.937 25.9779 101.729Z" fill="#FFF176"/>
<path d="M20.443 88.3501L14.4922 89.9473C15.9013 95.2136 17.9702 100.199 20.6373 104.812L25.9745 101.732C23.5726 97.5785 21.7103 93.0923 20.443 88.3501Z" fill="#DCE775"/>
<path d="M46.2756 122.026L43.1953 127.364C47.808 130.031 52.7906 132.1 58.0601 133.509L59.6541 127.558C54.912 126.291 50.4257 124.428 46.2756 122.026Z" fill="#FFCA28"/>
<path d="M101.734 122.026L104.815 127.363C109.492 124.656 113.815 121.4 117.61 117.604L113.251 113.245C109.834 116.661 105.943 119.59 101.734 122.026Z" fill="#FF7043"/>
<path d="M88.3516 127.558L89.9456 133.509C95.212 132.1 100.198 130.031 104.81 127.364L101.73 122.026C97.58 124.428 93.0937 126.291 88.3516 127.558Z" fill="#FB8C00"/>
<path d="M113.25 113.245L117.61 117.605C121.405 113.809 124.661 109.486 127.369 104.809L122.031 101.729C119.595 105.937 116.666 109.828 113.25 113.245Z" fill="#FF5252"/>
<path d="M59.6566 127.558L58.0625 133.508C63.1562 134.871 68.4811 135.667 74.0064 135.667V129.5C69.0361 129.5 64.2415 128.785 59.6566 127.558Z" fill="#FFB74D"/>
<path d="M74 129.5V135.667C79.5253 135.667 84.8503 134.871 89.947 133.508L88.3529 127.558C83.7649 128.785 78.9703 129.5 74 129.5Z" fill="#FFA726"/>
<path d="M59.6494 20.4425L58.0522 14.4917C52.7859 15.9008 47.8002 17.9697 43.1875 20.6368L46.2677 25.974C50.421 23.5721 54.9073 21.7098 59.6494 20.4425Z" fill="#64B5F6"/>
<path d="M127.563 59.6502L133.514 58.0562C132.104 52.7898 130.036 47.8041 127.368 43.1914L122.031 46.2717C124.433 50.4218 126.295 54.9081 127.563 59.6502Z" fill="#9575CD"/>
<path d="M122.031 46.2716L127.369 43.1913C124.661 38.5139 121.405 34.1911 117.61 30.3955L113.25 34.7553C116.666 38.1717 119.595 42.0628 122.031 46.2716Z" fill="#7986CB"/>
<path d="M113.251 34.7553L117.61 30.3955C113.815 26.5999 109.492 23.3439 104.815 20.6367L101.734 25.974C105.943 28.4098 109.834 31.339 113.251 34.7553Z" fill="#8C9EFF"/>
<path d="M101.735 25.974L104.815 20.6368C100.206 17.9666 95.2198 15.8977 89.9535 14.4917L88.3594 20.4425C93.0985 21.7098 97.5847 23.5721 101.735 25.974Z" fill="#82B1FF"/>
<path d="M129.505 74.0002H135.672C135.672 68.4749 134.876 63.15 133.513 58.0532L127.562 59.6473C128.79 64.2353 129.505 69.0299 129.505 74.0002Z" fill="#F06292"/>
<path d="M20.4451 59.6504L14.4943 58.0532C13.1314 63.15 12.3359 68.4749 12.3359 74.0002H18.5026C18.5026 69.0299 19.2179 64.2353 20.4451 59.6504Z" fill="#9CCC65"/>
<path d="M127.562 88.3498L133.513 89.9439C134.876 84.8502 135.672 79.5253 135.672 74H129.505C129.505 78.9703 128.79 83.7649 127.562 88.3498Z" fill="#EF5350"/>
<path d="M88.3498 20.4427L89.9439 14.4918C84.8502 13.129 79.5253 12.3335 74 12.3335V18.5002C78.9703 18.5002 83.7649 19.2155 88.3498 20.4427Z" fill="#64B5F6"/>
<path d="M34.7592 34.7553L30.3994 30.3955C26.6038 34.1911 23.3478 38.5139 20.6406 43.1913L25.9779 46.2716C28.4137 42.0628 31.3429 38.1717 34.7592 34.7553Z" fill="#68C1B8"/>
<path d="M25.9745 46.2717L20.6373 43.1914C17.9671 47.801 15.8982 52.7867 14.4922 58.0531L20.443 59.6472C21.7103 54.9081 23.5726 50.4218 25.9745 46.2717Z" fill="#81C784"/>
<path d="M46.2745 25.974L43.1943 20.6367C38.5169 23.3439 34.194 26.5999 30.3984 30.3955L34.7583 34.7553C38.1746 31.339 42.0658 28.4098 46.2745 25.974Z" fill="#4DB6AC"/>
<path d="M74.0017 18.5002V12.3335C68.4764 12.3335 63.1514 13.129 58.0547 14.4918L59.6488 20.4427C64.2368 19.2155 69.0314 18.5002 74.0017 18.5002Z" fill="#4BA9F5"/>
<path d="M74.0031 33.9165L74 73.9998C74.3546 73.9998 74.7092 73.8703 74.999 73.6144C78.4184 70.5958 89.4167 60.0539 89.4167 49.5151C89.4167 40.9003 82.5162 33.9196 74.0031 33.9165Z" fill="#7986CB"/>
<path d="M74.0026 33.9165C73.9995 33.9165 73.9995 33.9165 74.0026 33.9165C65.4895 33.9165 58.5859 40.9003 58.5859 49.5151C58.5859 60.0539 69.5842 70.5958 73.0036 73.6144C73.2934 73.8703 73.648 73.9998 74.0026 73.9998V33.9165Z" fill="#26A69A"/>
<path d="M74 33.9165C68.8878 33.9165 64.75 38.5415 64.75 49.3332C64.75 60.4023 74 73.9998 74 73.9998C74 73.9998 83.25 60.4023 83.25 49.3332C83.25 38.5415 79.1091 33.9165 74 33.9165Z" fill="#82B1FF"/>
<path d="M74 33.9165C75.6742 33.9165 76.9014 34.2002 77.0741 34.2403C82.3959 35.452 86.3333 39.6885 86.3333 44.7082C86.3333 47.514 85.0692 50.0732 83.065 51.9848C83.0958 51.769 74.8664 34.009 74 33.9165Z" fill="#4DB6AC"/>
<path d="M79.614 63.7017C77.024 69.56 74.0023 74 74.0023 74C74.0023 74 70.9806 69.56 68.3906 63.7017C70.1481 64.38 72.029 64.75 74.0023 64.75C75.9756 64.75 77.8565 64.38 79.614 63.7017Z" fill="#90CAF9"/>
<path d="M64.9402 51.9848C62.9052 50.104 61.6719 47.514 61.6719 44.7082C61.6719 39.4973 65.896 35.1498 71.5077 34.1323C72.001 34.0398 73.4841 33.9165 74.0052 33.9165C69.3494 34.4715 64.8169 51.0907 64.9402 51.9848Z" fill="#8DD0CA"/>
<path d="M83.25 49.3332C83.25 49.7648 83.25 50.2273 83.1883 50.659C83.1883 51.0907 83.1267 51.5532 83.065 51.9848C80.8142 54.1432 77.5767 55.4998 74 55.4998C70.4233 55.4998 67.1858 54.1432 64.935 51.9848C64.8117 51.0907 64.75 50.1965 64.75 49.3332C64.75 39.2198 68.3883 34.5332 73.0442 33.9782C73.3525 33.9165 73.6917 33.9165 74 33.9165C74.3083 33.9165 74.6475 33.9165 74.9558 33.9782C75.8192 34.0707 76.6825 34.3173 77.4533 34.749C77.7 34.8723 77.9467 35.0265 78.1933 35.1807C78.44 35.3348 78.6867 35.5198 78.9333 35.7665C79.1492 35.9515 79.365 36.1365 79.55 36.3523C80.2592 37.0923 80.9067 38.0173 81.4 39.1582C81.5542 39.4973 81.7083 39.8365 81.8317 40.1757C81.9858 40.5457 82.1092 40.9157 82.2325 41.3165C82.3558 41.6557 82.4483 42.0257 82.51 42.3957C82.6333 42.889 82.7567 43.3823 82.8183 43.9065C82.9417 44.4923 83.0342 45.1398 83.0958 45.7873C83.1883 46.8665 83.25 48.069 83.25 49.3332Z" fill="#80CBC4"/>
<path d="M89.355 50.7207C88.5842 60.8649 78.2858 70.7315 74.9867 73.6299C74.7092 73.8765 74.37 73.9999 74 73.9999C74 73.9999 77.0217 69.5599 79.6117 63.7015C84.915 61.6049 88.8 56.6407 89.355 50.7207Z" fill="#9FA8DA"/>
<path d="M74.0034 73.9999C73.6334 73.9999 73.2943 73.8765 73.0168 73.6299C69.7176 70.7315 59.4193 60.8649 58.6484 50.7207C59.2034 56.6407 63.0884 61.6049 68.3918 63.7015C70.9818 69.5599 74.0034 73.9999 74.0034 73.9999Z" fill="#81C784"/>
</svg>
