<svg width="148" height="148" viewBox="0 0 148 148" fill="none" xmlns="http://www.w3.org/2000/svg">
<rect width="148" height="148" rx="20" fill="#C7EDE6"/>
<path d="M129.079 83.9308C130.758 80.7414 131.72 77.1154 131.72 73.26C131.72 63.4609 125.565 55.1196 116.919 51.8325C116.919 51.8222 116.92 51.8118 116.92 51.8C116.92 34.6349 103.005 20.72 85.8403 20.72C71.36 20.72 59.2284 30.6375 55.7771 44.0403C53.5926 43.3225 51.2646 42.92 48.8403 42.92C37.4562 42.92 28.0863 51.4936 26.8031 62.5329C19.1012 64.1624 13.3203 70.9941 13.3203 79.18C13.3203 88.5795 20.9408 96.2 30.3403 96.2C30.6023 96.2 30.8613 96.1822 31.1188 96.1674C31.1129 96.4264 31.0803 96.6795 31.0803 96.94C31.0803 113.697 44.6638 127.28 61.4203 127.28C70.9471 127.28 79.4393 122.881 85.0026 116.011C88.2261 119.304 92.7075 121.36 97.6803 121.36C104.562 121.36 110.518 117.438 113.466 111.713C115.023 112.209 116.679 112.48 118.4 112.48C127.391 112.48 134.68 105.191 134.68 96.2C134.68 91.2997 132.505 86.9159 129.079 83.9308Z" fill="#C7EDE6"/>
<path d="M52.3994 118.4H37.74C37.3315 118.4 37 118.068 37 117.66C37 117.251 37.3315 116.92 37.74 116.92H52.3994C52.8079 116.92 53.1394 117.251 53.1394 117.66C53.1394 118.068 52.8094 118.4 52.3994 118.4Z" fill="white"/>
<path d="M56.9778 118.4H55.4978C55.0893 118.4 54.7578 118.068 54.7578 117.66C54.7578 117.251 55.0893 116.92 55.4978 116.92H56.9778C57.3863 116.92 57.7178 117.251 57.7178 117.66C57.7178 118.068 57.3878 118.4 56.9778 118.4Z" fill="white"/>
<path d="M64.367 121.36H51.0603C50.6518 121.36 50.3203 121.028 50.3203 120.62C50.3203 120.211 50.6518 119.88 51.0603 119.88H64.367C64.7755 119.88 65.107 120.211 65.107 120.62C65.107 121.028 64.7755 121.36 64.367 121.36Z" fill="white"/>
<path d="M48.1028 121.36H46.6228C46.2143 121.36 45.8828 121.028 45.8828 120.62C45.8828 120.211 46.2143 119.88 46.6228 119.88H48.1028C48.5113 119.88 48.8428 120.211 48.8428 120.62C48.8428 121.028 48.5128 121.36 48.1028 121.36Z" fill="white"/>
<path d="M43.6609 121.36H40.7009C40.2925 121.36 39.9609 121.028 39.9609 120.62C39.9609 120.211 40.2925 119.88 40.7009 119.88H43.6609C44.0694 119.88 44.4009 120.211 44.4009 120.62C44.4009 121.028 44.0709 121.36 43.6609 121.36Z" fill="white"/>
<path d="M52.5438 124.32H49.5838C49.1753 124.32 48.8438 123.989 48.8438 123.58C48.8438 123.172 49.1753 122.84 49.5838 122.84H52.5438C52.9522 122.84 53.2838 123.172 53.2838 123.58C53.2838 123.989 52.9522 124.32 52.5438 124.32Z" fill="white"/>
<path d="M56.9778 111C56.7159 111 55.7598 111 55.4978 111C55.0893 111 54.7578 111.332 54.7578 111.74C54.7578 112.148 55.0893 112.48 55.4978 112.48C55.7598 112.48 56.7159 112.48 56.9778 112.48C57.3863 112.48 57.7178 112.148 57.7178 111.74C57.7178 111.332 57.3863 111 56.9778 111Z" fill="white"/>
<path d="M56.9838 113.96C56.7218 113.96 49.8457 113.96 49.5838 113.96C49.1753 113.96 48.8438 114.291 48.8438 114.7C48.8438 115.108 49.1753 115.44 49.5838 115.44C49.8457 115.44 56.7218 115.44 56.9838 115.44C57.3922 115.44 57.7238 115.108 57.7238 114.7C57.7238 114.291 57.3922 113.96 56.9838 113.96Z" fill="white"/>
<path d="M64.3831 116.92C64.1212 116.92 60.2051 116.92 59.9431 116.92C59.5346 116.92 59.2031 117.251 59.2031 117.66C59.2031 118.068 59.5346 118.4 59.9431 118.4C60.2051 118.4 64.1212 118.4 64.3831 118.4C64.7916 118.4 65.1231 118.068 65.1231 117.66C65.1231 117.251 64.7916 116.92 64.3831 116.92Z" fill="white"/>
<path d="M105.821 37H91.0213C90.6128 37 90.2812 36.6685 90.2812 36.26C90.2812 35.8515 90.6128 35.52 91.0213 35.52H105.821C106.23 35.52 106.561 35.8515 106.561 36.26C106.561 36.6685 106.23 37 105.821 37Z" fill="white"/>
<path d="M111.739 37H108.779C108.371 37 108.039 36.6685 108.039 36.26C108.039 35.8515 108.371 35.52 108.779 35.52H111.739C112.148 35.52 112.479 35.8515 112.479 36.26C112.479 36.6685 112.148 37 111.739 37Z" fill="white"/>
<path d="M119.142 39.96H104.342C103.933 39.96 103.602 39.6285 103.602 39.22C103.602 38.8115 103.933 38.48 104.342 38.48H119.142C119.55 38.48 119.882 38.8115 119.882 39.22C119.882 39.6285 119.552 39.96 119.142 39.96Z" fill="white"/>
<path d="M101.376 39.96H99.8963C99.4878 39.96 99.1562 39.6285 99.1562 39.22C99.1562 38.8115 99.4878 38.48 99.8963 38.48H101.376C101.785 38.48 102.116 38.8115 102.116 39.22C102.116 39.6285 101.785 39.96 101.376 39.96Z" fill="white"/>
<path d="M96.7572 39.96H93.9822C93.5737 39.96 93.2422 39.6285 93.2422 39.22C93.2422 38.8115 93.5737 38.48 93.9822 38.48H96.7572C97.1657 38.48 97.4972 38.8115 97.4972 39.22C97.4972 39.6285 97.1657 39.96 96.7572 39.96Z" fill="white"/>
<path d="M110.257 34.0401H102.857C102.449 34.0401 102.117 33.7085 102.117 33.3001C102.117 32.8916 102.449 32.5601 102.857 32.5601H110.257C110.666 32.5601 110.997 32.8916 110.997 33.3001C110.997 33.7085 110.667 34.0401 110.257 34.0401Z" fill="white"/>
<path d="M105.817 42.9199H102.857C102.449 42.9199 102.117 42.5884 102.117 42.1799C102.117 41.7715 102.449 41.4399 102.857 41.4399H105.817C106.226 41.4399 106.557 41.7715 106.557 42.1799C106.557 42.5884 106.226 42.9199 105.817 42.9199Z" fill="white"/>
<path d="M126.359 117.66C126.359 117.66 128.678 117.66 131.539 117.66C134.4 117.66 136.719 115.341 136.719 112.48C136.719 109.844 134.743 107.694 132.197 107.367C132.239 107.102 132.279 106.837 132.279 106.56C132.279 103.699 129.96 101.38 127.099 101.38C125.571 101.38 124.213 102.053 123.266 103.104C122.697 100.428 120.325 98.4199 117.479 98.4199C114.209 98.4199 111.559 101.071 111.559 104.34C111.559 104.623 111.603 104.893 111.642 105.166C111.008 104.657 110.213 104.34 109.339 104.34C107.521 104.34 106.016 105.653 105.705 107.381C105.44 107.34 105.176 107.3 104.899 107.3C102.038 107.3 99.7188 109.619 99.7188 112.48C99.7188 115.341 102.038 117.66 104.899 117.66C107.76 117.66 115.999 117.66 115.999 117.66V118.4H126.359V117.66Z" fill="#FDFCEF"/>
<path d="M128.948 111C128.744 111 128.578 110.834 128.578 110.63C128.578 108.82 130.051 107.347 131.861 107.347C131.911 107.361 132.952 107.346 133.702 107.549C133.899 107.602 134.016 107.805 133.962 108.002C133.909 108.2 133.706 108.317 133.509 108.262C132.852 108.084 131.881 108.084 131.862 108.087C130.459 108.087 129.318 109.228 129.318 110.63C129.318 110.834 129.152 111 128.948 111Z" fill="#472B29"/>
<path d="M118.959 118.4C119.367 118.4 119.699 118.069 119.699 117.66C119.699 117.251 119.367 116.92 118.959 116.92C118.55 116.92 118.219 117.251 118.219 117.66C118.219 118.069 118.55 118.4 118.959 118.4Z" fill="#472B29"/>
<path d="M131.537 118.4H126.357C125.948 118.4 125.617 118.068 125.617 117.66C125.617 117.251 125.948 116.92 126.357 116.92H131.537C133.984 116.92 135.977 114.928 135.977 112.48C135.977 110.266 134.312 108.383 132.102 108.101C131.904 108.074 131.725 107.97 131.605 107.811C131.485 107.651 131.434 107.449 131.466 107.253C131.501 107.026 131.538 106.797 131.538 106.56C131.538 104.112 129.546 102.12 127.098 102.12C125.84 102.12 124.674 102.645 123.814 103.6C123.629 103.806 123.339 103.893 123.074 103.819C122.805 103.746 122.599 103.53 122.541 103.258C122.035 100.884 119.905 99.1599 117.477 99.1599C114.62 99.1599 112.297 101.484 112.297 104.34C112.297 104.552 112.328 104.754 112.357 104.959C112.4 105.259 112.264 105.607 111.999 105.758C111.734 105.909 111.413 105.932 111.176 105.743C110.636 105.309 110.001 105.08 109.337 105.08C107.907 105.08 106.684 106.103 106.431 107.513C106.36 107.908 105.993 108.173 105.589 108.112C105.361 108.077 105.133 108.04 104.897 108.04C102.449 108.04 100.457 110.032 100.457 112.48C100.457 114.928 102.449 116.92 104.897 116.92H115.997C116.405 116.92 116.737 117.251 116.737 117.66C116.737 118.068 116.405 118.4 115.997 118.4H104.897C101.632 118.4 98.9766 115.745 98.9766 112.48C98.9766 109.215 101.632 106.56 104.897 106.56C104.984 106.56 105.068 106.563 105.154 106.569C105.767 104.814 107.429 103.6 109.337 103.6C109.853 103.6 110.356 103.69 110.833 103.866C111.077 100.413 113.963 97.6799 117.477 97.6799C120.186 97.6799 122.606 99.3479 123.623 101.785C124.629 101.048 125.846 100.64 127.097 100.64C130.361 100.64 133.017 103.295 133.017 106.56C133.017 106.631 133.015 106.701 133.011 106.77C135.59 107.433 137.457 109.77 137.457 112.48C137.457 115.745 134.801 118.4 131.537 118.4Z" fill="#472B29"/>
<path d="M123.392 116.92C123.157 116.92 122.147 116.92 121.912 116.92C121.503 116.92 121.172 117.251 121.172 117.66C121.172 118.068 121.503 118.4 121.912 118.4C122.147 118.4 123.157 118.4 123.392 118.4C123.8 118.4 124.132 118.068 124.132 117.66C124.132 117.251 123.8 116.92 123.392 116.92Z" fill="#472B29"/>
<path d="M83.4128 132.515H73.704L70.6641 122.113H86.3787L83.4128 132.515Z" fill="#605E60"/>
<path d="M90.9375 36.769C90.9375 36.769 94.6967 40.9219 98.04 46.6362L106.976 50.9785C106.976 50.9785 100.201 37.7429 90.9375 36.769Z" fill="#48BED8"/>
<path d="M67.4844 47.0387C67.4844 47.0387 72.3018 33.8918 78.3757 34.4232C78.3757 34.4232 86.4077 37.2366 88.2665 44.9267C88.2665 44.9267 73.693 44.018 67.4844 47.0387Z" fill="#48BED8"/>
<path d="M50.0312 54.1219C50.0312 54.1219 53.7979 40.4097 68.7133 35.1365C68.7133 35.1365 60.0109 43.938 58.5191 49.6597L50.0312 54.1219Z" fill="#48BED8"/>
<path d="M49.3827 55.5856C49.1296 55.5856 48.8825 55.4554 48.7448 55.223C48.5347 54.8723 48.6531 54.4179 49.0038 54.2092C49.14 54.1278 52.3842 52.2157 57.6115 50.0564C57.9874 49.8995 58.4226 50.08 58.5765 50.4574C58.7319 50.8348 58.5528 51.267 58.1754 51.4224C53.0561 53.5388 49.7897 55.4613 49.7572 55.4806C49.6402 55.5516 49.51 55.5856 49.3827 55.5856Z" fill="#472B29"/>
<path d="M92.7332 98.8965L94.629 102.139L88.7031 109.354L92.7332 98.8965Z" fill="#EF9922"/>
<path d="M100.335 76.5854L92.7266 98.6256L94.7438 101.22L104.586 83.5281L100.335 76.5854Z" fill="#88AE45"/>
<path d="M68.3125 84.0122C68.3125 84.0122 80.4411 72.4016 91.3753 70.5205C91.3753 70.5205 90.0463 90.092 86.8599 93.6204C86.8599 93.6204 74.5093 84.5539 68.3125 84.0122Z" fill="#88AE45"/>
<path d="M77.2216 117.354L66.5938 82.9983L87.6083 93.6202L79.6755 117.951L77.2216 117.354Z" fill="#EF9922"/>
<path d="M59.9531 95.5146L62.0074 91.4875L69.9135 110.56C69.9135 110.56 60.662 100.567 59.9531 95.5146Z" fill="#EF9922"/>
<path d="M48.7812 70.1534C48.7812 70.1534 55.8734 69.15 56.8147 71.8717L61.0608 90.6351L58.8157 95.4525C58.8157 95.4525 49.9667 78.992 48.7812 70.1534Z" fill="#EE3E54"/>
<path d="M101.408 71.3004L100.539 75.104L104.803 82.9983L108.51 70.7217L101.408 71.3004Z" fill="#00A698"/>
<path d="M65.7256 58.2276C65.7256 58.2276 64.697 74.1376 67.9338 83.5282C67.9338 83.5282 82.7767 71.7503 91.9202 69.2166L91.2334 66.153C91.2334 66.153 78.0836 57.7998 65.7256 58.2276Z" fill="#00A698"/>
<path d="M48.836 59.123L56.3515 58.343V70.5205L48.7812 69.2077L48.836 59.123Z" fill="#00A698"/>
<path d="M98.5938 47.5981C98.5938 47.5981 103.589 61.5664 100.626 71.3003L109.199 70.5204C109.199 70.5204 110.542 50.9918 104.836 50.1304L98.5938 47.5981Z" fill="#88AE45"/>
<path d="M48.6054 59.4262C48.2517 59.4262 47.9379 59.1702 47.8772 58.8076C47.8106 58.405 48.0829 58.0232 48.4855 57.9566C48.6113 57.9344 51.6335 57.4386 56.3236 57.2595C56.3339 57.2595 56.3443 57.2595 56.3532 57.2595C56.7498 57.2595 57.0769 57.5733 57.0932 57.9699C57.108 58.3784 56.7898 58.7232 56.3828 58.7395C51.7859 58.9142 48.7608 59.4114 48.7297 59.4159C48.6868 59.4233 48.6453 59.4262 48.6054 59.4262Z" fill="#472B29"/>
<path d="M49.3109 55.1033L57.8934 51.0674L56.1026 57.6623L48.6094 58.3431L49.3109 55.1033Z" fill="#88AE45"/>
<path d="M65.1094 58.1224L67.4226 47.5981C67.4226 47.5981 85.9951 42.612 88.7302 46.2632C88.7302 46.2632 92.9467 53.2621 91.2314 66.1514C91.2314 66.1514 78.4442 58.0351 65.1094 58.1224Z" fill="#88AE45"/>
<path d="M83.4074 133.551H73.6972C73.2502 133.551 72.8565 133.265 72.7144 132.842L69.2483 122.44C69.1432 122.124 69.1965 121.777 69.3904 121.506C69.5857 121.236 69.8995 121.076 70.231 121.076H86.8751C87.2081 121.076 87.5218 121.236 87.7157 121.506C87.9096 121.777 87.9629 122.124 87.8578 122.44L84.3902 132.842C84.2496 133.265 83.8544 133.551 83.4074 133.551ZM74.446 131.479H82.6615L85.438 123.149H71.6696L74.446 131.479Z" fill="#472B29"/>
<path d="M69.9083 118.789C69.633 118.789 69.3607 118.681 69.1564 118.465C67.8866 117.124 38.0794 85.3218 41.5367 59.037C42.7266 49.9986 47.7645 42.6904 56.5143 37.318C57.0027 37.0176 57.6406 37.1715 57.9395 37.6584C58.2385 38.1453 58.086 38.7847 57.5991 39.0836C49.4103 44.1112 44.6965 50.9162 43.5924 59.3034C40.2594 84.6099 70.3567 116.719 70.6601 117.04C71.0553 117.454 71.036 118.111 70.6216 118.503C70.4204 118.694 70.1643 118.789 69.9083 118.789Z" fill="#472B29"/>
<path d="M87.6054 118.789C87.3494 118.789 87.0933 118.696 86.8935 118.505C86.4791 118.111 86.4599 117.456 86.855 117.041C87.1584 116.72 117.256 84.6116 113.924 59.3065C112.82 50.9179 108.106 44.1143 99.916 39.0853C99.4291 38.7863 99.2752 38.147 99.5756 37.66C99.8761 37.1731 100.514 37.0177 101.001 37.3196C109.751 42.692 114.79 49.9988 115.978 59.0401C119.437 85.3249 89.6286 117.126 88.3587 118.467C88.1545 118.68 87.8807 118.789 87.6054 118.789Z" fill="#472B29"/>
<path d="M88.3171 94.3484C95.686 66.2062 92.9836 50.8956 88.7389 42.7171C84.5727 34.6896 78.8288 33.1016 78.5861 33.0379C78.5003 33.0143 78.4115 33.0039 78.3227 33.0039H77.8594C77.7677 33.0039 77.6774 33.0172 77.5871 33.0394C77.3607 33.1016 71.9542 34.6437 67.9997 42.3368C62.7575 52.5325 59.9722 73.9881 76.4653 118.313C76.6177 118.718 77.004 118.987 77.4362 118.987H79.668C80.1002 118.987 80.4879 118.718 80.6389 118.313C83.9289 109.47 86.4272 101.552 88.2934 94.4402C88.3053 94.4091 88.3112 94.3795 88.3171 94.3484ZM86.6551 92.5502C79.7213 87.4353 72.0771 84.8143 69.2458 83.9603C75.2546 78.3037 81.3019 74.583 90.5475 70.8209C90.0147 76.9688 88.7981 84.1542 86.6551 92.5502ZM90.8627 65.0607C84.3433 60.8323 76.0642 58.2838 66.1956 57.4831C66.499 53.7861 67.1161 50.684 67.9198 48.0807C75.0312 46.1211 81.7385 45.3575 87.8909 45.8103C89.7291 50.2355 91.0359 56.4338 90.8627 65.0607ZM78.0208 35.0759H78.1717C78.9339 35.3245 83.4612 37.0473 86.8993 43.6717C87.0014 43.8686 87.1006 44.0773 87.2012 44.2845C81.3848 43.9559 75.1022 44.6648 68.4822 46.3994C68.8862 45.3057 69.3213 44.3111 69.7772 43.4113C72.9947 37.0665 77.2837 35.3334 78.0208 35.0759ZM66.0949 58.9587C76.0894 59.7727 84.3937 62.4041 90.808 66.7908C90.7754 67.5664 90.731 68.3611 90.6748 69.1736C80.8372 73.1119 74.5043 76.9643 68.1965 82.9139C66.2518 73.0675 65.7382 65.2191 66.0949 58.9587ZM78.9472 116.915H78.1584C73.6326 104.67 70.6045 94.2374 68.6997 85.3456C71.3859 86.1596 79.3498 88.8709 86.251 94.1013C84.4528 100.908 82.0656 108.475 78.9472 116.915Z" fill="#472B29"/>
<path d="M75.0125 117.254C54.9437 80.7014 55.6408 60.1249 59.7567 49.3002C63.9762 38.2106 72.5291 35.0567 72.6149 35.0256C72.6593 35.0093 72.6904 34.9768 72.7319 34.9561C72.7955 34.9235 72.8562 34.8924 72.9109 34.848C72.9613 34.8066 73.0027 34.7592 73.0441 34.7104C73.0885 34.6586 73.13 34.6083 73.164 34.5491C73.1951 34.4913 73.2158 34.4321 73.2365 34.37C73.2573 34.3063 73.278 34.2457 73.2869 34.1776C73.2957 34.111 73.2898 34.0444 73.2854 33.9763C73.2824 33.9289 73.2943 33.8831 73.2839 33.8357C73.2795 33.812 73.2617 33.7943 73.2558 33.7706C73.2499 33.7484 73.2543 33.7262 73.2469 33.704C73.2321 33.6611 73.1995 33.63 73.1788 33.5915C73.1463 33.5264 73.1137 33.4627 73.0693 33.408C73.0264 33.3547 72.9775 33.3118 72.9257 33.2689C72.8784 33.2289 72.834 33.1904 72.7792 33.1608C72.7126 33.1223 72.6416 33.0972 72.5676 33.075C72.5158 33.0587 72.4684 33.0424 72.4137 33.035C72.3382 33.0247 72.2642 33.0276 72.1857 33.035C72.1428 33.038 72.1014 33.0261 72.0585 33.035C71.354 33.183 54.7469 36.8194 49.0918 52.3402C43.2725 68.3182 51.3177 90.4087 73.0012 117.994C73.0293 118.03 73.0693 118.043 73.1004 118.074C73.1329 118.135 73.1625 118.193 73.1966 118.252C73.3845 118.595 73.7383 118.789 74.1053 118.789C74.2725 118.789 74.4442 118.748 74.6026 118.66C75.1043 118.385 75.2878 117.755 75.0125 117.254ZM60.7246 90.872C60.0305 92.1181 59.585 93.2547 59.289 94.1871C54.371 85.4581 51.2778 77.5164 50.0124 70.3843C51.2334 70.4923 53.3172 70.7395 55.9013 71.3004C56.6221 76.9363 58.1302 83.4276 60.7246 90.872ZM51.0321 53.0668C53.7716 45.5262 59.4577 40.9634 64.2885 38.3171C61.9737 40.6644 59.5865 43.953 57.849 48.4892C55.9487 53.4501 54.7291 60.3632 55.7193 69.7464C52.9709 69.1766 50.8663 68.9591 49.7475 68.8762C48.9098 63.0376 49.3271 57.7599 51.0321 53.0668ZM60.3354 96.0016C60.476 95.3193 60.7779 94.165 61.4069 92.7856C63.026 97.2167 65.0344 101.984 67.469 107.091C64.7843 103.264 62.4251 99.5758 60.3354 96.0016Z" fill="#472B29"/>
<path d="M108.424 52.3387C102.771 36.8179 86.1622 33.1816 85.4577 33.0336C85.4119 33.0247 85.3689 33.0365 85.3245 33.0336C85.2505 33.0276 85.1795 33.0232 85.107 33.0336C85.0478 33.0424 84.9945 33.0602 84.9383 33.078C84.8687 33.1002 84.8021 33.1224 84.7399 33.1594C84.6837 33.1904 84.6363 33.2319 84.5875 33.2733C84.5372 33.3162 84.4898 33.3562 84.4469 33.408C84.401 33.4642 84.3699 33.5264 84.3359 33.593C84.3167 33.633 84.2841 33.6626 84.2693 33.7055C84.2619 33.7277 84.2663 33.7499 84.2604 33.7706C84.2545 33.7943 84.2367 33.812 84.2323 33.8357C84.2219 33.8831 84.2338 33.929 84.2308 33.9763C84.2264 34.0459 84.2205 34.111 84.2293 34.1791C84.2382 34.2472 84.2575 34.3078 84.2797 34.3715C84.3004 34.4336 84.3211 34.4928 84.3522 34.5506C84.3847 34.6098 84.4277 34.6601 84.4721 34.7119C84.5135 34.7607 84.5549 34.8081 84.6053 34.8495C84.66 34.8939 84.7207 34.925 84.7829 34.9576C84.8243 34.9783 84.8554 35.0123 84.8998 35.0271C84.9871 35.0582 93.54 38.2106 97.758 49.3017C101.875 60.125 102.572 80.7029 82.5037 117.256C82.2269 117.758 82.4119 118.388 82.9121 118.662C83.069 118.749 83.2422 118.791 83.4094 118.791C83.7765 118.791 84.1302 118.597 84.3181 118.253C84.3507 118.193 84.3803 118.135 84.4143 118.076C84.4454 118.045 84.4869 118.031 84.5135 117.996C106.198 90.4072 114.242 68.3168 108.424 52.3387ZM104.297 81.5317C103.407 79.2303 102.312 77.0724 101.027 75.0878C101.215 74.0355 101.38 73.0069 101.517 72.0079L107.311 71.3937C106.669 74.6127 105.669 77.99 104.297 81.5317ZM100.61 77.2589C101.748 79.2258 102.703 81.3511 103.462 83.6066C101.276 88.8103 98.3219 94.35 94.6189 100.208C94.3688 99.7342 94.1069 99.2502 93.7724 98.7692C97.1512 90.6322 99.3239 83.5016 100.61 77.2589ZM93.2277 38.3172C97.1734 40.4794 101.689 43.919 104.705 49.2188C102.842 48.1651 100.882 47.2726 98.8444 46.5504C97.2149 43.0014 95.1976 40.3152 93.2277 38.3172ZM99.6672 48.4907C99.6583 48.47 99.6495 48.4507 99.6406 48.4285C101.858 49.3121 103.967 50.4117 105.945 51.7097C106.135 52.1507 106.315 52.6036 106.484 53.0668C108.284 58.0234 108.637 63.64 107.6 69.8737L101.707 70.4998C102.846 60.7362 101.618 53.5819 99.6672 48.4907ZM93.0575 100.446C93.1537 100.621 93.2529 100.792 93.3476 100.973C93.4645 101.196 93.5844 101.423 93.7117 101.652C92.5573 103.436 91.3407 105.246 90.0487 107.088C91.138 104.805 92.1385 102.592 93.0575 100.446Z" fill="#472B29"/>
<path d="M86.1834 48.279C86.1701 48.279 86.1567 48.279 86.1434 48.276C85.1267 48.1665 83.9708 48.1191 82.7291 48.1443C82.7261 48.1443 82.7246 48.1443 82.7217 48.1443C82.5204 48.1443 82.3561 47.9844 82.3517 47.7817C82.3472 47.5774 82.51 47.4087 82.7143 47.4043C84.0033 47.3791 85.1755 47.4265 86.2233 47.5419C86.4276 47.5641 86.5726 47.7462 86.5504 47.9489C86.5312 48.1384 86.3699 48.279 86.1834 48.279Z" fill="#472B29"/>
<path d="M70.9317 49.6671C70.7629 49.6671 70.6105 49.5517 70.572 49.3815C70.5261 49.1817 70.6505 48.9819 70.8488 48.9375C70.9006 48.9242 76.0732 47.7402 81.2473 47.459C81.2547 47.459 81.2621 47.459 81.268 47.459C81.4633 47.459 81.6261 47.6129 81.638 47.8083C81.6483 48.0125 81.4915 48.1871 81.2887 48.199C76.1783 48.4772 71.0678 49.6464 71.0175 49.6568C70.9864 49.6642 70.9583 49.6671 70.9317 49.6671Z" fill="#472B29"/>
<path d="M82.7214 100.021C82.6903 100.021 82.6592 100.017 82.6281 100.009C82.4298 99.9577 82.3129 99.7549 82.3632 99.5566C82.6977 98.2853 82.9241 97.2226 83.0425 96.4012C83.0707 96.1985 83.2586 96.0534 83.4599 96.0875C83.6627 96.1171 83.8018 96.3036 83.7737 96.5048C83.6538 97.3529 83.42 98.4436 83.0796 99.7431C83.0352 99.9118 82.8857 100.021 82.7214 100.021Z" fill="#472B29"/>
<path d="M78.5572 112.774C78.5143 112.774 78.4699 112.767 78.427 112.751C78.236 112.678 78.1398 112.467 78.2109 112.274C78.2331 112.216 80.422 106.366 81.868 101.371C81.9257 101.174 82.1166 101.056 82.3268 101.118C82.5236 101.174 82.6361 101.38 82.5798 101.577C81.1265 106.6 78.9272 112.475 78.9065 112.535C78.8473 112.684 78.7082 112.774 78.5572 112.774Z" fill="#472B29"/>
<path d="M105.605 69.0848C105.577 69.0848 105.55 69.0819 105.521 69.0745C105.322 69.0301 105.198 68.8303 105.244 68.6305C106.398 63.6237 106.03 59.2695 105.518 56.4989C105.482 56.2976 105.612 56.1038 105.814 56.0668C106.021 56.0253 106.209 56.1615 106.246 56.3628C106.77 59.2044 107.147 63.668 105.965 68.7977C105.925 68.9694 105.774 69.0848 105.605 69.0848Z" fill="#472B29"/>
<path d="M105.592 55.4364C105.425 55.4364 105.273 55.3224 105.233 55.1522C104.894 53.7344 104.568 52.91 104.565 52.9011C104.49 52.7117 104.583 52.4971 104.772 52.4201C104.959 52.3461 105.176 52.4379 105.253 52.6273C105.267 52.6614 105.6 53.505 105.953 54.982C106.001 55.1803 105.878 55.3801 105.678 55.4275C105.649 55.4334 105.619 55.4364 105.592 55.4364Z" fill="#472B29"/>
<path d="M44.0291 61.42C44.0291 61.42 49.4163 61.42 53.0941 61.42C56.7719 61.42 59.7541 58.4378 59.7541 54.76C59.7541 51.3072 57.1167 48.5011 53.7527 48.1666C53.7852 47.8987 53.8341 47.6368 53.8341 47.36C53.8341 43.6822 50.8519 40.7 47.1741 40.7C45.0458 40.7 43.1736 41.7153 41.9541 43.2693C41.7469 39.368 38.5471 36.26 34.5941 36.26C30.5078 36.26 27.1941 39.5737 27.1941 43.66C27.1941 44.3201 27.308 44.9476 27.4708 45.5574C26.5207 44.4074 25.1028 43.66 23.4941 43.66C20.8582 43.66 18.7077 45.6358 18.3807 48.1814C18.1128 48.1489 17.8508 48.1 17.5741 48.1C13.8963 48.1 10.9141 51.0822 10.9141 54.76C10.9141 58.4378 13.8963 61.42 17.5741 61.42C21.2519 61.42 31.6341 61.42 31.6341 61.42H39.5891V62.16H44.0291V61.42Z" fill="#FDFCEF"/>
<path d="M34.5919 35.52C30.103 35.52 26.4519 39.1712 26.4519 43.66C26.4519 43.6837 26.4519 43.7059 26.4519 43.7296C25.5609 43.2057 24.5427 42.92 23.4919 42.92C20.782 42.92 18.4436 44.7863 17.782 47.3674C17.7125 47.363 17.6429 47.36 17.5719 47.36C13.4915 47.36 10.1719 50.6797 10.1719 54.76C10.1719 58.8404 13.4915 62.16 17.5719 62.16H39.5869C39.9954 62.16 40.3269 61.8285 40.3269 61.42C40.3269 61.0115 39.9954 60.68 39.5869 60.68H17.5719C14.307 60.68 11.6519 58.0249 11.6519 54.76C11.6519 51.4951 14.307 48.84 17.5719 48.84C17.745 48.84 17.9123 48.8652 18.0795 48.8874L18.2882 48.9155C18.3193 48.9199 18.3489 48.9214 18.38 48.9214C18.744 48.9214 19.0637 48.6476 19.1126 48.2747C19.3952 46.065 21.2778 44.4 23.4919 44.4C24.8017 44.4 26.0419 44.9935 26.8974 46.028C27.0424 46.2027 27.254 46.2974 27.4686 46.2974C27.5841 46.2974 27.6995 46.2707 27.8061 46.2145C28.1154 46.0561 28.2708 45.7024 28.182 45.3665C28.0103 44.7212 27.9304 44.1795 27.9304 43.66C27.9304 39.9881 30.9185 37 34.5904 37C38.1143 37 41.024 39.7706 41.2119 43.3093C41.2282 43.6171 41.4339 43.882 41.7284 43.9753C41.8024 43.9989 41.8779 44.0108 41.9534 44.0108C42.1754 44.0108 42.3915 43.9087 42.5336 43.7266C43.6761 42.2733 45.3648 41.44 47.1719 41.44C50.4368 41.44 53.0919 44.0951 53.0919 47.36C53.0919 47.5332 53.0667 47.7004 53.0445 47.8677L53.0164 48.0763C52.9927 48.2747 53.049 48.473 53.1733 48.6284C53.2976 48.7838 53.4796 48.8829 53.6765 48.9022C56.7179 49.2056 59.0104 51.7231 59.0104 54.76C59.0104 58.0249 56.3553 60.68 53.0904 60.68H44.0269C43.6184 60.68 43.2869 61.0115 43.2869 61.42C43.2869 61.8285 43.6184 62.16 44.0269 62.16H53.0919C57.1722 62.16 60.4919 58.8404 60.4919 54.76C60.4919 51.2125 57.9922 48.2288 54.5674 47.5421C54.5704 47.4814 54.5719 47.4207 54.5719 47.36C54.5719 43.2797 51.2522 39.96 47.1719 39.96C45.4314 39.96 43.7782 40.5757 42.461 41.6827C41.576 38.1248 38.3733 35.52 34.5919 35.52Z" fill="#472B29"/>
<path d="M32.3742 45.8801C30.2978 45.8801 28.5129 47.3586 28.063 49.3448C27.5198 49.0162 26.8997 48.8401 26.2692 48.8401C24.4903 48.8401 23.0162 50.1677 22.7868 51.9008C22.4864 51.8327 22.2007 51.8001 21.921 51.8001C19.6581 51.8001 17.7607 53.5761 17.6024 55.8435C17.589 56.0477 17.743 56.2253 17.9457 56.2401C17.9546 56.2401 17.9635 56.2401 17.9724 56.2401C18.1648 56.2401 18.3276 56.0906 18.3409 55.8968C18.4726 54.0157 20.0444 52.5401 21.921 52.5401C22.2599 52.5401 22.6166 52.6023 23.0132 52.7281C23.0458 52.7384 23.0798 52.7429 23.1124 52.7429C23.1938 52.7429 23.2752 52.7133 23.3433 52.663C23.438 52.5934 23.4942 52.472 23.4942 52.3536C23.4942 50.8233 24.7389 49.5786 26.2692 49.5786C26.9308 49.5786 27.579 49.8273 28.0911 50.2787C28.1607 50.3394 28.248 50.3719 28.3353 50.3719C28.3827 50.3719 28.4286 50.363 28.473 50.3438C28.6032 50.292 28.692 50.1706 28.7024 50.03C28.8533 48.1179 30.465 46.6186 32.3713 46.6186C32.6791 46.6186 33.0003 46.669 33.3806 46.777C33.4147 46.7874 33.4502 46.7918 33.4842 46.7918C33.6456 46.7918 33.7906 46.6838 33.838 46.5224C33.8942 46.3256 33.7802 46.1214 33.5834 46.0651C33.1394 45.9393 32.7531 45.8801 32.3742 45.8801Z" fill="#472B29"/>
<path d="M52.9163 48.1001C50.9538 48.1001 49.2045 49.4277 48.6628 51.3295C48.6066 51.5263 48.7205 51.7305 48.9174 51.7868C48.9529 51.7957 48.9869 51.8001 49.0195 51.8001C49.1808 51.8001 49.3288 51.6935 49.3747 51.5307C49.8261 49.9471 51.2824 48.8401 52.9163 48.8401C53.0895 48.8401 53.2567 48.8608 53.4225 48.883C53.4402 48.886 53.4565 48.8875 53.4743 48.8875C53.6534 48.8875 53.8132 48.7513 53.8384 48.5663C53.8665 48.3635 53.7244 48.1771 53.5216 48.1504C53.3233 48.1238 53.122 48.1001 52.9163 48.1001Z" fill="#472B29"/>
</svg>
