<svg width="148" height="148" viewBox="0 0 148 148" fill="none" xmlns="http://www.w3.org/2000/svg">
<rect width="148" height="148" rx="20" fill="white"/>
<rect width="148" height="148" rx="20" fill="url(#paint0_linear_9577_11645)"/>
<path fill-rule="evenodd" clip-rule="evenodd" d="M148 74C148 114.867 114.867 148 74 148C33.1335 148 0 114.867 0 74C0 33.1335 33.1335 0 74 0C114.867 0 148 33.1335 148 74Z" fill="url(#paint1_linear_9577_11645)"/>
<path fill-rule="evenodd" clip-rule="evenodd" d="M93.2068 84.9598C90.1173 88.3453 85.7809 90.0584 83.7496 90.0584C81.4001 90.0584 80.1162 88.6191 79.8535 86.4546C79.7647 85.6258 79.7943 84.7896 79.9423 83.9645C80.7193 79.1175 82.5027 76.1057 82.3917 75.1881C82.3584 74.9254 82.2104 74.7959 82.018 74.7959C80.5158 74.7959 75.247 80.2349 74.4478 83.835L73.8262 86.7173C73.4192 88.7486 71.4286 90.0547 70.0596 90.0547C69.4047 90.0547 68.9089 89.7291 68.8238 89.0076C68.7979 88.6783 68.8238 88.349 68.9015 88.0234L69.1938 86.5064C66.3522 88.6302 63.2885 90.0658 61.8529 90.0658C59.8919 90.0658 58.7931 89.0187 58.4009 87.4425C57.1059 89.1482 55.3928 90.0658 53.5687 90.0658C51.2377 90.0658 48.9917 88.5229 47.915 86.24C46.3795 87.9642 44.5592 89.6514 42.3799 91.0463C39.1645 93.0813 35.5867 94.7167 31.3465 94.7167C27.4319 94.7167 24.1093 92.6225 22.2704 90.9205C19.5435 88.3675 18.1041 84.5639 17.6786 81.0933C16.3392 70.1524 22.9993 55.8075 33.3186 49.5212C35.6866 48.0782 38.3394 47.3604 40.7481 47.3604C45.7062 47.3604 49.4062 50.905 49.9242 55.1452C50.3904 58.9636 48.866 62.264 44.6295 64.3989C42.4687 65.4941 41.3957 65.4423 41.059 64.9206C40.8333 64.5728 40.9628 63.9808 41.3957 63.6219C45.3769 60.2956 45.4508 57.565 44.9846 53.717C44.6812 51.2417 43.0533 49.6544 41.2255 49.6544C33.4 49.6544 22.1742 67.2109 23.7356 79.9833C24.3461 84.9635 27.3986 90.7281 33.659 90.7281C35.7458 90.7281 37.9583 90.1398 39.9267 89.1556C43.3603 87.4018 45.3029 86.0106 47.2528 83.7388C46.7718 77.8336 51.8408 70.4188 59.3814 70.4188C62.6448 70.4188 65.3458 71.7286 65.664 74.3482C66.0636 77.6227 63.2738 78.2776 62.2304 78.2776C61.3165 78.2776 59.8512 78.0149 59.7476 77.1639C59.6366 76.2463 61.7235 76.7717 61.4645 74.6738C61.3054 73.364 59.9437 72.9052 58.6413 72.9052C53.946 72.9052 51.3524 79.4542 51.8519 83.5205C52.0776 85.3557 53.0174 87.1872 54.7157 87.1872C56.0847 87.1872 58.0605 85.2225 58.819 82.3402C59.3 80.3755 61.1574 79.0657 62.5301 79.0657C63.2479 79.0657 63.7436 79.3913 63.8324 80.1128C63.862 80.3755 63.8398 80.7048 63.7547 81.097C63.5993 81.948 62.9445 84.7822 62.9778 85.3668C63 85.8774 63.296 86.5804 64.184 86.5804C64.887 86.5804 67.477 85.1818 69.8746 83.0358C70.6257 79.1471 71.5544 74.3371 71.6284 73.956C71.9207 72.3798 72.4868 70.7555 75.6836 70.7555C76.3385 70.7555 76.8343 71.0811 76.9305 71.8692C76.9601 72.1282 76.9379 72.4612 76.8528 72.8534L75.9574 76.8975C78.762 73.1605 83.1206 70.4151 85.7328 70.4151C86.8428 70.4151 87.6975 70.9997 87.8418 72.1837C87.9232 72.8423 87.7308 73.9523 87.2979 75.1955C86.3692 77.7485 85.3258 81.5854 84.6339 84.8895C84.4859 85.5925 84.7301 86.6507 86.014 86.6507C87.0389 86.6507 90.3282 85.3964 92.9885 81.8851C92.97 81.3893 92.9626 80.8861 92.9626 80.3755C92.9626 77.6227 93.1587 75.3953 93.6804 73.7636C94.2021 72.0579 96.3555 70.4262 97.7874 70.4262C98.5052 70.4262 99.0269 70.8184 99.0269 71.6028C99.0269 71.8655 98.9603 72.1948 98.8308 72.5204C97.854 75.4027 97.3323 78.0926 97.3323 80.7751C97.3323 82.281 97.6579 84.7045 97.9872 85.9477C98.0538 86.2104 98.113 86.4731 98.3757 86.4731C98.8308 86.4731 101.898 83.4613 104.114 79.7909C102.153 78.544 101.047 76.2537 101.047 73.4343C101.047 68.7205 103.852 66.2933 106.59 66.2933C108.743 66.2933 110.697 67.8658 110.697 71.0071C110.697 72.9755 109.912 75.2029 108.81 77.3637C108.81 77.3637 109.265 77.4303 109.461 77.4303C111.155 77.4303 112.462 76.6422 113.183 75.7912C113.509 75.4212 113.812 75.1326 114.101 74.9624C116.284 72.3243 119.484 70.4188 123.24 70.4188C126.436 70.4188 129.197 71.6657 129.515 74.2853C129.922 77.6227 127.069 78.2813 126.089 78.2813C125.112 78.2813 123.643 78.0186 123.539 77.1676C123.436 76.3166 125.578 76.7754 125.33 74.7478C125.171 73.438 123.802 72.9126 122.496 72.9126C118.123 72.9126 115.118 78.7438 115.695 83.4576C115.925 85.3594 116.802 87.1946 118.5 87.1946C119.869 87.1946 121.915 85.2262 122.67 82.3476C123.155 80.4458 125.008 79.0731 126.377 79.0731C127.028 79.0731 127.591 79.3987 127.687 80.1868C127.735 80.579 127.576 81.4337 126.847 84.5084C126.547 85.8182 126.488 86.9319 126.603 87.8495C126.836 89.7513 127.706 90.9945 128.512 91.716C128.804 91.975 128.978 92.3006 129.001 92.5041C129.063 93.0295 128.664 93.4883 128.013 93.4883C127.817 93.4883 127.558 93.4883 127.343 93.3588C123.983 91.9824 122.588 89.6921 122.196 87.5276C120.901 89.163 119.184 90.0806 117.423 90.0806C114.423 90.0806 111.492 87.4573 111.078 84.0533C110.908 82.6547 111.074 81.1488 111.533 79.6725C110.316 80.4236 109.006 80.8417 107.829 80.8417C107.437 80.8417 107.111 80.8417 106.723 80.7751C103.789 85.0301 100.721 87.979 98.372 89.2925C97.3952 89.8179 96.485 90.0806 95.8301 90.0806C95.3047 90.0806 94.7201 89.9511 94.4611 89.4923C93.8469 88.4674 93.4436 86.8542 93.2068 84.9598ZM103.837 71.0071C103.837 72.8423 104.747 74.7441 105.924 75.9873C106.382 74.7404 106.641 73.4972 106.641 72.2503C106.641 69.8897 105.728 68.8426 105.01 68.8426C104.162 68.8426 103.837 70.0266 103.837 71.0071Z" fill="white"/>
<defs>
<linearGradient id="paint0_linear_9577_11645" x1="126.773" y1="132.201" x2="22.755" y2="17.4825" gradientUnits="userSpaceOnUse">
<stop stop-color="#823AF3"/>
<stop offset="0.36" stop-color="#4B66E1"/>
<stop offset="0.906" stop-color="#01F1C4"/>
</linearGradient>
<linearGradient id="paint1_linear_9577_11645" x1="126.773" y1="132.201" x2="22.755" y2="17.4825" gradientUnits="userSpaceOnUse">
<stop stop-color="#823AF3"/>
<stop offset="0.36" stop-color="#4B66E1"/>
<stop offset="0.906" stop-color="#01F1C4"/>
</linearGradient>
</defs>
</svg>
