<svg width="148" height="148" viewBox="0 0 148 148" fill="none" xmlns="http://www.w3.org/2000/svg">
<rect width="148" height="148" rx="20" fill="#330000"/>
<path d="M7.5 56.1165C7.5 39.7118 7.5 31.5093 10.7789 25.2435C13.6631 19.732 18.2653 15.2509 23.9258 12.4426C30.3609 9.25 38.7851 9.25 55.6332 9.25H92.3668C109.215 9.25 117.639 9.25 124.074 12.4426C129.735 15.2509 134.337 19.732 137.221 25.2435C140.5 31.5093 140.5 39.7118 140.5 56.1165V91.8835C140.5 108.288 140.5 116.491 137.221 122.756C134.337 128.268 129.735 132.749 124.074 135.557C117.639 138.75 109.215 138.75 92.3668 138.75H55.6332C38.7851 138.75 30.3609 138.75 23.9258 135.557C18.2653 132.749 13.6631 128.268 10.7789 122.756C7.5 116.491 7.5 108.288 7.5 91.8835V56.1165Z" fill="#330000"/>
<path d="M71.9523 90.6328H51.3425L47.1492 103.642C47.0329 104.125 46.5759 104.467 46.0786 104.443H35.6397C35.0444 104.443 34.8362 104.117 35.0152 103.463L52.8592 52.1412C53.0378 51.6066 53.2164 50.9979 53.3945 50.3148C53.6282 49.1257 53.7475 47.9177 53.7517 46.7064C53.7004 46.3484 54.0234 46.0323 54.3759 46.0824H68.5622C68.9779 46.0824 69.2154 46.231 69.2757 46.5279L89.5292 103.552C89.7073 104.147 89.5292 104.444 88.9939 104.443H77.3948C76.9882 104.488 76.5997 104.217 76.5028 103.82L71.9523 90.6328ZM54.5545 79.4061H68.6515C66.3354 71.6999 63.7215 64.095 61.603 56.3292C59.3173 64.1084 56.8236 71.8562 54.5545 79.4061Z" fill="#FF9A00"/>
<path d="M101.568 55.5268C100.658 55.5634 99.7509 55.4075 98.9049 55.0699C98.0594 54.7323 97.2947 54.2198 96.661 53.5668C96.0293 52.885 95.5381 52.0858 95.2166 51.214C94.895 50.3427 94.7492 49.4163 94.7872 48.488C94.7549 47.5691 94.9168 46.6538 95.2626 45.8016C95.6089 44.9495 96.1309 44.1799 96.795 43.5429C97.4524 42.9126 98.2285 42.4187 99.0788 42.0899C99.9285 41.7611 100.835 41.6039 101.746 41.6273C103.888 41.6273 105.568 42.2658 106.788 43.5429C107.403 44.2066 107.881 44.985 108.195 45.8335C108.509 46.682 108.652 47.5843 108.616 48.488C108.654 49.4195 108.503 50.3496 108.174 51.2219C107.844 52.0942 107.342 52.8915 106.698 53.5668C106.025 54.2295 105.221 54.7457 104.339 55.0833C103.456 55.4205 102.513 55.5717 101.568 55.5268ZM95.4118 103.552V60.9621C95.4118 60.4275 95.6488 60.1602 96.1257 60.1602H107.1C107.575 60.1602 107.813 60.4275 107.814 60.9621V103.552C107.814 104.147 107.576 104.444 107.1 104.443H96.215C95.6797 104.443 95.4118 104.146 95.4118 103.552Z" fill="#FF9A00"/>
</svg>
