<svg width="148" height="148" viewBox="0 0 148 148" fill="none" xmlns="http://www.w3.org/2000/svg">
<rect width="148" height="148" rx="20" fill="#B1C1FF"/>
<g filter="url(#filter0_d_9585_11804)">
<path d="M74.68 118.865C97.3799 118.865 115.782 99.4688 115.782 75.5419C115.782 51.6149 97.3799 32.2183 74.68 32.2183C51.9801 32.2183 33.5781 51.6149 33.5781 75.5419C33.5781 99.4688 51.9801 118.865 74.68 118.865Z" fill="#616161"/>
<path d="M82.4587 98.7257C100.864 98.7257 115.785 84.2866 115.785 66.4751C115.785 48.6637 100.864 34.2246 82.4587 34.2246C64.0533 34.2246 49.1328 48.6637 49.1328 66.4751C49.1328 84.2866 64.0533 98.7257 82.4587 98.7257Z" fill="#212121"/>
<path d="M80.2351 36.6621C80.2351 36.6621 91.3438 41.1056 86.6759 45.0647C84.3142 47.0664 81.3127 48.1262 78.5133 49.437C75.2629 50.9589 71.9148 52.2808 68.9777 54.4092C66.7582 56.0178 64.6609 57.7463 63.1545 60.0702C61.3505 62.8518 60.2885 65.8955 60.1063 69.2192C59.9419 72.2119 60.4974 75.0868 61.7415 77.7951C63.5167 81.6609 66.3983 84.4891 70.1796 86.4354C72.8724 87.8217 75.7273 88.4638 78.7399 88.3927C82.268 88.3105 85.5184 87.3107 88.4355 85.2979C90.0907 84.1559 91.4104 82.7073 92.6546 81.121C94.0943 79.2859 95.2562 77.313 96.2538 75.2334C97.4957 72.6474 98.4311 69.9369 99.4597 67.2619C100.248 65.2135 101.053 63.1539 102.277 61.3255C106.896 54.4359 111.339 61.1011 111.339 61.1011C111.339 61.1011 109.118 52.2142 102.452 45.549C95.7872 38.8838 80.2351 36.6621 80.2351 36.6621Z" fill="#3949AB"/>
<path d="M104.673 65.5441C103.696 78.0146 101.236 87.337 97.8746 94.2621C92.7646 106.908 79.8809 115.577 65.1331 114.298C49.6365 112.951 37.0882 100.263 35.8974 84.7531C34.9532 72.4603 40.9207 61.5006 50.3097 55.3086C57.9924 49.6454 68.7656 47.3971 78.0124 45.5486C85.504 44.0511 89.2054 41.7939 90.8229 39.4633C92.4136 37.1705 91.1805 33.9734 88.5745 32.9781C82.5914 30.6964 76.0217 29.6122 69.1233 30.1187C45.2531 31.8716 26.4817 52.4626 26.9216 76.3928C27.3993 102.571 49.9676 123.353 76.7705 120.889C97.157 119.014 114.042 103.296 117.377 83.0979C118.841 74.2355 117.659 65.8063 114.593 58.3435C113.156 54.8487 108.232 54.531 106.528 57.9036C105.222 60.4919 104.797 63.9578 104.673 65.5441Z" fill="#E0E0E0"/>
</g>
<defs>
<filter id="filter0_d_9585_11804" x="21.3141" y="24.3961" width="114.286" height="114.292" filterUnits="userSpaceOnUse" color-interpolation-filters="sRGB">
<feFlood flood-opacity="0" result="BackgroundImageFix"/>
<feColorMatrix in="SourceAlpha" type="matrix" values="0 0 0 0 0 0 0 0 0 0 0 0 0 0 0 0 0 0 127 0" result="hardAlpha"/>
<feOffset dx="6" dy="6"/>
<feGaussianBlur stdDeviation="5.8"/>
<feComposite in2="hardAlpha" operator="out"/>
<feColorMatrix type="matrix" values="0 0 0 0 0 0 0 0 0 0 0 0 0 0 0 0 0 0 0.25 0"/>
<feBlend mode="normal" in2="BackgroundImageFix" result="effect1_dropShadow_9585_11804"/>
<feBlend mode="normal" in="SourceGraphic" in2="effect1_dropShadow_9585_11804" result="shape"/>
</filter>
</defs>
</svg>
