<svg width="148" height="148" viewBox="0 0 148 148" fill="none" xmlns="http://www.w3.org/2000/svg">
<rect width="148" height="148" rx="20" fill="#00005B"/>
<path d="M9.25 56.1165C9.25 39.7118 9.25 31.5093 12.4426 25.2435C15.2509 19.732 19.732 15.2509 25.2435 12.4426C31.5093 9.25 39.7118 9.25 56.1165 9.25H91.8835C108.288 9.25 116.491 9.25 122.756 12.4426C128.268 15.2509 132.749 19.732 135.557 25.2435C138.75 31.5093 138.75 39.7118 138.75 56.1165V91.8835C138.75 108.288 138.75 116.491 135.557 122.756C132.749 128.268 128.268 132.749 122.756 135.557C116.491 138.75 108.288 138.75 91.8835 138.75H56.1165C39.7118 138.75 31.5093 138.75 25.2435 135.557C19.732 132.749 15.2509 128.268 12.4426 122.756C9.25 116.491 9.25 108.288 9.25 91.8835V56.1165Z" fill="#00005B"/>
<path d="M63.7755 90.4825H43.7081L39.6251 103.516C39.5117 103.999 39.0667 104.342 38.5826 104.318H28.4185C27.8389 104.318 27.6362 103.992 27.8104 103.338L45.1848 52.2282C45.3587 51.694 45.5323 51.1714 45.7062 50.4878C45.9335 49.2987 46.0498 48.0906 46.0537 46.8794C46.0039 46.5214 46.3129 46.2043 46.6616 46.2554H60.4746C60.8793 46.2554 61.1106 46.4039 61.1693 46.7008L80.8899 103.427C81.0633 104.022 80.8894 104.319 80.3686 104.318H69.0748C68.6789 104.363 68.3006 104.092 68.2063 103.694L63.7755 90.4825ZM46.8355 79.493H60.5616C58.3064 71.7868 55.7613 64.1824 53.6986 56.4161C51.3611 64.4719 49.2026 71.9432 46.8355 79.493Z" fill="#9999FF"/>
<path d="M95.5526 85.4502C96.3514 92.0681 101.909 95.2232 108.062 95.0887C111.532 95.0207 115.241 94.4819 118.483 93.1697C118.772 92.9334 118.918 93.0809 118.918 93.6156V102.08C118.945 102.52 118.761 102.914 118.396 103.149C114.366 104.98 109.74 105.532 105.369 105.462C92.3369 105.462 83.387 96.2791 83.3907 82.9194C83.3565 70.2589 91.57 59.5779 104.327 59.5779C115.14 59.2976 122.627 67.9552 122.657 78.7319C122.657 80.6943 122.547 82.6641 122.31 84.6121C122.263 85.0136 121.922 85.3253 121.528 85.3253C112.891 85.3253 104.213 85.4502 95.5526 85.4502ZM95.5526 77.3333C100.366 77.3333 105.207 77.5035 110.017 77.2889C110.74 77.2149 111.277 77.0775 111.277 76.326C111.176 72.3309 107.805 69.0448 103.892 69.1979C99.1657 68.9047 96.1405 72.8951 95.5526 77.3333Z" fill="#9999FF"/>
</svg>
