<svg width="48" height="48" viewBox="0 0 48 48" fill="none" xmlns="http://www.w3.org/2000/svg">
<path d="M24.5298 22.191C24.4798 22.6143 24.4297 22.3155 24.4297 21.5684C24.4297 20.8214 24.4798 20.4727 24.5298 20.8214C24.5799 21.17 24.5799 21.7677 24.5298 22.191Z" fill="white"/>
<path d="M33.893 34.393C34.6691 33.5713 35.4201 32.6499 35.5954 32.3511C35.7456 32.0273 35.9208 31.7783 35.9959 31.7783C36.046 31.7783 35.8958 32.1269 35.6705 32.5254C35.4452 32.9487 34.619 33.8701 32.5161 35.8872L33.893 34.393Z" fill="white"/>
<path d="M45.7346 32.9736C45.8097 32.7246 45.8848 32.376 45.9099 32.2265C45.9099 31.9775 45.9349 31.9775 46.035 32.2265C46.0851 32.376 46.01 32.7246 45.8598 32.9736C45.6095 33.372 45.6095 33.372 45.7346 32.9736Z" fill="white"/>
<path d="M44.2576 36.2607C44.1824 36.2607 44.3827 35.7626 44.6831 35.1401C44.9836 34.5424 45.259 34.0942 45.309 34.144C45.3591 34.2187 45.1588 34.7168 44.8834 35.2646C44.608 35.8124 44.3327 36.2607 44.2576 36.2607Z" fill="white"/>
<path d="M41.2533 40.245C42.0545 39.3485 42.9808 38.1532 43.3062 37.5805C43.6567 36.9828 43.9571 36.5097 44.0072 36.5097C44.0573 36.5097 43.857 36.9828 43.5566 37.5307C43.2561 38.1034 42.2798 39.3236 39.8263 41.8637L41.2533 40.245Z" fill="white"/>
<path d="M24.7759 22.0665C24.7259 22.5397 24.6758 22.2159 24.6758 21.3195C24.6758 20.423 24.7259 20.0245 24.7759 20.4479C24.826 20.8712 24.826 21.5934 24.7759 22.0665Z" fill="white"/>
<path d="M47.0572 22.0665C46.9821 22.4401 46.9571 22.2906 46.9571 21.693C46.9321 21.1451 46.9821 20.8712 47.0572 21.0704C47.1073 21.2697 47.1073 21.7179 47.0572 22.0665Z" fill="white"/>
<path d="M47.0572 27.6695C47.0072 28.0928 46.9571 27.8687 46.9571 27.1715C46.9571 26.4991 47.0072 26.1505 47.0572 26.4244C47.1073 26.6983 47.1073 27.2462 47.0572 27.6695Z" fill="white"/>
<path d="M42.4007 38.8256C42.2004 39 42.3506 38.6513 42.7261 38.0786C43.1267 37.4809 43.4772 37.0078 43.5273 37.0078C43.5773 37.0078 43.4021 37.3564 43.1768 37.7798C42.9515 38.2031 42.601 38.6762 42.4007 38.8256Z" fill="white"/>
<path d="M39.4966 41.8637L40.7484 40.5688C41.4243 39.8466 42.0252 39.249 42.0502 39.249C42.1003 39.249 42.1253 39.2739 42.1253 39.3237C42.1253 39.3486 41.5495 39.9462 39.4966 41.8637Z" fill="white"/>
<path d="M25.6043 0.576171C25.1286 0.625975 24.4026 0.625975 23.977 0.576171C23.5514 0.526367 23.9519 0.476562 24.8532 0.476562C25.7545 0.476562 26.0799 0.526367 25.6043 0.576171Z" fill="white"/>
<path d="M34.7421 11.7323L37.2456 9.1674V9.1923C38.6226 7.77288 39.7742 6.62739 39.7992 6.62739C39.8493 6.62739 39.8743 6.65229 39.8743 6.67719C39.8743 6.72699 38.7227 7.87249 34.7421 11.7323Z" fill="white"/>
<path d="M14.2132 14.6957L14.9393 13.8739V13.8988C15.3398 13.4506 15.7154 13.077 15.7654 13.077C15.8155 13.077 15.8405 13.1019 15.8405 13.1268C15.8405 13.1766 15.49 13.5502 14.2132 14.6957Z" fill="white"/>
<path d="M0.994672 24.8806C0.944602 25.304 0.894531 25.0051 0.894531 24.2581C0.894531 23.511 0.944602 23.1624 0.994672 23.511C1.04474 23.8596 1.04474 24.4573 0.994672 24.8806Z" fill="white"/>
<path d="M10.8598 20.5231C10.8347 20.2741 10.9099 19.9005 11.01 19.7013C11.1101 19.4772 11.2103 19.3527 11.2353 19.4025C11.2353 19.4274 11.1852 19.8009 11.0601 20.2243C10.9599 20.6227 10.8598 20.7472 10.8598 20.5231Z" fill="white"/>
<path d="M10.6094 26.4249C10.4592 25.6031 10.3591 24.3082 10.3591 23.5612C10.4091 22.316 10.4342 22.3659 10.5844 24.1837C10.6845 25.2794 10.9099 26.6739 11.0601 27.2965C11.2103 27.919 11.2353 28.2926 11.1101 28.168C11.01 28.0435 10.7847 27.2467 10.6094 26.4249Z" fill="white"/>
<path d="M1.24627 23.4366C1.17116 23.7604 1.12109 23.6608 1.12109 23.1876C1.12109 22.7643 1.17116 22.5651 1.22123 22.6896C1.29634 22.8141 1.29634 23.1627 1.24627 23.4366Z" fill="white"/>
<path d="M1.24627 25.5533C1.17116 25.9269 1.14613 25.7774 1.14613 25.1798C1.12109 24.6319 1.17116 24.358 1.24627 24.5572C1.29634 24.7565 1.29634 25.2047 1.24627 25.5533Z" fill="white"/>
<path d="M5.12847 10.313L5.12848 10.313C5.40386 9.91455 5.65421 9.61572 5.70428 9.61572C5.75436 9.61572 5.504 10.064 5.12848 10.6118C4.75295 11.1846 4.42749 11.6328 4.40246 11.6079C4.35238 11.6079 4.40246 11.4585 4.5026 11.3091C4.5777 11.1348 4.87812 10.6865 5.12847 10.313Z" fill="white"/>
<path d="M11.3372 19.7758C11.3372 19.6513 11.4624 19.3026 11.6376 18.954C11.8129 18.6054 11.9631 18.3813 12.0132 18.456C12.0632 18.5307 11.913 18.8793 11.7127 19.2777C11.5124 19.6513 11.3622 19.8754 11.3372 19.7758Z" fill="white"/>
<path d="M10.7614 24.308C10.6863 24.6815 10.6613 24.5321 10.6613 23.9344C10.6362 23.3866 10.6863 23.1127 10.7614 23.3119C10.8115 23.5111 10.8115 23.9593 10.7614 24.308Z" fill="white"/>
<path d="M1.24627 22.0665C1.1962 22.4151 1.14613 22.191 1.14613 21.5685C1.14613 20.9459 1.1962 20.672 1.24627 20.9459C1.29634 21.2198 1.29634 21.7179 1.24627 22.0665Z" fill="white"/>
<path d="M1.24627 26.9224C1.17116 27.2461 1.12109 27.1465 1.12109 26.6734C1.12109 26.2501 1.17116 26.0508 1.22123 26.1754C1.29634 26.2999 1.29634 26.6485 1.24627 26.9224Z" fill="white"/>
<path d="M2.52306 32.2764C2.27271 31.7285 2.07243 31.1309 2.07243 30.9815V30.9566C2.09747 30.8071 2.32278 31.2056 2.57313 31.9028C2.84852 32.5752 3.02377 33.1729 2.99873 33.2227C2.9737 33.2476 2.74838 32.8242 2.52306 32.2764Z" fill="white"/>
<path d="M15.8408 34.7666C15.7657 34.7666 15.265 34.3183 14.7142 33.7705C14.1634 33.2227 13.8129 32.7744 13.9131 32.7744C14.0382 32.7744 14.5389 33.2227 15.0396 33.7705C15.5654 34.3183 15.9159 34.7666 15.8408 34.7666Z" fill="white"/>
<path d="M34.0664 37.0825C33.2653 36.5097 32.6143 35.9619 32.6394 35.8872C32.6394 35.8125 33.3404 36.2856 34.2166 36.9331C35.0678 37.5805 36.62 38.8505 37.6714 39.747C38.7229 40.6435 39.5992 41.4404 39.5992 41.5649C39.6242 41.6645 38.8731 41.0917 37.9468 40.3198C37.0205 39.5229 36.0692 38.726 35.8689 38.5268C35.6686 38.3276 34.8425 37.6801 34.0664 37.0825Z" fill="white"/>
<path d="M9.33162 41.7392C9.25651 41.7392 8.58056 41.1166 7.82951 40.3696C7.07845 39.6225 6.55271 38.9999 6.65286 38.9999C6.77803 38.9999 7.45398 39.6225 8.15497 40.3696C8.88099 41.1166 9.40673 41.7392 9.33162 41.7392Z" fill="white"/>
<path d="M16.3393 35.0156C16.2642 35.0156 15.7635 34.5674 15.2127 34.0195C14.6619 33.4717 14.3114 33.0234 14.4116 33.0234C14.5368 33.0234 15.0375 33.4717 15.5382 34.0195C16.0639 34.5674 16.4144 35.0156 16.3393 35.0156Z" fill="white"/>
<path d="M25.2268 37.6801C24.8012 37.7299 24.2003 37.7299 23.8498 37.6801C23.4994 37.6303 23.8498 37.5805 24.6009 37.5805C25.352 37.5805 25.6524 37.6303 25.2268 37.6801Z" fill="white"/>
<path d="M25.1517 47.392C24.9514 47.4418 24.6259 47.4418 24.4006 47.392C24.1503 47.3173 24.3005 47.2674 24.7261 47.2674C25.1517 47.2674 25.3269 47.3173 25.1517 47.392Z" fill="white"/>
<path d="M40.2505 6.40331L39.7498 5.83056L39.2741 5.25781L40.5008 6.37841L38.5731 8.29587C37.5216 9.36666 36.6454 10.1884 36.6454 10.1137C36.6204 10.039 37.4465 9.19235 40.2505 6.40331Z" fill="white"/>
<path d="M7.67969 7.24998L8.30557 6.57762C8.63102 6.20409 8.93145 5.88037 8.98152 5.88037C9.03159 5.88037 9.05662 5.90527 9.08166 5.95507C9.08166 5.97997 8.7562 6.2788 7.67969 7.24998Z" fill="white"/>
<path d="M34.6178 5.75584C34.6178 5.3574 34.743 4.58544 34.8932 4.06249L35.1436 3.14111L35.9447 3.53955C36.3953 3.76367 37.3968 4.38622 38.1979 4.90916C39.024 5.48191 39.6249 6.05466 39.6249 6.30368C39.6249 6.5527 38.248 8.12154 36.5706 9.78998C34.8682 11.4584 33.3911 12.828 33.2409 12.828C33.0907 12.828 32.2896 12.4296 29.9112 10.9853L30.4119 10.3627C30.8375 9.81488 30.9627 9.76508 31.6887 10.0141C32.2228 10.1801 32.4732 10.4042 32.4398 10.6865C32.3897 10.9106 32.4899 11.1098 32.615 11.1098C32.7652 11.1098 32.9906 10.6366 33.1408 10.0639C33.291 9.46625 33.6915 8.44526 34.017 7.748C34.3425 7.07565 34.6178 6.15427 34.6178 5.75584Z" fill="white"/>
<path d="M5.10136 11.0849C5.95256 9.78998 7.10418 8.24605 7.67999 7.6733C8.23076 7.10055 8.78154 6.60251 8.90671 6.60251C9.00685 6.60251 9.08196 6.92623 9.08196 7.29977C9.08196 7.6733 8.85664 8.19624 8.60629 8.47017C8.3309 8.74409 7.75509 9.74017 6.4783 12.3549L7.35453 13.3759C7.85524 13.9735 8.48111 14.4218 8.85664 14.4467C9.1821 14.4965 9.73287 14.6459 10.0333 14.7953C10.3337 14.9447 10.7593 15.0692 10.9846 15.0692C11.1849 15.0692 11.3602 14.9198 11.3602 14.6957C11.3602 14.4965 11.5604 14.3222 11.8609 14.3222C12.1363 14.3222 12.637 13.9984 12.9874 13.5751C13.4631 13.0024 13.6133 12.9525 13.6133 13.2763C13.6133 13.6498 13.6634 13.6498 14.0389 13.2016C14.2893 12.9027 14.79 12.6288 15.1655 12.579C15.541 12.5043 15.8415 12.579 15.8415 12.7035C15.8415 12.8529 15.1655 13.6747 14.3393 14.5214C13.5132 15.3681 12.4867 16.7875 12.0611 17.6341C11.6355 18.4808 11.235 19.2279 11.1849 19.2528C11.1348 19.2777 10.4589 18.8543 9.65777 18.2567C8.85664 17.6839 7.42964 16.5883 6.4783 15.8163C5.50193 15.0692 4.45045 14.3471 4.15003 14.2475C3.84961 14.1727 3.57422 13.9486 3.57422 13.7743C3.57422 13.6 4.25017 12.4047 5.10136 11.0849Z" fill="white"/>
<path d="M33.3154 13.3507C33.1401 13.3756 32.8147 13.1763 32.6144 12.9273C32.2639 12.5289 32.2639 12.504 32.6645 12.8028C32.9148 12.9522 33.2153 13.0518 33.3655 12.9771C33.5157 12.9024 33.6158 12.9771 33.6158 13.1016C33.6158 13.2511 33.4656 13.3507 33.3154 13.3507Z" fill="white"/>
<path d="M10.258 24.1831C10.1829 24.5068 10.1328 24.4072 10.1328 23.9341C10.1328 23.5107 10.1829 23.3115 10.233 23.436C10.3081 23.5605 10.3081 23.9092 10.258 24.1831Z" fill="white"/>
<path d="M40.8753 19.751C37.9211 19.8008 33.1394 19.8008 30.2353 19.751C27.3312 19.7261 29.7597 19.7012 35.6179 19.7012C41.4761 19.7012 43.8294 19.7261 40.8753 19.751Z" fill="white"/>
<path d="M32.864 28.4667C31.2868 28.5165 28.8083 28.5165 27.3563 28.4667C25.9042 28.4418 27.2061 28.392 30.2353 28.392C33.2646 28.392 34.4412 28.4418 32.864 28.4667Z" fill="white"/>
<path d="M12.2852 29.9111C12.2351 29.9609 12.0098 29.6372 11.7845 29.1641C11.5341 28.6909 11.409 28.2925 11.459 28.2925C11.5341 28.2925 11.7595 28.6162 11.9597 29.0395C12.16 29.4629 12.3102 29.8364 12.2852 29.9111Z" fill="white"/>
<path d="M9.33105 41.9886C9.25594 41.9886 8.52992 41.3163 7.70376 40.4945C6.8776 39.6727 6.30179 39.0004 6.40193 39.0004C6.52711 39.0004 7.25313 39.6727 8.02922 40.4945C8.80531 41.3163 9.40615 41.9886 9.33105 41.9886Z" fill="white"/>
<path d="M17.719 1.67191C18.6703 1.37308 20.3226 1.04936 21.3491 0.924846C22.3755 0.800335 24.4785 0.750531 25.9806 0.800335C27.4827 0.850139 29.3603 1.04936 30.1114 1.24857C30.8624 1.44779 32.1142 1.84622 32.8652 2.12015C33.6163 2.39407 34.4425 2.7676 34.6928 2.94192C35.0433 3.21584 35.0683 3.41506 34.8681 4.13722C34.7429 4.61036 34.6177 5.33252 34.6177 5.75586C34.6177 6.15429 34.3423 7.05077 34.0169 7.74802C33.6914 8.42038 33.2908 9.46627 33.1406 10.039C32.9904 10.6367 32.7651 11.1098 32.6149 11.1098C32.4897 11.1098 32.3896 10.9106 32.4396 10.6865C32.473 10.4043 32.2227 10.1801 31.6886 10.0141C30.9626 9.7651 30.8374 9.8149 29.9111 10.9853L28.2087 10.4873C27.0571 10.1635 25.8053 10.0141 24.4785 10.039C23.2267 10.0639 21.8247 10.2631 20.7232 10.5869C19.7718 10.8857 18.2697 11.5082 17.4185 11.9814C16.5423 12.4545 15.8413 12.7783 15.8413 12.6537C15.8413 12.5541 15.5159 12.5292 15.1403 12.579C14.7648 12.6537 14.2641 12.9277 14.0388 13.2016C13.6633 13.6747 13.6132 13.6747 13.5882 13.2763C13.5882 12.9526 13.4379 13.0273 12.9623 13.6C12.6118 13.9985 12.1111 14.3471 11.8357 14.3471C11.5603 14.3471 11.335 14.5214 11.335 14.7206C11.335 14.9198 11.1597 15.0941 10.9595 15.0941C10.7592 15.0941 10.3336 14.9696 10.0332 14.8202C9.7077 14.6459 9.18196 14.4965 8.83147 14.4716C8.45594 14.4218 7.8551 13.9985 6.45312 12.3798L7.27929 10.6865C7.72992 9.7651 8.30573 8.76901 8.58112 8.49509C8.83147 8.22117 9.08182 7.62351 9.13189 7.15037C9.207 6.40331 9.43231 6.12939 10.9094 5.0835C11.8357 4.43604 13.3378 3.51467 14.2641 3.04153C15.2154 2.56839 16.7676 1.94583 17.719 1.67191Z" fill="white"/>
<path d="M25.1043 10.0391C24.7538 10.0889 24.2531 10.0889 23.9777 10.0391C23.7023 9.98926 23.9777 9.93945 24.6036 9.93945C25.2295 9.93945 25.4548 9.98926 25.1043 10.0391Z" fill="white"/>
<path d="M2.5987 16.2145C2.89913 15.3928 3.24962 14.571 3.3748 14.4216C3.52501 14.2473 3.70025 14.0979 3.80039 14.0979C3.8755 14.073 4.47634 14.4465 5.12726 14.8947C5.75314 15.343 7.38042 16.5383 8.68225 17.5343C10.4097 18.8293 11.0606 19.4518 10.9855 19.7755C10.9354 19.9997 10.7852 20.5226 10.6851 20.9459C10.5849 21.3693 10.4848 21.8175 10.4848 21.942C10.4598 22.0665 10.3596 22.6393 10.2845 23.1871C10.1593 23.8097 10.2595 24.9303 10.9605 28.1676L10.2094 28.8648C9.80884 29.2632 9.15792 29.7613 8.75736 29.9854C8.38183 30.2344 8.08141 30.4834 8.08141 30.608C8.08141 30.7076 7.90616 30.7823 7.70588 30.7823C7.5056 30.7823 7.0049 31.0811 6.60433 31.4795C6.20377 31.8531 5.67803 32.3262 5.40265 32.5254C5.15229 32.7246 4.65159 33.0982 3.57508 33.7705L2.9492 32.4756C2.62374 31.7535 2.098 30.2593 1.82261 29.1636C1.44709 27.6944 1.29688 26.3746 1.29688 24.1832C1.29688 22.4899 1.44709 20.4479 1.6724 19.4518C1.87268 18.5055 2.27325 17.0363 2.5987 16.2145Z" fill="white"/>
<path d="M24.8516 28.2924V24.059V19.8257H46.3818L46.6822 20.498C46.8575 20.9214 46.9827 22.4902 46.9576 24.4326C46.9576 26.9228 46.8325 28.1928 46.4069 29.911C46.1064 31.1561 45.5557 32.8744 45.1551 33.7709C44.7796 34.6673 43.9033 36.286 43.2024 37.3817C42.4763 38.4774 41.4249 39.8719 39.7475 41.5403L37.7447 39.8221C36.6431 38.8758 35.091 37.6058 34.2898 36.9832C32.8879 35.9124 32.8628 35.8626 33.2884 35.4144C33.5388 35.1405 34.1146 34.5428 34.5402 34.0946C34.9908 33.6464 35.6668 32.7997 36.0173 32.2269C36.3928 31.6293 36.8434 30.7079 37.0437 30.1601C37.3441 29.2885 37.3191 29.1142 36.9936 28.7904C36.6682 28.4916 35.5416 28.4169 24.8516 28.2924Z" fill="white"/>
<path d="M24.7782 26.9224C24.7282 27.7441 24.7031 27.1216 24.7031 25.5527C24.7031 23.9839 24.7282 23.3115 24.7782 24.0586C24.8283 24.8057 24.8283 26.1006 24.7782 26.9224Z" fill="white"/>
<path d="M9.05692 29.8613C9.90812 29.2637 10.5841 28.666 10.5841 28.5415C10.5841 28.417 10.7844 28.2925 11.0097 28.2925C11.3101 28.2925 11.0848 28.5913 10.3337 29.189C9.70784 29.687 8.70643 30.4341 8.08055 30.8574C7.45467 31.2807 6.20291 32.227 5.25158 32.9492C4.32527 33.6713 3.57422 34.1694 3.57422 34.02C3.57422 33.8706 3.87464 33.5717 4.25017 33.3476C4.65073 33.0986 5.52696 32.4511 6.25298 31.9033C6.95397 31.3554 8.23076 30.4341 9.05692 29.8613Z" fill="white"/>
<path d="M8.95643 29.8364C9.10664 29.936 9.65742 29.687 10.1832 29.2886L11.1595 28.5664L11.5851 29.2388C11.8104 29.6123 12.2861 30.4092 12.6366 31.0317C13.0121 31.6543 13.7382 32.6504 14.2639 33.2729C14.8147 33.8955 15.8661 34.8168 16.6172 35.3398C17.3683 35.8627 18.8203 36.56 19.8467 36.9086C20.8732 37.2572 22.5255 37.6059 23.4768 37.6806C24.4282 37.7553 26.1806 37.6806 27.3573 37.5063C28.5339 37.332 30.1112 36.9335 30.8622 36.6098C31.6133 36.2612 32.3143 36.0121 32.4394 36.0121C32.5396 36.0121 33.2656 36.5102 34.0667 37.0829C34.8428 37.6806 35.669 38.328 35.8693 38.5273C36.0695 38.7265 36.9458 39.4735 37.822 40.1957C38.6732 40.893 39.3742 41.5653 39.3742 41.6898C39.3742 41.7894 38.6482 42.3622 37.797 42.9847C36.9458 43.6073 35.5188 44.454 34.6175 44.8773C33.7162 45.3255 31.8636 45.973 30.4867 46.3465C28.4839 46.8944 27.4324 47.0438 25.2293 47.0438C23.7022 47.0438 21.5241 46.8695 20.3474 46.6702C19.1708 46.4461 17.2681 45.9232 16.0915 45.4998C14.9148 45.0765 13.0121 44.1053 11.8355 43.3334C10.6588 42.5614 9.05657 41.2914 8.25545 40.5194C7.45432 39.7475 6.12746 38.1786 5.30129 37.0082C4.50017 35.8378 3.82422 34.6923 3.82422 34.4682C3.82422 34.2192 4.17471 33.7959 4.57527 33.5219C5.05094 33.1982 5.25122 32.8994 5.15108 32.7251C5.02591 32.5258 5.05094 32.476 5.20115 32.5756C5.35136 32.6753 5.70186 32.6005 6.02732 32.4013C6.35277 32.1772 6.50298 31.9033 6.40284 31.729C6.26932 31.5132 6.31105 31.4717 6.52802 31.6045C6.70326 31.7041 7.30411 31.4551 7.95502 31.0317C8.68104 30.5337 9.0065 30.185 8.90636 29.9609C8.78119 29.7866 8.80622 29.7368 8.95643 29.8364Z" fill="white"/>
<path d="M23.3999 47.1433C23.1996 47.1931 22.8741 47.1931 22.6488 47.1433C22.3985 47.0686 22.5487 47.0188 22.9743 47.0188C23.3999 47.0188 23.5751 47.0686 23.3999 47.1433Z" fill="white"/>
</svg>
