<svg width="117" height="59" viewBox="0 0 117 59" fill="none" xmlns="http://www.w3.org/2000/svg">
<path d="M116.795 56.0435L97.0408 41.0608L107.655 39.6029L113.349 30.9559L116.795 56.0435Z" fill="#355EFF"/>
<path d="M95.7715 38.1372L105.421 36.8118L110.282 29.2622" stroke="#355EFF" stroke-width="0.973969" stroke-linecap="round"/>
<rect x="0.5" y="0.5" width="103.077" height="32" rx="4.57692" fill="#355EFF"/>
<rect x="0.5" y="0.5" width="103.077" height="32" rx="4.57692" stroke="url(#paint0_linear_9130_31012)"/>
<path d="M21.28 11.704V23H19.024V11.704H21.28ZM28.4409 14.008C29.4649 14.008 30.2809 14.344 30.8889 15.016C31.4969 15.688 31.8009 16.632 31.8009 17.848V23H29.5609V18.104C29.5609 17.4 29.3795 16.856 29.0169 16.472C28.6542 16.0773 28.1582 15.88 27.5289 15.88C26.8889 15.88 26.3769 16.088 25.9929 16.504C25.6089 16.92 25.4169 17.5173 25.4169 18.296V23H23.1609V14.136H25.4169V15.912C25.6515 15.3147 26.0355 14.8507 26.5689 14.52C27.1129 14.1787 27.7369 14.008 28.4409 14.008ZM38.3619 21.064V23H37.1779C36.1859 23 35.4232 22.76 34.8899 22.28C34.3672 21.8 34.1059 21 34.1059 19.88V16.04H32.8739V14.136H34.1059V11.944H36.3619V14.136H38.3459V16.04H36.3619V19.912C36.3619 20.3387 36.4472 20.6373 36.6179 20.808C36.7885 20.9787 37.0765 21.064 37.4819 21.064H38.3619ZM48.3053 14.136V23H46.0493V21.208C45.8146 21.8053 45.4253 22.2747 44.8813 22.616C44.3479 22.9467 43.7293 23.112 43.0253 23.112C42.0013 23.112 41.1853 22.776 40.5773 22.104C39.9693 21.432 39.6653 20.4933 39.6653 19.288V14.136H41.9053V19.032C41.9053 19.736 42.0866 20.2853 42.4493 20.68C42.8119 21.064 43.3026 21.256 43.9213 21.256C44.5719 21.256 45.0893 21.048 45.4733 20.632C45.8573 20.216 46.0493 19.6187 46.0493 18.84V14.136H48.3053ZM49.9405 11.592C49.9405 11.2293 50.0685 10.936 50.3245 10.712C50.5805 10.4773 50.9165 10.36 51.3325 10.36C51.7485 10.36 52.0845 10.4773 52.3405 10.712C52.5965 10.936 52.7245 11.2293 52.7245 11.592C52.7245 11.944 52.5965 12.2373 52.3405 12.472C52.0845 12.696 51.7485 12.808 51.3325 12.808C50.9165 12.808 50.5805 12.696 50.3245 12.472C50.0685 12.2373 49.9405 11.944 49.9405 11.592ZM52.4525 14.136V23H50.1965V14.136H52.4525ZM59.0694 21.064V23H57.8854C56.8934 23 56.1307 22.76 55.5974 22.28C55.0747 21.8 54.8134 21 54.8134 19.88V16.04H53.5814V14.136H54.8134V11.944H57.0694V14.136H59.0534V16.04H57.0694V19.912C57.0694 20.3387 57.1547 20.6373 57.3254 20.808C57.496 20.9787 57.784 21.064 58.1894 21.064H59.0694ZM60.2768 11.592C60.2768 11.2293 60.4048 10.936 60.6608 10.712C60.9168 10.4773 61.2528 10.36 61.6688 10.36C62.0848 10.36 62.4208 10.4773 62.6768 10.712C62.9328 10.936 63.0608 11.2293 63.0608 11.592C63.0608 11.944 62.9328 12.2373 62.6768 12.472C62.4208 12.696 62.0848 12.808 61.6688 12.808C61.2528 12.808 60.9168 12.696 60.6608 12.472C60.4048 12.2373 60.2768 11.944 60.2768 11.592ZM62.7888 14.136V23H60.5328V14.136H62.7888ZM68.5256 20.744L70.7656 14.136H73.1656L69.8856 23H67.1336L63.8536 14.136H66.2696L68.5256 20.744ZM82.5956 18.232C82.5956 18.456 82.569 18.712 82.5156 19H76.0196C76.0516 19.7893 76.265 20.3707 76.6596 20.744C77.0543 21.1173 77.545 21.304 78.1316 21.304C78.6543 21.304 79.0863 21.176 79.4276 20.92C79.7796 20.664 80.0036 20.3173 80.0996 19.88H82.4836C82.3663 20.4987 82.1156 21.0533 81.7316 21.544C81.3476 22.0347 80.8516 22.4187 80.2436 22.696C79.6463 22.9733 78.9796 23.112 78.2436 23.112C77.3796 23.112 76.6116 22.9307 75.9396 22.568C75.2676 22.1947 74.745 21.6667 74.3716 20.984C73.9983 20.3013 73.8116 19.496 73.8116 18.568C73.8116 17.64 73.9983 16.8347 74.3716 16.152C74.745 15.4587 75.2676 14.9307 75.9396 14.568C76.6116 14.2053 77.3796 14.024 78.2436 14.024C79.1183 14.024 79.881 14.2053 80.5316 14.568C81.193 14.9307 81.6996 15.432 82.0516 16.072C82.4143 16.7013 82.5956 17.4213 82.5956 18.232ZM80.3236 18.008C80.3556 17.2827 80.1636 16.7333 79.7476 16.36C79.3423 15.9867 78.841 15.8 78.2436 15.8C77.6356 15.8 77.1236 15.9867 76.7076 16.36C76.2916 16.7333 76.0623 17.2827 76.0196 18.008H80.3236Z" fill="white"/>
<defs>
<linearGradient id="paint0_linear_9130_31012" x1="4.72476e-09" y1="16.5" x2="68.5" y2="17" gradientUnits="userSpaceOnUse">
<stop stop-color="white"/>
<stop offset="1" stop-color="#999999" stop-opacity="0"/>
</linearGradient>
</defs>
</svg>
