<svg width="117" height="59" viewBox="0 0 117 59" fill="none" xmlns="http://www.w3.org/2000/svg">
<path d="M0.00208104 56.0435L19.7561 41.0608L9.14211 39.6029L3.44805 30.9559L0.00208104 56.0435Z" fill="white"/>
<path d="M21.0254 38.1372L11.3763 36.8118L6.51458 29.2622" stroke="white" stroke-width="0.973969" stroke-linecap="round"/>
<rect x="-0.5" y="0.5" width="103.077" height="32" rx="4.57692" transform="matrix(-1 0 0 1 115.797 0)" fill="white"/>
<rect x="-0.5" y="0.5" width="103.077" height="32" rx="4.57692" transform="matrix(-1 0 0 1 115.797 0)" stroke="url(#paint0_linear_9130_31018)"/>
<path d="M37.784 19.912C37.784 20.488 37.64 21.0213 37.352 21.512C37.064 21.992 36.6373 22.3813 36.072 22.68C35.5067 22.968 34.8187 23.112 34.008 23.112C33.208 23.112 32.4933 22.9787 31.864 22.712C31.2347 22.4347 30.728 22.04 30.344 21.528C29.9707 21.016 29.7573 20.4187 29.704 19.736H32.104C32.1573 20.1947 32.3387 20.5787 32.648 20.888C32.968 21.1867 33.3893 21.336 33.912 21.336C34.3813 21.336 34.7387 21.2133 34.984 20.968C35.24 20.712 35.368 20.3867 35.368 19.992C35.368 19.64 35.2667 19.352 35.064 19.128C34.8613 18.8933 34.6053 18.7067 34.296 18.568C33.9867 18.4293 33.56 18.2693 33.016 18.088C32.312 17.8533 31.736 17.624 31.288 17.4C30.84 17.1653 30.456 16.8293 30.136 16.392C29.8267 15.9547 29.672 15.384 29.672 14.68C29.672 13.7093 30.0187 12.9467 30.712 12.392C31.416 11.8267 32.344 11.544 33.496 11.544C34.6907 11.544 35.64 11.832 36.344 12.408C37.0587 12.984 37.464 13.752 37.56 14.712H35.128C35.064 14.3067 34.8933 13.976 34.616 13.72C34.3387 13.4533 33.96 13.32 33.48 13.32C33.064 13.32 32.728 13.432 32.472 13.656C32.216 13.8693 32.088 14.184 32.088 14.6C32.088 14.9307 32.184 15.208 32.376 15.432C32.5787 15.6453 32.8293 15.8213 33.128 15.96C33.4373 16.0987 33.8533 16.2533 34.376 16.424C35.1013 16.68 35.688 16.92 36.136 17.144C36.5947 17.368 36.984 17.704 37.304 18.152C37.624 18.6 37.784 19.1867 37.784 19.912ZM43.2699 14.024C44.4112 14.024 45.3605 14.3333 46.1179 14.952C46.8859 15.5707 47.3659 16.4133 47.5579 17.48H45.1739C45.0779 17.0107 44.8592 16.6427 44.5179 16.376C44.1765 16.0987 43.7445 15.96 43.2219 15.96C42.6245 15.96 42.1232 16.184 41.7179 16.632C41.3232 17.0693 41.1259 17.7147 41.1259 18.568C41.1259 19.4213 41.3232 20.072 41.7179 20.52C42.1232 20.9573 42.6245 21.176 43.2219 21.176C43.7445 21.176 44.1765 21.0427 44.5179 20.776C44.8592 20.4987 45.0779 20.1253 45.1739 19.656H47.5579C47.3659 20.7227 46.8859 21.5653 46.1179 22.184C45.3605 22.8027 44.4112 23.112 43.2699 23.112C42.4059 23.112 41.6379 22.9307 40.9659 22.568C40.2939 22.1947 39.7712 21.6667 39.3979 20.984C39.0245 20.3013 38.8379 19.496 38.8379 18.568C38.8379 17.64 39.0245 16.8347 39.3979 16.152C39.7712 15.4587 40.2939 14.9307 40.9659 14.568C41.6379 14.2053 42.4059 14.024 43.2699 14.024ZM52.4729 14.024C53.2195 14.024 53.8595 14.2 54.3929 14.552C54.9262 14.904 55.3049 15.3787 55.5289 15.976V14.136H57.7689V23H55.5289V21.144C55.3049 21.7413 54.9262 22.2213 54.3929 22.584C53.8595 22.936 53.2195 23.112 52.4729 23.112C51.7262 23.112 51.0542 22.9307 50.4569 22.568C49.8595 22.2053 49.3902 21.6827 49.0489 21C48.7182 20.3067 48.5529 19.496 48.5529 18.568C48.5529 17.64 48.7182 16.8347 49.0489 16.152C49.3902 15.4587 49.8595 14.9307 50.4569 14.568C51.0542 14.2053 51.7262 14.024 52.4729 14.024ZM53.1769 15.992C52.4729 15.992 51.9075 16.2213 51.4809 16.68C51.0542 17.1387 50.8409 17.768 50.8409 18.568C50.8409 19.368 51.0542 19.9973 51.4809 20.456C51.9075 20.904 52.4729 21.128 53.1769 21.128C53.8595 21.128 54.4195 20.8987 54.8569 20.44C55.3049 19.9707 55.5289 19.3467 55.5289 18.568C55.5289 17.7787 55.3049 17.1547 54.8569 16.696C54.4195 16.2267 53.8595 15.992 53.1769 15.992ZM61.9094 11.16V23H59.6534V11.16H61.9094ZM67.2623 14.024C68.0089 14.024 68.6489 14.2 69.1823 14.552C69.7156 14.904 70.0943 15.3787 70.3183 15.976V14.136H72.5583V23H70.3183V21.144C70.0943 21.7413 69.7156 22.2213 69.1823 22.584C68.6489 22.936 68.0089 23.112 67.2623 23.112C66.5156 23.112 65.8436 22.9307 65.2463 22.568C64.6489 22.2053 64.1796 21.6827 63.8383 21C63.5076 20.3067 63.3423 19.496 63.3423 18.568C63.3423 17.64 63.5076 16.8347 63.8383 16.152C64.1796 15.4587 64.6489 14.9307 65.2463 14.568C65.8436 14.2053 66.5156 14.024 67.2623 14.024ZM67.9663 15.992C67.2623 15.992 66.6969 16.2213 66.2703 16.68C65.8436 17.1387 65.6303 17.768 65.6303 18.568C65.6303 19.368 65.8436 19.9973 66.2703 20.456C66.6969 20.904 67.2623 21.128 67.9663 21.128C68.6489 21.128 69.2089 20.8987 69.6463 20.44C70.0943 19.9707 70.3183 19.3467 70.3183 18.568C70.3183 17.7787 70.0943 17.1547 69.6463 16.696C69.2089 16.2267 68.6489 15.992 67.9663 15.992ZM79.7388 14.024C80.4854 14.024 81.1574 14.2053 81.7548 14.568C82.3521 14.9307 82.8161 15.4587 83.1468 16.152C83.4881 16.8347 83.6588 17.64 83.6588 18.568C83.6588 19.496 83.4881 20.3067 83.1468 21C82.8161 21.6827 82.3521 22.2053 81.7548 22.568C81.1574 22.9307 80.4854 23.112 79.7388 23.112C78.9921 23.112 78.3521 22.936 77.8188 22.584C77.2961 22.2213 76.9228 21.7413 76.6988 21.144V23H74.4428V11.16H76.6988V15.976C76.9228 15.3787 77.2961 14.904 77.8188 14.552C78.3521 14.2 78.9921 14.024 79.7388 14.024ZM79.0348 15.992C78.3521 15.992 77.7868 16.2267 77.3388 16.696C76.9014 17.1547 76.6828 17.7787 76.6828 18.568C76.6828 19.3467 76.9014 19.9707 77.3388 20.44C77.7868 20.8987 78.3521 21.128 79.0348 21.128C79.7388 21.128 80.3041 20.904 80.7308 20.456C81.1574 19.9973 81.3708 19.368 81.3708 18.568C81.3708 17.768 81.1574 17.1387 80.7308 16.68C80.3041 16.2213 79.7388 15.992 79.0348 15.992ZM87.3513 11.16V23H85.0953V11.16H87.3513ZM97.5681 18.232C97.5681 18.456 97.5415 18.712 97.4881 19H90.9921C91.0241 19.7893 91.2375 20.3707 91.6321 20.744C92.0268 21.1173 92.5175 21.304 93.1041 21.304C93.6268 21.304 94.0588 21.176 94.4001 20.92C94.7521 20.664 94.9761 20.3173 95.0721 19.88H97.4561C97.3388 20.4987 97.0881 21.0533 96.7041 21.544C96.3201 22.0347 95.8241 22.4187 95.2161 22.696C94.6188 22.9733 93.9521 23.112 93.2161 23.112C92.3521 23.112 91.5841 22.9307 90.9121 22.568C90.2401 22.1947 89.7175 21.6667 89.3441 20.984C88.9708 20.3013 88.7841 19.496 88.7841 18.568C88.7841 17.64 88.9708 16.8347 89.3441 16.152C89.7175 15.4587 90.2401 14.9307 90.9121 14.568C91.5841 14.2053 92.3521 14.024 93.2161 14.024C94.0908 14.024 94.8535 14.2053 95.5041 14.568C96.1655 14.9307 96.6721 15.432 97.0241 16.072C97.3868 16.7013 97.5681 17.4213 97.5681 18.232ZM95.2961 18.008C95.3281 17.2827 95.1361 16.7333 94.7201 16.36C94.3148 15.9867 93.8135 15.8 93.2161 15.8C92.6081 15.8 92.0961 15.9867 91.6801 16.36C91.2641 16.7333 91.0348 17.2827 90.9921 18.008H95.2961Z" fill="black"/>
<defs>
<linearGradient id="paint0_linear_9130_31018" x1="4.72476e-09" y1="16.5" x2="68.5" y2="17" gradientUnits="userSpaceOnUse">
<stop stop-color="white"/>
<stop offset="1" stop-color="#999999" stop-opacity="0"/>
</linearGradient>
</defs>
</svg>
