<svg width="133" height="65" viewBox="0 0 133 65" fill="none" xmlns="http://www.w3.org/2000/svg">
<rect x="0.5" y="32.5" width="103.077" height="32" rx="4.57692" fill="#00FFCC"/>
<rect x="0.5" y="32.5" width="103.077" height="32" rx="4.57692" stroke="url(#paint0_linear_9130_31024)"/>
<path d="M32.784 51.912C32.784 52.488 32.64 53.0213 32.352 53.512C32.064 53.992 31.6373 54.3813 31.072 54.68C30.5067 54.968 29.8187 55.112 29.008 55.112C28.208 55.112 27.4933 54.9787 26.864 54.712C26.2347 54.4347 25.728 54.04 25.344 53.528C24.9707 53.016 24.7573 52.4187 24.704 51.736H27.104C27.1573 52.1947 27.3387 52.5787 27.648 52.888C27.968 53.1867 28.3893 53.336 28.912 53.336C29.3813 53.336 29.7387 53.2133 29.984 52.968C30.24 52.712 30.368 52.3867 30.368 51.992C30.368 51.64 30.2667 51.352 30.064 51.128C29.8613 50.8933 29.6053 50.7067 29.296 50.568C28.9867 50.4293 28.56 50.2693 28.016 50.088C27.312 49.8533 26.736 49.624 26.288 49.4C25.84 49.1653 25.456 48.8293 25.136 48.392C24.8267 47.9547 24.672 47.384 24.672 46.68C24.672 45.7093 25.0187 44.9467 25.712 44.392C26.416 43.8267 27.344 43.544 28.496 43.544C29.6907 43.544 30.64 43.832 31.344 44.408C32.0587 44.984 32.464 45.752 32.56 46.712H30.128C30.064 46.3067 29.8933 45.976 29.616 45.72C29.3387 45.4533 28.96 45.32 28.48 45.32C28.064 45.32 27.728 45.432 27.472 45.656C27.216 45.8693 27.088 46.184 27.088 46.6C27.088 46.9307 27.184 47.208 27.376 47.432C27.5787 47.6453 27.8293 47.8213 28.128 47.96C28.4373 48.0987 28.8533 48.2533 29.376 48.424C30.1013 48.68 30.688 48.92 31.136 49.144C31.5947 49.368 31.984 49.704 32.304 50.152C32.624 50.6 32.784 51.1867 32.784 51.912ZM42.6219 50.232C42.6219 50.456 42.5952 50.712 42.5419 51H36.0459C36.0779 51.7893 36.2912 52.3707 36.6859 52.744C37.0805 53.1173 37.5712 53.304 38.1579 53.304C38.6805 53.304 39.1125 53.176 39.4539 52.92C39.8059 52.664 40.0299 52.3173 40.1259 51.88H42.5099C42.3925 52.4987 42.1419 53.0533 41.7579 53.544C41.3739 54.0347 40.8779 54.4187 40.2699 54.696C39.6725 54.9733 39.0059 55.112 38.2699 55.112C37.4059 55.112 36.6379 54.9307 35.9659 54.568C35.2939 54.1947 34.7712 53.6667 34.3979 52.984C34.0245 52.3013 33.8379 51.496 33.8379 50.568C33.8379 49.64 34.0245 48.8347 34.3979 48.152C34.7712 47.4587 35.2939 46.9307 35.9659 46.568C36.6379 46.2053 37.4059 46.024 38.2699 46.024C39.1445 46.024 39.9072 46.2053 40.5579 46.568C41.2192 46.9307 41.7259 47.432 42.0779 48.072C42.4405 48.7013 42.6219 49.4213 42.6219 50.232ZM40.3499 50.008C40.3819 49.2827 40.1899 48.7333 39.7739 48.36C39.3685 47.9867 38.8672 47.8 38.2699 47.8C37.6619 47.8 37.1499 47.9867 36.7339 48.36C36.3179 48.7333 36.0885 49.2827 36.0459 50.008H40.3499ZM48.0474 46.024C49.1887 46.024 50.138 46.3333 50.8954 46.952C51.6634 47.5707 52.1434 48.4133 52.3354 49.48H49.9514C49.8554 49.0107 49.6367 48.6427 49.2954 48.376C48.954 48.0987 48.522 47.96 47.9994 47.96C47.402 47.96 46.9007 48.184 46.4954 48.632C46.1007 49.0693 45.9034 49.7147 45.9034 50.568C45.9034 51.4213 46.1007 52.072 46.4954 52.52C46.9007 52.9573 47.402 53.176 47.9994 53.176C48.522 53.176 48.954 53.0427 49.2954 52.776C49.6367 52.4987 49.8554 52.1253 49.9514 51.656H52.3354C52.1434 52.7227 51.6634 53.5653 50.8954 54.184C50.138 54.8027 49.1887 55.112 48.0474 55.112C47.1834 55.112 46.4154 54.9307 45.7434 54.568C45.0714 54.1947 44.5487 53.6667 44.1754 52.984C43.802 52.3013 43.6154 51.496 43.6154 50.568C43.6154 49.64 43.802 48.8347 44.1754 48.152C44.5487 47.4587 45.0714 46.9307 45.7434 46.568C46.4154 46.2053 47.1834 46.024 48.0474 46.024ZM62.2584 46.136V55H60.0024V53.208C59.7677 53.8053 59.3784 54.2747 58.8344 54.616C58.301 54.9467 57.6824 55.112 56.9784 55.112C55.9544 55.112 55.1384 54.776 54.5304 54.104C53.9224 53.432 53.6184 52.4933 53.6184 51.288V46.136H55.8584V51.032C55.8584 51.736 56.0397 52.2853 56.4024 52.68C56.765 53.064 57.2557 53.256 57.8744 53.256C58.525 53.256 59.0424 53.048 59.4264 52.632C59.8104 52.216 60.0024 51.6187 60.0024 50.84V46.136H62.2584ZM66.4056 47.832C66.7363 47.2667 67.1736 46.824 67.7176 46.504C68.2616 46.1733 68.8696 46.008 69.5416 46.008V48.424H68.8856C67.2323 48.424 66.4056 49.192 66.4056 50.728V55H64.1496V46.136H66.4056V47.832ZM78.9663 50.232C78.9663 50.456 78.9396 50.712 78.8863 51H72.3903C72.4223 51.7893 72.6356 52.3707 73.0303 52.744C73.4249 53.1173 73.9156 53.304 74.5023 53.304C75.0249 53.304 75.4569 53.176 75.7983 52.92C76.1503 52.664 76.3743 52.3173 76.4703 51.88H78.8543C78.7369 52.4987 78.4863 53.0533 78.1023 53.544C77.7183 54.0347 77.2223 54.4187 76.6143 54.696C76.0169 54.9733 75.3503 55.112 74.6143 55.112C73.7503 55.112 72.9823 54.9307 72.3103 54.568C71.6383 54.1947 71.1156 53.6667 70.7423 52.984C70.3689 52.3013 70.1823 51.496 70.1823 50.568C70.1823 49.64 70.3689 48.8347 70.7423 48.152C71.1156 47.4587 71.6383 46.9307 72.3103 46.568C72.9823 46.2053 73.7503 46.024 74.6143 46.024C75.4889 46.024 76.2516 46.2053 76.9023 46.568C77.5636 46.9307 78.0703 47.432 78.4223 48.072C78.7849 48.7013 78.9663 49.4213 78.9663 50.232ZM76.6943 50.008C76.7263 49.2827 76.5343 48.7333 76.1183 48.36C75.7129 47.9867 75.2116 47.8 74.6143 47.8C74.0063 47.8 73.4943 47.9867 73.0783 48.36C72.6623 48.7333 72.4329 49.2827 72.3903 50.008H76.6943Z" fill="black"/>
<path d="M120.36 11.9973L112.843 35.6234L107.921 26.1074L97.8675 23.6314L120.36 11.9973Z" fill="#00FFCC"/>
<path d="M110.509 37.7974L106.034 29.1465L97.2937 27.0882" stroke="#00FFCC" stroke-width="0.973969" stroke-linecap="round"/>
<defs>
<linearGradient id="paint0_linear_9130_31024" x1="4.72476e-09" y1="48.5" x2="68.5" y2="49" gradientUnits="userSpaceOnUse">
<stop stop-color="white"/>
<stop offset="1" stop-color="#999999" stop-opacity="0"/>
</linearGradient>
</defs>
</svg>
