<svg width="133" height="65" viewBox="0 0 133 65" fill="none" xmlns="http://www.w3.org/2000/svg">
<rect x="-0.5" y="0.5" width="103.077" height="32" rx="4.57692" transform="matrix(-1 0 0 1 132 32)" fill="#6400F1"/>
<rect x="-0.5" y="0.5" width="103.077" height="32" rx="4.57692" transform="matrix(-1 0 0 1 132 32)" stroke="url(#paint0_linear_9130_31030)"/>
<path d="M55.704 43.704V45.496H52.584V55H50.328V45.496H47.224V43.704H55.704ZM60.2579 46.024C61.0045 46.024 61.6445 46.2 62.1779 46.552C62.7112 46.904 63.0899 47.3787 63.3139 47.976V46.136H65.5539V55H63.3139V53.144C63.0899 53.7413 62.7112 54.2213 62.1779 54.584C61.6445 54.936 61.0045 55.112 60.2579 55.112C59.5112 55.112 58.8392 54.9307 58.2419 54.568C57.6445 54.2053 57.1752 53.6827 56.8339 53C56.5032 52.3067 56.3379 51.496 56.3379 50.568C56.3379 49.64 56.5032 48.8347 56.8339 48.152C57.1752 47.4587 57.6445 46.9307 58.2419 46.568C58.8392 46.2053 59.5112 46.024 60.2579 46.024ZM60.9619 47.992C60.2579 47.992 59.6925 48.2213 59.2659 48.68C58.8392 49.1387 58.6259 49.768 58.6259 50.568C58.6259 51.368 58.8392 51.9973 59.2659 52.456C59.6925 52.904 60.2579 53.128 60.9619 53.128C61.6445 53.128 62.2045 52.8987 62.6419 52.44C63.0899 51.9707 63.3139 51.3467 63.3139 50.568C63.3139 49.7787 63.0899 49.1547 62.6419 48.696C62.2045 48.2267 61.6445 47.992 60.9619 47.992ZM67.1824 43.592C67.1824 43.2293 67.3104 42.936 67.5664 42.712C67.8224 42.4773 68.1584 42.36 68.5744 42.36C68.9904 42.36 69.3264 42.4773 69.5824 42.712C69.8384 42.936 69.9664 43.2293 69.9664 43.592C69.9664 43.944 69.8384 44.2373 69.5824 44.472C69.3264 44.696 68.9904 44.808 68.5744 44.808C68.1584 44.808 67.8224 44.696 67.5664 44.472C67.3104 44.2373 67.1824 43.944 67.1824 43.592ZM69.6944 46.136V55H67.4384V46.136H69.6944ZM73.8313 43.16V55H71.5753V43.16H73.8313ZM79.8081 46.024C80.6721 46.024 81.4455 46.2053 82.1281 46.568C82.8215 46.9307 83.3655 47.4587 83.7601 48.152C84.1548 48.8347 84.3521 49.64 84.3521 50.568C84.3521 51.496 84.1548 52.3013 83.7601 52.984C83.3655 53.6667 82.8215 54.1947 82.1281 54.568C81.4455 54.9307 80.6721 55.112 79.8081 55.112C78.9441 55.112 78.1655 54.9307 77.4721 54.568C76.7895 54.1947 76.2508 53.6667 75.8561 52.984C75.4615 52.3013 75.2641 51.496 75.2641 50.568C75.2641 49.64 75.4615 48.8347 75.8561 48.152C76.2508 47.4587 76.7895 46.9307 77.4721 46.568C78.1655 46.2053 78.9441 46.024 79.8081 46.024ZM79.8081 47.976C79.1788 47.976 78.6455 48.2 78.2081 48.648C77.7708 49.0853 77.5521 49.7253 77.5521 50.568C77.5521 51.4107 77.7708 52.056 78.2081 52.504C78.6455 52.9413 79.1788 53.16 79.8081 53.16C80.4375 53.16 80.9708 52.9413 81.4081 52.504C81.8455 52.056 82.0641 51.4107 82.0641 50.568C82.0641 49.7253 81.8455 49.0853 81.4081 48.648C80.9708 48.2 80.4375 47.976 79.8081 47.976ZM88.0425 47.832C88.3732 47.2667 88.8105 46.824 89.3545 46.504C89.8985 46.1733 90.5065 46.008 91.1785 46.008V48.424H90.5225C88.8692 48.424 88.0425 49.192 88.0425 50.728V55H85.7865V46.136H88.0425V47.832ZM100.603 50.232C100.603 50.456 100.576 50.712 100.523 51H94.0271C94.0591 51.7893 94.2725 52.3707 94.6671 52.744C95.0618 53.1173 95.5525 53.304 96.1391 53.304C96.6618 53.304 97.0938 53.176 97.4351 52.92C97.7871 52.664 98.0111 52.3173 98.1071 51.88H100.491C100.374 52.4987 100.123 53.0533 99.7391 53.544C99.3551 54.0347 98.8591 54.4187 98.2511 54.696C97.6538 54.9733 96.9871 55.112 96.2511 55.112C95.3871 55.112 94.6191 54.9307 93.9471 54.568C93.2751 54.1947 92.7525 53.6667 92.3791 52.984C92.0058 52.3013 91.8191 51.496 91.8191 50.568C91.8191 49.64 92.0058 48.8347 92.3791 48.152C92.7525 47.4587 93.2751 46.9307 93.9471 46.568C94.6191 46.2053 95.3871 46.024 96.2511 46.024C97.1258 46.024 97.8885 46.2053 98.5391 46.568C99.2005 46.9307 99.7071 47.432 100.059 48.072C100.422 48.7013 100.603 49.4213 100.603 50.232ZM98.3311 50.008C98.3631 49.2827 98.1711 48.7333 97.7551 48.36C97.3498 47.9867 96.8485 47.8 96.2511 47.8C95.6431 47.8 95.1311 47.9867 94.7151 48.36C94.2991 48.7333 94.0698 49.2827 94.0271 50.008H98.3311ZM105.517 46.024C106.263 46.024 106.898 46.2 107.421 46.552C107.954 46.904 108.338 47.3787 108.573 47.976V43.16H110.813V55H108.573V53.144C108.338 53.7413 107.954 54.2213 107.421 54.584C106.898 54.936 106.263 55.112 105.517 55.112C104.77 55.112 104.098 54.9307 103.501 54.568C102.903 54.2053 102.434 53.6827 102.093 53C101.762 52.3067 101.597 51.496 101.597 50.568C101.597 49.64 101.762 48.8347 102.093 48.152C102.434 47.4587 102.903 46.9307 103.501 46.568C104.098 46.2053 104.77 46.024 105.517 46.024ZM106.221 47.992C105.517 47.992 104.951 48.2213 104.525 48.68C104.098 49.1387 103.885 49.768 103.885 50.568C103.885 51.368 104.098 51.9973 104.525 52.456C104.951 52.904 105.517 53.128 106.221 53.128C106.903 53.128 107.463 52.8987 107.901 52.44C108.349 51.9707 108.573 51.3467 108.573 50.568C108.573 49.7787 108.349 49.1547 107.901 48.696C107.463 48.2267 106.903 47.992 106.221 47.992Z" fill="white"/>
<path d="M12.64 11.9973L20.1574 35.6234L25.0795 26.1074L35.1325 23.6314L12.64 11.9973Z" fill="#6400F1"/>
<path d="M22.4912 37.7974L26.9659 29.1465L35.7063 27.0882" stroke="#6400F1" stroke-width="0.973969" stroke-linecap="round"/>
<defs>
<linearGradient id="paint0_linear_9130_31030" x1="4.72476e-09" y1="16.5" x2="68.5" y2="17" gradientUnits="userSpaceOnUse">
<stop stop-color="white"/>
<stop offset="1" stop-color="#999999" stop-opacity="0"/>
</linearGradient>
</defs>
</svg>
