<svg width="148" height="149" viewBox="0 0 148 149" fill="none" xmlns="http://www.w3.org/2000/svg">
<g clip-path="url(#clip0_9621_11914)">
<path d="M148 0.946045H0V148.946H148V0.946045Z" fill="#00D639"/>
<path d="M31.3845 45C24.3469 45 19 50.306 19 57.1162C19 64.5818 24.3469 67.4631 30.2766 69.2324C35.8861 71.0016 38.5497 72.9661 38.5497 76.8377C38.5497 80.7648 35.6128 83.5225 31.7748 83.5225C27.9368 83.5225 24.6005 80.7648 24.6005 76.5171C24.6005 74.1623 25.7084 73.5642 25.7084 72.2552C25.7084 70.7509 24.6689 69.6371 22.9657 69.6371C21.0269 69.6371 19.009 72.59 19.009 76.7804C19.009 83.5369 24.8128 88.508 31.7784 88.508C38.8159 88.508 44.1628 83.202 44.1628 76.3918C44.1628 68.9817 38.8159 66.0431 32.8323 64.2738C27.2911 62.5762 24.6167 60.5419 24.6167 56.6703C24.6167 52.7987 27.4943 50.0553 31.3215 50.0553C35.298 50.0553 38.4976 52.8685 38.5533 56.7401C38.6217 58.5094 39.8554 59.5534 41.296 59.5534C42.7906 59.5534 44.1628 58.5094 44.0927 56.6005C43.965 49.8458 38.2961 45 31.3845 45ZM59.6695 88.4381C62.8007 88.4381 65.2107 87.3941 65.2107 85.2918C65.2161 84.6107 64.953 83.9547 64.4778 83.4648C64.0025 82.9749 63.3532 82.6902 62.6694 82.6719C61.7558 82.6719 61.1047 83.0623 59.612 83.0623C55.5671 83.0623 52.3802 79.5954 52.3802 75.5287C52.3802 71.1413 55.6355 67.6494 59.7541 67.6494C64.3798 67.6494 67.3168 71.1879 67.3168 76.2987V85.6714C67.3168 87.3153 68.6189 88.4292 70.1836 88.4292C70.5509 88.4374 70.9161 88.3719 71.2575 88.2366C71.5988 88.1012 71.9093 87.8989 72.1705 87.6415C72.4316 87.3842 72.6381 87.0771 72.7775 86.7387C72.9169 86.4002 72.9865 86.0372 72.982 85.6714V76.1124C72.982 68.2582 67.5865 62.492 59.8782 62.492C52.7021 62.492 46.7743 68.063 46.7743 75.5287C46.77 78.9417 48.1249 82.2172 50.5422 84.6371C52.9594 87.057 56.2417 88.4239 59.6695 88.4381ZM88.3431 106C95.3806 106 100.728 100.694 100.728 93.8838C100.728 86.4182 95.3806 83.5369 89.397 81.7676C83.8558 79.9984 81.1832 78.0357 81.1832 74.1623C81.1832 70.2889 84.1184 67.4775 87.8862 67.4775C91.7368 67.4775 95.118 70.2352 95.118 74.4829C95.118 76.8502 94.0101 77.4358 94.0101 78.7448C94.0101 80.2491 95.0479 81.3629 96.6827 81.3629C98.706 81.3629 100.728 78.4118 100.728 74.2196C100.728 67.4631 94.868 62.492 87.8862 62.492C80.8505 62.492 75.5719 67.798 75.5719 74.6082C75.5719 82.0183 80.8505 84.9569 86.8485 86.7262C92.458 88.4238 95.1216 90.4581 95.1216 94.3297C95.1216 98.2568 92.1847 100.945 88.4168 100.945C84.372 100.945 81.2408 98.2013 81.1868 94.2599C81.1167 92.4906 79.8146 91.5021 78.4423 91.5021C76.9477 91.5021 75.5755 92.4906 75.6456 94.3852C75.696 101.224 81.3631 106 88.3431 106ZM116.625 88.4381C120.268 88.4381 123.149 87.3941 125.157 86.1406C127.11 84.9014 127.887 83.8431 127.887 82.6719C127.887 81.4327 126.971 80.3189 125.282 80.3189C123.259 80.3189 121.639 83.3274 116.68 83.3274C115.646 83.3307 114.622 83.1294 113.666 82.735C112.711 82.3406 111.844 81.7611 111.116 81.0301C110.387 80.2991 109.812 79.4312 109.424 78.4769C109.035 77.5226 108.841 76.501 108.853 75.4713C108.853 71.1413 112.179 67.6028 116.348 67.6028C120.844 67.6028 123.259 70.5557 123.259 72.4504C123.259 72.9786 122.873 73.2437 122.346 73.2437H116.88C115.384 73.2437 114.276 74.2322 114.276 75.5412C114.276 76.9738 115.384 78.0357 116.88 78.0357H124.372C127.241 78.0357 129 76.5315 129 73.9671C129 67.5473 123.529 62.5063 116.283 62.5063C114.575 62.5054 112.884 62.8405 111.307 63.4923C109.73 64.1442 108.297 65.1 107.092 66.3048C105.887 67.5096 104.933 68.9397 104.285 70.5128C103.637 72.0859 103.308 73.771 103.316 75.4713C103.316 82.6719 109.33 88.4381 116.625 88.4381Z" fill="white"/>
</g>
<defs>
<clipPath id="clip0_9621_11914">
<rect y="0.946045" width="148" height="148" rx="20" fill="white"/>
</clipPath>
</defs>
</svg>
