<svg width="148" height="149" viewBox="0 0 148 149" fill="none" xmlns="http://www.w3.org/2000/svg">
<rect y="0.946045" width="148" height="148" rx="20" fill="#FCFEFF"/>
<path d="M118.456 55.3969C118.858 55.2989 119.505 55.1715 119.877 55.1029C120.299 55.0245 121.386 54.9657 122.67 54.9559C124.336 54.9461 125.051 54.9853 126.1 55.1421C126.825 55.2499 127.913 55.4557 128.501 55.5929C129.089 55.7399 130.088 56.0242 130.705 56.2398C131.323 56.4554 132.401 56.9062 133.106 57.2493C133.812 57.5923 134.978 58.2588 135.703 58.739C136.428 59.229 137.095 59.6995 137.173 59.7877C137.281 59.9249 137.3 60.0229 137.222 60.2091C137.173 60.3365 136.193 61.7871 135.066 63.4238C133.537 65.6388 132.959 66.4032 132.812 66.413C132.704 66.413 132.195 66.1484 131.685 65.8152C131.176 65.4918 130.098 64.8939 129.285 64.4921C128.481 64.0902 127.354 63.61 126.786 63.4336C126.217 63.2474 125.404 63.022 124.973 62.9141C124.375 62.7769 123.817 62.7377 122.572 62.7475C121.092 62.7475 120.887 62.7769 120.171 63.0122C119.74 63.1592 119.152 63.4238 118.878 63.6198C118.594 63.806 118.221 64.1491 118.055 64.3745C117.898 64.6097 117.692 65.0115 117.614 65.286C117.535 65.5506 117.476 65.9916 117.476 66.266C117.476 66.5307 117.535 66.9717 117.614 67.2461C117.692 67.5107 117.898 67.9224 118.055 68.1478C118.221 68.383 118.633 68.7456 118.966 68.9613C119.309 69.1769 119.956 69.5199 120.416 69.7061C120.877 69.8923 121.759 70.206 122.376 70.3922C122.993 70.5784 124.336 70.9606 125.365 71.2253C126.394 71.4997 127.736 71.8721 128.354 72.0681C128.971 72.2641 129.873 72.568 130.362 72.7542C130.852 72.9404 131.685 73.303 132.224 73.5677C132.763 73.8225 133.626 74.3125 134.135 74.6555C134.645 74.9986 135.399 75.6062 135.811 76.0179C136.222 76.4197 136.791 77.1058 137.065 77.537C137.349 77.9682 137.712 78.6739 137.878 79.1051C138.045 79.5364 138.261 80.3106 138.378 80.8203C138.525 81.5259 138.574 82.1336 138.574 83.3195C138.574 84.378 138.525 85.1914 138.408 85.8187C138.319 86.3283 138.114 87.1516 137.947 87.6318C137.781 88.1121 137.477 88.8471 137.261 89.249C137.036 89.6508 136.654 90.2683 136.389 90.6211C136.134 90.9739 135.585 91.5816 135.174 91.9638C134.762 92.3558 134.067 92.9145 133.616 93.2085C133.175 93.4927 132.567 93.8554 132.273 94.0024C131.979 94.1494 131.362 94.4238 130.901 94.6002C130.441 94.7766 129.716 95.0119 129.285 95.1197C128.853 95.2275 127.971 95.4039 127.325 95.5215C126.394 95.6783 125.708 95.7175 123.993 95.7175C122.19 95.7175 121.582 95.6783 120.318 95.4823C119.485 95.3451 118.358 95.1295 117.819 94.9923C117.28 94.8551 116.379 94.5904 115.811 94.4042C115.242 94.218 114.321 93.8554 113.753 93.6104C113.184 93.3653 112.371 92.9635 111.94 92.7283C111.509 92.5029 110.627 91.954 109.98 91.5326C109.333 91.1013 108.491 90.4937 108.118 90.1899C107.736 89.8762 107.393 89.5528 107.354 89.4646C107.295 89.347 107.334 89.2098 107.501 88.9942C107.618 88.8373 108.726 87.4946 109.951 86.0343C111.509 84.1722 112.244 83.3685 112.381 83.3685C112.489 83.3685 112.988 83.6723 113.478 84.0447C113.978 84.4172 114.782 84.9758 115.272 85.2796C115.762 85.5835 116.644 86.0735 117.231 86.3577C117.819 86.642 118.731 87.0144 119.24 87.1908C119.75 87.3574 120.612 87.5926 121.151 87.7005C121.955 87.8769 122.464 87.9161 124.042 87.9259C125.737 87.9259 126.041 87.9063 126.707 87.7005C127.129 87.5828 127.677 87.377 127.932 87.2496C128.197 87.1222 128.579 86.8576 128.795 86.6812C129.01 86.4949 129.304 86.1519 129.441 85.9069C129.588 85.6717 129.755 85.211 129.824 84.8876C129.892 84.5348 129.912 84.0839 129.873 83.7605C129.833 83.4665 129.755 83.0843 129.686 82.9274C129.618 82.7706 129.392 82.4374 129.177 82.2022C128.971 81.9572 128.55 81.6043 128.256 81.4181C127.962 81.2221 127.276 80.8791 126.737 80.6537C126.198 80.4282 124.983 80.0264 124.042 79.752C123.101 79.4874 121.641 79.0855 120.808 78.8601C119.975 78.6347 118.652 78.2426 117.868 77.9878C117.084 77.7232 115.938 77.2822 115.321 77.0077C114.703 76.7333 113.821 76.2727 113.371 75.9885C112.92 75.714 112.155 75.1064 111.675 74.6457C111.166 74.1655 110.597 73.5088 110.323 73.0776C110.068 72.6758 109.715 71.9995 109.549 71.5781C109.382 71.1664 109.147 70.3726 109.03 69.8139C108.863 69.0103 108.814 68.481 108.814 67.0991C108.814 65.8152 108.853 65.1585 108.99 64.5019C109.088 64.0118 109.294 63.267 109.461 62.8357C109.617 62.4045 109.921 61.7184 110.147 61.3166C110.362 60.9148 110.793 60.2581 111.097 59.8563C111.401 59.4545 111.93 58.8664 112.283 58.5528C112.636 58.2294 113.341 57.6903 113.851 57.3473C114.36 57.0042 115.115 56.573 115.517 56.3868C115.918 56.2006 116.585 55.9458 116.986 55.8085C117.388 55.6713 118.055 55.4851 118.456 55.3969Z" fill="#3D3D40"/>
<path d="M8.00188 88.7295C7.99208 85.26 8.02148 82.3884 8.07047 82.359C8.11947 82.3198 10.0793 82.3002 16.6938 82.3394L16.7232 88.6609C16.7428 94.6002 16.733 94.9922 16.5762 95.1098C16.439 95.1981 15.4493 95.2275 12.4115 95.2275C9.94213 95.2275 8.33505 95.1883 8.21746 95.1294C8.02182 95.0316 8.02148 94.924 8.00198 88.7618L8.00188 88.7295Z" fill="#D71329"/>
<path d="M8.02344 82.3394V68.6476V54.946L64.2907 54.9558C111.317 54.9656 120.45 54.995 119.882 55.1029C119.509 55.1715 118.863 55.2989 118.461 55.3969C118.059 55.4851 117.393 55.6713 116.991 55.8085C116.589 55.9457 115.923 56.2006 115.521 56.3868C115.119 56.573 114.365 57.0042 113.855 57.3472C113.346 57.6903 112.64 58.2293 112.287 58.5528C111.935 58.8664 111.405 59.4544 111.102 59.8563C110.798 60.2581 110.367 60.9148 110.151 61.3166C109.926 61.7184 109.622 62.4045 109.465 62.8357C109.299 63.2669 109.093 64.0118 108.995 64.5019C108.858 65.1585 108.818 65.8152 108.818 67.0991C108.818 68.481 108.867 69.0102 109.034 69.8139C109.152 70.3726 109.387 71.1664 109.553 71.5781C109.72 71.9995 110.073 72.6757 110.328 73.0776C110.602 73.5088 111.17 74.1655 111.68 74.6457C112.16 75.1064 112.924 75.714 113.375 75.9884C113.826 76.2727 114.708 76.7333 115.325 77.0077C115.943 77.2821 117.089 77.7232 117.873 77.9878C118.657 78.2426 119.98 78.6347 120.813 78.8601C121.646 79.0855 123.106 79.4873 124.047 79.7519C124.987 80.0264 126.202 80.4282 126.741 80.6536C127.28 80.879 127.966 81.2221 128.26 81.4181C128.554 81.6043 128.976 81.9571 129.181 82.2022C129.397 82.4374 129.622 82.7706 129.691 82.9274C129.759 83.0842 129.838 83.4665 129.877 83.7605C129.916 84.0839 129.897 84.5348 129.828 84.8876C129.759 85.211 129.593 85.6716 129.446 85.9069C129.309 86.1519 129.015 86.4949 128.799 86.6811C128.584 86.8575 128.201 87.1222 127.947 87.2496C127.682 87.377 127.133 87.5828 126.722 87.7004C126.046 87.9062 125.742 87.9258 124.047 87.9258C122.469 87.916 121.959 87.8768 121.156 87.7004C120.617 87.5926 119.754 87.3574 119.245 87.1908C118.735 87.0144 117.824 86.6419 117.236 86.3577C116.648 86.0735 115.766 85.5834 115.276 85.2796C114.786 84.9758 113.983 84.4171 113.493 84.0447C112.993 83.6723 112.493 83.3685 112.385 83.3685C112.248 83.3685 111.513 84.1721 109.965 86.0343C108.73 87.4946 107.623 88.8373 107.505 88.9941C107.339 89.2097 107.3 89.347 107.358 89.4646C107.398 89.5528 107.741 89.8762 108.123 90.1898C108.495 90.4937 109.338 91.1013 109.985 91.5325C110.631 91.954 111.513 92.5028 111.944 92.7282C112.376 92.9635 113.189 93.3653 113.757 93.6103C114.326 93.8553 115.247 94.218 115.815 94.4042C116.384 94.5904 117.285 94.855 117.824 94.9922C118.363 95.1295 119.441 95.3451 121.646 95.6979L8.02344 95.7175V95.3745C8.02344 95.0608 8.04304 95.0412 8.21942 95.1295C8.33701 95.1883 9.94409 95.2275 12.4037 95.2275C15.4513 95.2275 16.441 95.1981 16.5782 95.1098C16.735 94.9922 16.7448 94.6002 16.6958 82.3394H8.02344Z" fill="#FCFEFF"/>
<path d="M126.055 55.1421C125.575 55.0735 125.154 55.0048 125.124 54.9852C125.095 54.9656 128.662 54.946 140.999 54.9558V95.7175L126.349 95.6979L127.378 95.5215C127.947 95.4235 128.78 95.2471 129.24 95.1295C129.701 95.0216 130.445 94.7766 130.906 94.6002C131.367 94.4238 131.984 94.1592 132.278 94.0122C132.572 93.8553 133.179 93.5025 133.63 93.2085C134.071 92.9243 134.767 92.3656 135.178 91.9736C135.59 91.5815 136.139 90.9739 136.394 90.6211C136.658 90.278 137.04 89.6606 137.266 89.249C137.481 88.8471 137.785 88.1219 137.952 87.6318C138.118 87.1516 138.324 86.3381 138.412 85.8187C138.53 85.1914 138.579 84.3877 138.579 83.3194C138.579 82.1335 138.53 81.5357 138.383 80.8202C138.265 80.3106 138.05 79.5363 137.883 79.1051C137.716 78.6739 137.354 77.9682 137.07 77.537C136.795 77.1057 136.227 76.4295 135.815 76.0178C135.404 75.616 134.649 74.9985 134.14 74.6653C133.63 74.3223 132.768 73.8322 132.229 73.5676C131.69 73.3128 130.857 72.9502 130.367 72.764C129.887 72.5777 128.976 72.2641 128.358 72.0779C127.741 71.8819 126.398 71.4996 125.369 71.235C124.35 70.9606 122.998 70.5882 122.381 70.402C121.763 70.2157 120.881 69.9021 120.421 69.7061C119.96 69.5199 119.313 69.1867 118.98 68.971C118.637 68.7554 118.226 68.383 118.059 68.1576C117.902 67.9321 117.697 67.5205 117.618 67.2461C117.54 66.9815 117.481 66.5404 117.481 66.266C117.481 66.0014 117.54 65.5603 117.618 65.2859C117.697 65.0213 117.902 64.6097 118.059 64.3842C118.226 64.1588 118.598 63.8158 118.882 63.6198C119.157 63.4336 119.745 63.1591 120.176 63.0121C120.891 62.7769 121.097 62.7573 122.577 62.7475C123.821 62.7475 124.38 62.7867 124.977 62.9239C125.409 63.0219 126.222 63.2571 126.79 63.4336C127.359 63.6198 128.486 64.0902 129.289 64.4921C130.102 64.8939 131.18 65.4917 131.69 65.825C132.2 66.1484 132.709 66.413 132.817 66.413C132.964 66.413 133.542 65.6486 135.071 63.4336C136.207 61.7968 137.178 60.3463 137.227 60.2091C137.305 60.0229 137.285 59.9249 137.178 59.7975C137.099 59.6994 136.433 59.229 135.708 58.7488C134.982 58.2685 133.816 57.5923 133.111 57.2492C132.415 56.9062 131.239 56.4358 130.514 56.1908C129.789 55.9457 128.682 55.6321 128.064 55.5047C127.447 55.3675 126.545 55.2009 126.055 55.1421Z" fill="#FCFEFF"/>
<path d="M39.3613 75.3513C39.3515 64.5214 39.3809 55.6321 39.4298 55.6027C39.4788 55.5635 41.4387 55.5439 48.0532 55.5831L48.0826 75.2827C48.1022 93.9729 48.0924 94.9922 47.9356 95.1098C47.7984 95.198 46.8381 95.2274 43.7709 95.2274C41.3015 95.2274 39.6944 95.1882 39.5768 95.1294C39.381 95.0315 39.3809 94.9237 39.3613 75.3837L39.3613 75.3513Z" fill="#3D3D40"/>
<path d="M55.236 75.3513C55.2262 64.5214 55.2556 55.6321 55.3046 55.6027C55.3536 55.5635 59.8809 55.5341 65.3685 55.5341C73.6488 55.5341 75.5303 55.5635 76.4514 55.6811C77.0492 55.7595 77.9899 55.9359 78.5288 56.0633C79.0678 56.2005 79.9301 56.4651 80.4397 56.6612C80.9493 56.8572 81.7038 57.1904 82.1056 57.406C82.5073 57.6314 83.1247 58.0137 83.4775 58.2587C83.8302 58.5135 84.3986 58.9839 84.7416 59.3074C85.0845 59.6308 85.6333 60.2483 85.9567 60.6795C86.2801 61.1107 86.7798 61.9536 87.0738 62.5417C87.3972 63.2179 87.7009 64.0412 87.8773 64.7468C88.0341 65.3643 88.2203 66.4032 88.2791 67.05C88.3575 67.7557 88.3771 68.6966 88.3477 69.4022C88.3085 70.0491 88.2105 70.9802 88.1223 71.4604C88.0341 71.9406 87.8577 72.6953 87.7205 73.1265C87.5834 73.5578 87.3188 74.2438 87.1326 74.6457C86.9464 75.0475 86.5446 75.7532 86.2409 76.2138C85.9371 76.6744 85.2903 77.4487 84.8004 77.929C84.3202 78.4092 83.5461 79.0658 83.0855 79.3697C82.6249 79.6735 81.7332 80.1733 81.1061 80.4674C80.4691 80.7712 79.9497 81.0358 79.9497 81.0652C79.9497 81.0946 80.5181 81.9375 81.2138 82.947C81.9096 83.9663 84.0262 87.0633 85.9175 89.837C87.8185 92.6106 89.357 94.953 89.3374 95.0314C89.308 95.1588 88.6613 95.1784 79.3128 95.2176L70.7874 82.4765L63.977 82.4863V88.7393C63.977 93.5123 63.9476 95.0118 63.8594 95.1098C63.7712 95.198 62.8011 95.2274 59.6947 95.2274C57.1959 95.2274 55.5692 95.1882 55.4516 95.1294C55.2557 95.0315 55.2556 94.9237 55.2361 75.3837L55.236 75.3513Z" fill="#3D3D40"/>
<path d="M94.1391 75.3513C94.1293 64.5214 94.1587 55.6321 94.2076 55.6027C94.2566 55.5635 96.2165 55.5439 102.831 55.5831L102.86 75.2827C102.88 93.9729 102.87 94.9922 102.713 95.1098C102.576 95.198 101.616 95.2274 98.5487 95.2274C96.0793 95.2274 94.4722 95.1882 94.3546 95.1294C94.1588 95.0315 94.1587 94.9237 94.1391 75.3837L94.1391 75.3513Z" fill="#3D3D40"/>
<path d="M23.5111 82.3492C23.4719 72.1073 23.4915 69.5885 23.5895 69.4905C23.6973 69.3827 24.5008 69.3533 27.8522 69.3533C31.0565 69.3533 32.0071 69.3827 32.1051 69.4709C32.203 69.5689 32.2226 72.1759 32.2324 82.2414C32.2324 92.4636 32.203 94.904 32.1051 95.002C32.0071 95.1001 30.9781 95.1197 23.5503 95.0805L23.5111 82.3492Z" fill="#5FBAE9"/>
<path d="M64.0703 74.7438V69.0594V63.3749H68.4996C70.9396 63.3749 73.3306 63.4239 73.8206 63.4729C74.3105 63.5317 74.9671 63.6395 75.2905 63.7179C75.6138 63.8061 76.2116 64.0315 76.6134 64.2177C77.0739 64.4432 77.5541 64.7764 77.9167 65.1292C78.2302 65.4331 78.6124 65.8937 78.7692 66.1681C78.9162 66.4327 79.122 66.9032 79.22 67.1972C79.3669 67.6284 79.4061 68.0107 79.3963 69.1084C79.3963 70.3041 79.3669 70.5589 79.1612 71.0685C79.0436 71.392 78.7986 71.8722 78.6222 72.1466C78.4556 72.4112 78.0538 72.8719 77.7305 73.1561C77.4169 73.4403 76.8877 73.7932 76.5644 73.9598C76.241 74.1166 75.6236 74.342 75.1925 74.4694C74.4281 74.6752 74.2517 74.685 64.0703 74.7438Z" fill="#FCFEFF"/>
</svg>
