<svg width="148" height="148" viewBox="0 0 148 148" fill="none" xmlns="http://www.w3.org/2000/svg">
<g clip-path="url(#clip0_9621_12143)">
<rect width="147.693" height="147.946" rx="20" fill="#13B5EA"/>
<path d="M73.8481 147.946C114.631 147.946 147.693 114.825 147.693 73.973C147.693 33.1144 114.634 0 73.8481 0C33.0618 0 0 33.1144 0 73.973C0 114.825 33.0618 147.946 73.8481 147.946Z" fill="#13B5EA"/>
<path d="M35.2912 73.7583L47.8663 61.0411C48.2429 60.6051 48.4405 60.0411 48.4187 59.4637C48.3969 58.8864 48.1575 58.339 47.7491 57.933C47.3408 57.527 46.7941 57.2928 46.2203 57.2781C45.6465 57.2633 45.0886 57.4691 44.6602 57.8535L32.0917 70.5146L19.4739 57.8304C19.0479 57.4073 18.4723 57.1718 17.8738 57.1758C17.2753 57.1799 16.7029 57.423 16.2826 57.8519C15.8622 58.2807 15.6283 58.8601 15.6323 59.4625C15.6363 60.0649 15.8779 60.6411 16.3039 61.0642L28.879 73.7385L16.3105 86.4227C16.0886 86.6293 15.9102 86.8786 15.7859 87.1559C15.6616 87.4331 15.5938 87.7327 15.5866 88.0368C15.5794 88.3409 15.6329 88.6434 15.744 88.9263C15.8551 89.2092 16.0215 89.4668 16.2333 89.6838C16.4451 89.9007 16.6981 90.0727 16.9772 90.1894C17.2562 90.3062 17.5558 90.3654 17.858 90.3634C18.1602 90.3615 18.4589 90.2985 18.7365 90.1782C19.0141 90.0579 19.2648 89.8828 19.4739 89.6631L32.0753 76.9723L44.6274 89.6136C44.9367 89.9447 45.3379 90.1743 45.7787 90.2726C46.2195 90.3709 46.6796 90.3333 47.0988 90.1647C47.5181 89.9961 47.8773 89.7043 48.1295 89.3273C48.3817 88.9503 48.5152 88.5056 48.5128 88.0512C48.5142 87.7537 48.4569 87.4589 48.3443 87.1839C48.2316 86.9089 48.0658 86.6591 47.8565 86.4491L35.2879 73.7451M110.049 73.755C110.049 76.0342 111.887 77.884 114.151 77.884C115.239 77.8836 116.282 77.4481 117.051 76.6735C117.82 75.8988 118.252 74.8484 118.252 73.7534C118.251 72.6583 117.819 71.6083 117.049 70.8342C116.279 70.0602 115.236 69.6256 114.148 69.6261C111.894 69.6261 110.059 71.4758 110.059 73.755M102.288 73.755C102.288 67.1652 107.604 61.7975 114.148 61.7975C120.678 61.7975 126.004 67.1652 126.004 73.755C126.004 80.3449 120.682 85.7125 114.148 85.7125C111.001 85.7073 107.984 84.4451 105.761 82.2032C103.537 79.9614 102.288 76.9229 102.288 73.755ZM97.6219 73.755C97.6219 82.9378 105.038 90.4162 114.148 90.4162C123.258 90.4162 130.674 82.9445 130.674 73.7583C130.674 64.5755 123.258 57.0971 114.148 57.0971C109.763 57.1059 105.561 58.8649 102.463 61.9883C99.3645 65.1118 97.6236 69.3413 97.6219 73.755ZM96.4503 57.3812H95.7612C93.6774 57.3812 91.6691 58.0418 89.9922 59.3466C89.8769 58.842 89.5958 58.3914 89.1944 58.0676C88.7929 57.7439 88.2947 57.566 87.7804 57.5629C87.4862 57.5628 87.195 57.6214 86.9234 57.7351C86.6518 57.8488 86.4052 58.0154 86.1978 58.2254C85.9904 58.4354 85.8263 58.6846 85.715 58.9586C85.6036 59.2326 85.5471 59.5261 85.5489 59.8222L85.5554 87.8827C85.5874 88.4625 85.8389 89.0079 86.2583 89.4066C86.6776 89.8054 87.2328 90.0272 87.8097 90.0263C88.3866 90.0255 88.9412 89.8021 89.3594 89.4021C89.7776 89.0021 90.0275 88.456 90.0578 87.8761V70.6203C90.0578 64.8728 90.5828 62.5473 95.4659 61.933C95.9253 61.8768 96.411 61.8867 96.4175 61.8867C97.7499 61.8372 98.7015 60.909 98.7015 59.6571C98.6998 59.0537 98.4604 58.4757 98.036 58.0497C97.6115 57.6237 97.0366 57.3845 96.4372 57.3845M53.1792 71.0167C53.1792 70.9506 53.1858 70.8846 53.1891 70.8251C53.8447 68.2182 55.3503 65.9082 57.4649 64.2647C59.5794 62.6212 62.1806 61.7393 64.8521 61.7603C67.5236 61.7812 70.1108 62.7037 72.1997 64.3801C74.2886 66.0566 75.7583 68.3899 76.3735 71.0068H53.1759L53.1792 71.0167ZM80.9842 70.5873C80.0128 65.9529 77.4958 62.1444 73.6662 59.7C70.8909 57.9464 67.6625 57.0578 64.3869 57.146C61.1113 57.2342 57.9347 58.2951 55.2565 60.1955C52.5464 62.158 50.4816 64.8918 49.3277 68.0453C48.1739 71.1987 47.9838 74.6275 48.7819 77.8906C49.6163 81.1382 51.3986 84.0595 53.8986 86.2775C56.3987 88.4954 59.5018 89.9083 62.8074 90.3337C64.8026 90.5781 66.7453 90.4658 68.7471 89.9373C70.5001 89.5085 72.1702 88.7896 73.6892 87.81C75.2873 86.7761 76.6229 85.4086 77.9224 83.7736C77.9421 83.7405 77.9684 83.7174 77.9946 83.6844C78.8938 82.5613 78.7264 80.9559 77.742 80.1962C76.9084 79.5521 75.5105 79.2911 74.4144 80.7115C74.1781 81.055 73.9123 81.4052 73.6268 81.752C72.7506 82.7264 71.6644 83.6679 70.3649 84.4012C68.7044 85.293 66.8208 85.7984 64.819 85.8116C58.2624 85.7356 54.7577 81.1211 53.5074 77.8311C53.289 77.2072 53.1211 76.5665 53.0053 75.9153L52.9725 75.5685H76.5015C79.724 75.4958 81.4567 73.2001 80.9776 70.5807L80.9842 70.5873Z" fill="white"/>
</g>
<defs>
<clipPath id="clip0_9621_12143">
<rect width="147.693" height="147.946" rx="20" fill="white"/>
</clipPath>
</defs>
</svg>
