<svg width="148" height="149" viewBox="0 0 148 149" fill="none" xmlns="http://www.w3.org/2000/svg">
<rect y="0.946106" width="148" height="148" rx="20" fill="white"/>
<path d="M55.1096 102.111H92.904V90.8907H68.9282V80.3791H89.3608V68.9227H68.9282V58.8836H92.904V47.7815H55.1096V102.111ZM121.25 74.9462C121.252 85.8333 117.498 96.3878 110.62 104.827L119.006 113.213C128.1 102.539 133.085 88.9689 133.061 74.9462C133.061 60.5371 127.864 47.309 119.36 37.1518L110.974 45.5374C117.623 53.8986 121.244 64.2641 121.25 74.9462ZM103.888 111.559C95.5274 118.371 85.0895 122.12 74.3055 122.184C63.5215 122.249 53.0395 118.625 44.5981 111.914L36.2125 120.299C46.8021 129.178 60.1877 134.03 74.0068 134C88.6521 134 101.998 128.685 112.274 119.945L103.888 111.559ZM37.7479 105.3C30.641 96.7826 26.7532 86.0389 26.7639 74.9462C26.7639 48.8444 47.9051 27.7032 74.0068 27.7032C85.5814 27.7032 96.0929 31.837 104.36 38.6872L112.746 30.3016C101.986 20.9966 88.2324 15.881 74.0068 15.8925C41.4092 15.8925 14.9531 42.3485 14.9531 74.9462C14.9531 89.7096 20.3861 103.292 29.3622 113.685L37.7479 105.3Z" fill="#00AD03" stroke="#00AD03" stroke-width="0.00118107"/>
</svg>
