<svg width="148" height="149" viewBox="0 0 148 149" fill="none" xmlns="http://www.w3.org/2000/svg">
<rect y="0.946106" width="148" height="148" rx="20" fill="white"/>
<path d="M64.5869 14.9469C57.943 14.9469 51.3642 16.2556 45.2262 18.7984C39.0881 21.3412 33.5111 25.0681 28.8135 29.7665C24.116 34.4648 20.39 40.0425 17.8483 46.1809C15.3065 52.3194 13.9989 58.8984 14 65.5423V134.945H83.4025C111.341 134.945 133.993 112.298 133.998 84.3584V14.9469H64.5869ZM105.608 35.5864C105.609 37.7402 105.184 39.8729 104.359 41.8623C103.534 43.8517 102.325 45.6588 100.8 47.1798C97.7162 50.2558 93.5379 51.9828 89.1822 51.9817H71.5665V66.0442H95.3653V82.5028H71.6843V116.4H52.1809V31.3105H71.5661V46.7423C72.0731 38.0768 79.2642 31.3105 87.9642 31.3105H105.635L105.608 35.5864Z" fill="#0075DD"/>
</svg>
