<svg width="148" height="149" viewBox="0 0 148 149" fill="none" xmlns="http://www.w3.org/2000/svg">
<g clip-path="url(#clip0_9621_11880)">
<rect y="0.946045" width="148" height="148" rx="20" fill="#003163"/>
<path d="M74 148.946C114.869 148.946 148 115.815 148 74.946C148 34.077 114.869 0.946045 74 0.946045C33.1309 0.946045 0 34.077 0 74.946C0 115.815 33.1309 148.946 74 148.946Z" fill="#003163"/>
<path d="M12.2656 95.8775C12.2656 95.6661 12.2656 95.6661 12.2656 95.8775C12.2656 88.6889 12.2656 81.7118 12.2656 74.9461C12.2656 69.2375 14.3799 64.1632 18.3971 60.1461C21.3571 57.1861 24.9513 55.0718 29.1799 54.2261C30.4485 54.0147 31.7171 53.8032 33.1971 53.8032C67.2371 53.8032 101.277 53.8032 135.317 53.8032C135.528 53.8032 135.528 53.8032 135.528 54.0147C135.528 60.9918 135.528 67.9689 135.528 74.9461C135.528 80.4432 133.626 85.0947 129.82 89.1118C127.071 92.2832 123.477 94.1861 119.46 95.2432C118.191 95.6661 116.923 95.6661 115.654 95.8775C115.443 95.8775 115.02 95.8775 114.808 95.8775C80.7685 95.8775 46.5171 95.8775 12.2656 95.8775C12.4771 95.8775 12.4771 95.8775 12.2656 95.8775ZM36.1571 63.7404C35.9456 63.7404 35.9456 63.7404 35.9456 63.7404C31.9285 63.7404 27.6999 63.7404 23.6828 63.7404C23.2599 63.7404 23.2599 63.7404 23.2599 64.1632C23.2599 64.7975 23.0485 65.2204 23.0485 65.8547C23.0485 66.2775 23.0485 66.4889 23.0485 66.9118C23.0485 67.3347 22.8371 67.9689 22.8371 68.3918C22.8371 68.8147 22.8371 69.4489 22.6256 69.8718C22.6256 70.5061 22.4142 70.9289 22.4142 71.5632C22.4142 71.9861 22.4142 72.1975 22.4142 72.6204C22.4142 73.2547 22.2028 73.6775 22.2028 74.3118C22.2028 74.7347 22.2028 74.9461 22.2028 75.3689C22.2028 76.0032 21.9913 76.4261 21.9913 77.0604C21.9913 77.4832 21.9913 77.6947 21.9913 78.1175C21.9913 78.7518 21.7799 79.1746 21.7799 79.8089C21.7799 80.2318 21.7799 80.4432 21.7799 80.8661C21.7799 81.5004 21.5685 81.9232 21.5685 82.5575C21.5685 82.9804 21.5685 83.6146 21.3571 84.0375C21.3571 84.6718 21.1456 85.0946 21.1456 85.7289C21.1456 86.1518 21.1456 86.3632 20.9342 86.7861C20.9342 86.9975 20.9342 86.9975 21.1456 86.9975C23.0485 86.9975 24.9513 86.9975 27.0656 86.9975C27.2771 86.9975 27.2771 86.9975 27.2771 86.7861C27.2771 86.5746 27.2771 86.5747 27.2771 86.3632C27.2771 85.5175 27.4885 84.8832 27.4885 84.0375C27.4885 83.4032 27.6999 82.7689 27.6999 82.1347C27.6999 81.2889 27.9113 80.6546 27.9113 79.8089C27.9113 79.1746 28.1228 78.5404 28.1228 77.9061C28.1228 77.0604 28.3342 76.4261 28.3342 75.5804C28.3342 74.7346 28.5456 74.1004 28.5456 73.2547C28.5456 72.6204 28.7571 71.7747 28.7571 71.1404C28.7571 71.3518 28.7571 71.5632 28.7571 71.7747C28.9685 73.0432 29.1799 74.3118 29.3913 75.5804C29.6028 76.2146 29.6028 77.0604 29.8142 77.6946C30.0256 78.7518 30.2371 79.8089 30.4485 80.8661C30.6599 81.7118 30.6599 82.5575 30.8713 83.1918C31.0828 84.2489 31.2942 85.3061 31.5056 86.3632C31.5056 86.5747 31.7171 86.5747 31.7171 86.5747C34.2542 86.5747 37.0028 86.5747 39.5399 86.5747C39.7513 86.5747 39.7513 86.5747 39.7513 86.3632C39.7513 86.1518 39.7513 86.1518 39.7513 85.9404C40.1742 84.0375 40.5971 82.1347 41.0199 80.0204C41.4428 78.5404 41.6542 76.8489 42.0771 75.3689C42.2885 74.3118 42.4999 73.2547 42.7113 72.1975C42.9228 71.5632 42.9228 70.9289 43.1342 70.0832C43.1342 70.5061 43.1342 70.7175 43.1342 71.1404C43.1342 71.9861 43.1342 72.8318 43.3456 73.6775C43.3456 74.3118 43.3456 75.1575 43.5571 75.7918C43.5571 76.2147 43.5571 76.8489 43.5571 77.2718C43.5571 78.1175 43.5571 78.9632 43.7685 79.8089C43.7685 80.4432 43.7685 80.8661 43.7685 81.5004C43.7685 82.1346 43.7685 82.7689 43.9799 83.4032C44.4028 84.4604 44.8256 85.0946 45.6713 85.7289C46.5171 86.3632 47.5742 86.5747 48.4199 86.5747C49.8999 86.5747 51.1685 86.5747 52.6485 86.5747C52.6485 86.5747 52.6485 86.5747 52.8599 86.5747C52.8599 86.3632 52.8599 86.3632 52.8599 86.1518C52.8599 85.5175 52.6485 84.8832 52.6485 84.0375C52.6485 83.6146 52.6485 83.1918 52.6485 82.7689C52.6485 82.1347 52.4371 81.5004 52.4371 80.8661C52.4371 80.4432 52.4371 80.0204 52.4371 79.5975C52.4371 78.9632 52.2256 78.3289 52.2256 77.4832C52.2256 77.0604 52.2256 76.6375 52.2256 76.2146C52.2256 75.5804 52.0142 74.9461 52.0142 74.3118C52.0142 73.8889 52.0142 73.4661 52.0142 72.8318C52.0142 72.1975 51.8028 71.5632 51.8028 70.7175C51.8028 70.2947 51.8028 69.8718 51.8028 69.4489C51.8028 68.8147 51.5913 68.1804 51.5913 67.5461C51.5913 67.1232 51.5913 66.7004 51.5913 66.2775C51.5913 65.6432 51.3799 65.0089 51.3799 64.3747C51.3799 64.1632 51.3799 64.1632 51.1685 64.1632C47.5742 64.1632 43.9799 64.1632 40.3856 64.1632H40.1742C39.1171 68.8147 38.0599 73.4661 37.0028 78.3289C37.0028 78.1175 37.0028 78.1175 37.0028 77.9061C37.0028 77.4832 37.0028 76.8489 36.7913 76.4261C36.7913 76.0032 36.7913 75.5804 36.7913 75.1575C36.7913 74.5232 36.5799 74.1004 36.5799 73.4661C36.5799 73.0432 36.5799 72.6204 36.5799 72.4089C36.5799 71.9861 36.5799 71.3518 36.3685 70.9289C36.3685 70.5061 36.3685 70.0832 36.3685 69.6604C36.3685 69.0261 36.1571 68.6032 36.1571 67.9689C36.1571 67.5461 36.1571 67.3347 36.1571 66.9118C36.1571 66.4889 35.9456 65.8547 35.9456 65.4318C36.3685 64.3747 36.1571 63.9518 36.1571 63.7404ZM122.631 74.3118C123.054 74.1004 123.477 73.8889 123.9 73.6775C124.746 73.2547 125.38 72.8318 126.014 71.9861C126.86 70.9289 127.071 69.6604 126.86 68.3918C126.648 67.1232 126.014 66.0661 124.957 65.2204C124.111 64.5861 123.054 64.1632 121.786 63.9518C120.094 63.5289 118.403 63.3175 116.711 63.1061C116.077 63.1061 115.443 63.1061 114.808 63.1061C113.54 63.1061 112.271 63.1061 110.791 63.1061C109.946 63.1061 108.888 63.1061 108.043 63.3175C107.408 63.3175 106.774 63.3175 106.351 63.3175C106.14 63.3175 105.717 63.3175 105.506 63.3175C105.506 63.5289 105.506 63.5289 105.506 63.5289C105.506 70.7175 105.506 78.1175 105.506 85.3061V85.5175C105.506 85.5175 105.506 85.7289 105.717 85.7289C105.928 85.7289 106.14 85.7289 106.351 85.7289C106.986 85.7289 107.62 85.7289 108.254 85.7289C109.1 85.7289 109.734 85.7289 110.58 85.7289C111.637 85.7289 112.483 85.7289 113.54 85.7289C113.963 85.7289 114.597 85.7289 115.02 85.7289C115.654 85.7289 116.288 85.7289 117.134 85.5175C117.98 85.3061 118.826 85.3061 119.883 85.0946C121.151 84.8832 122.208 84.4604 123.266 84.0375C124.111 83.6146 124.957 83.1918 125.803 82.3461C126.226 81.9232 126.648 81.5004 126.86 81.0775C127.283 80.2318 127.494 79.3861 127.494 78.3289C127.494 77.6946 127.283 77.2718 127.071 76.6375C126.648 76.0032 126.437 75.5804 125.803 75.1575C125.38 74.7346 124.957 74.5232 124.534 74.3118C123.477 74.7347 123.054 74.5232 122.631 74.3118ZM102.968 74.9461C102.968 74.3118 102.757 73.4661 102.757 72.8318C102.546 71.5632 102.123 70.2946 101.488 69.2375C101.066 68.3918 100.431 67.5461 99.7971 66.9118C99.5856 66.7004 99.3742 66.4889 99.1628 66.4889C98.9513 66.2775 98.5285 66.0661 98.3171 65.8547C97.2599 65.0089 96.2028 64.5861 94.9342 64.1632C93.4542 63.7404 91.9742 63.5289 90.2828 63.3175C89.2256 63.3175 88.1685 63.3175 87.1113 63.5289C86.0542 63.7404 84.9971 63.9518 83.9399 64.3747C82.0371 65.0089 80.5571 66.0661 79.2885 67.5461C78.8656 67.9689 78.6542 68.3918 78.2313 68.8146C77.5971 69.8718 77.1742 70.7175 76.7513 71.9861C76.5399 72.8318 76.3285 73.6775 76.3285 74.5232C76.3285 75.3689 76.3285 76.2147 76.3285 77.0604C76.5399 77.9061 76.7513 78.7518 76.9628 79.3861C77.3856 80.6546 78.2313 81.7118 79.0771 82.5575C79.4999 83.1918 80.1342 83.6146 80.7685 84.0375C81.8256 84.8832 82.8828 85.3061 83.9399 85.9404C85.4199 86.5747 86.8999 86.7861 88.3799 86.9975C89.4371 86.9975 90.4942 86.9975 91.7628 86.7861C92.8199 86.5746 93.8771 86.3632 94.7228 85.9404C96.2028 85.3061 97.4713 84.4604 98.7399 83.4032C99.1628 82.9804 99.5856 82.5575 100.008 81.9232C100.431 81.2889 100.854 80.8661 101.277 80.2318C102.546 78.5404 102.968 76.6375 102.968 74.9461ZM53.4942 63.7404C54.1285 65.0089 54.7628 66.0661 55.3971 67.1232C56.4542 69.2375 57.7228 71.1404 58.7799 73.2547C59.6256 74.5232 60.2599 76.0032 61.1056 77.4832C61.1056 77.4832 61.1056 77.6947 61.1056 77.9061C61.1056 80.2318 61.1056 82.7689 61.1056 85.0946C61.1056 85.5175 61.1056 85.9404 61.1056 86.3632C61.1056 86.5747 61.1056 86.5747 61.3171 86.5747C64.0656 86.5747 67.0256 86.5747 69.7742 86.5747C69.9856 86.5747 69.9856 86.5747 69.9856 86.3632V86.1518C69.9856 83.6146 69.9856 80.8661 69.9856 78.3289C69.9856 78.1175 69.9856 78.1175 69.9856 77.9061C71.2542 75.7918 72.5228 73.6775 73.7913 71.5632C75.2713 69.2375 76.5399 66.9118 78.0199 64.5861C78.2313 64.3747 78.2313 64.1632 78.4428 63.9518C78.2313 63.9518 78.2313 63.9518 78.2313 63.9518C77.1742 63.9518 76.3285 63.9518 75.2713 63.9518C74.2142 63.9518 73.1571 63.9518 72.0999 63.9518C72.0999 63.9518 71.8885 63.9518 71.8885 64.1632C71.6771 64.5861 71.4656 65.0089 71.2542 65.4318C70.8313 66.2775 70.4085 66.9118 69.9856 67.7575C69.3513 68.8147 68.7171 70.0832 68.0828 71.1404C67.8713 71.5632 67.6599 71.9861 67.4485 72.4089C67.4485 72.1975 67.4485 72.1975 67.2371 72.1975C66.8142 71.3518 66.3913 70.7175 65.9685 69.8718C65.3342 68.8146 64.6999 67.7575 64.2771 66.4889C63.8542 65.8547 63.4313 65.2204 62.7971 64.5861C61.9513 63.9518 60.8942 63.7404 59.8371 63.7404C57.7228 63.7404 55.6085 63.7404 53.7056 63.7404C53.7056 63.7404 53.7056 63.7404 53.4942 63.7404Z" fill="white"/>
<path d="M113.75 81.2889C113.75 79.8089 113.75 78.1175 113.75 76.6375H113.961C114.596 76.6375 115.23 76.6375 115.653 76.6375C116.499 76.6375 117.133 76.8489 117.979 77.4832C118.401 77.6946 118.613 78.1175 118.824 78.5403C119.036 78.9632 118.824 79.5975 118.613 80.0203C117.979 80.866 117.133 81.2889 116.287 81.2889C115.23 81.2889 114.384 81.2889 113.75 81.2889Z" fill="white"/>
<path d="M113.75 68.1804C114.384 68.1804 115.019 68.1804 115.441 68.1804C115.864 68.1804 116.287 68.3918 116.71 68.3918C117.133 68.6033 117.556 68.8147 117.979 69.0261C118.401 69.449 118.613 69.8718 118.613 70.2947C118.613 70.929 118.401 71.3519 117.767 71.7747C117.344 72.1976 116.71 72.409 116.287 72.409C115.864 72.409 115.653 72.409 115.23 72.6204C114.807 72.6204 114.173 72.6204 113.75 72.6204C113.75 71.1404 113.75 69.6604 113.75 68.1804Z" fill="white"/>
<path d="M85.6328 74.7347C85.6328 73.4661 85.8442 72.1975 86.2671 71.1404C86.4785 70.5061 86.9014 69.8718 87.3242 69.449C87.9585 68.8147 88.5928 68.6032 89.2271 68.3918C90.2842 68.1804 91.3414 68.3918 92.1871 69.2375C93.2442 70.0832 93.6671 71.3518 93.8785 72.6204C94.09 73.6775 94.09 74.7347 94.09 75.7918C94.09 76.849 93.8785 78.1175 93.2442 79.1747C93.0328 79.809 92.61 80.2318 92.1871 80.6547C91.5528 80.8661 90.9185 81.289 90.0728 81.289C89.2271 81.289 88.5928 81.0775 87.9585 80.6547C87.3242 80.2318 86.9014 79.3861 86.4785 78.7518C86.0557 78.1175 85.8442 77.2718 85.8442 76.4261C85.6328 75.7918 85.6328 75.369 85.6328 74.7347Z" fill="white"/>
</g>
<defs>
<clipPath id="clip0_9621_11880">
<rect y="0.946045" width="148" height="148" rx="20" fill="white"/>
</clipPath>
</defs>
</svg>
