<svg width="148" height="149" viewBox="0 0 148 149" fill="none" xmlns="http://www.w3.org/2000/svg">
<g clip-path="url(#clip0_9621_11805)">
<rect y="0.946106" width="148" height="148" rx="20" fill="#2CA01C"/>
<path d="M74 148.946C114.869 148.946 148 115.815 148 74.9461C148 34.077 114.869 0.946106 74 0.946106C33.1309 0.946106 0 34.077 0 74.9461C0 115.815 33.1309 148.946 74 148.946Z" fill="#2CA01C"/>
<path d="M17.8369 74.9225C17.8428 91.6524 31.3345 105.257 48.0644 105.405H52.3445V94.2217H48.0644C37.6925 97.0514 26.9951 90.9361 24.1713 80.5642C24.1476 80.4813 24.1298 80.3984 24.1061 80.3156C21.1994 69.8076 27.2852 58.9207 37.7577 55.8956H39.8948C42.5765 55.3095 45.353 55.3095 48.0348 55.8956H58.4303V115.267C58.377 121.548 63.4268 126.687 69.7079 126.746V44.1384H48.1295C31.2812 44.2272 17.7007 57.9557 17.7895 74.8041V74.81L17.8369 74.9225ZM99.9769 44.1503H95.6967V55.9252H99.9769C110.325 53.1013 120.999 59.1989 123.823 69.5412C123.846 69.6181 123.864 69.701 123.888 69.778C126.777 80.2504 120.709 91.0959 110.278 94.1151H108.141C105.459 94.7012 102.682 94.7012 100.001 94.1151H89.605V34.7493C89.6583 28.4682 84.6085 23.3296 78.3274 23.2704V105.997H99.9058C116.902 105.73 130.465 91.7412 130.204 74.7449C129.944 58.1215 116.535 44.7068 99.9058 44.4463L99.9769 44.1503Z" fill="white"/>
</g>
<defs>
<clipPath id="clip0_9621_11805">
<rect y="0.946106" width="148" height="148" rx="20" fill="white"/>
</clipPath>
</defs>
</svg>
