<svg width="148" height="149" viewBox="0 0 148 149" fill="none" xmlns="http://www.w3.org/2000/svg">
<g clip-path="url(#clip0_9621_11929)">
<rect y="0.946045" width="148" height="148" rx="20" fill="black"/>
<path d="M0 142.367V81.1565V19.946H148.004V142.367H0Z" fill="black"/>
<path d="M21.3368 89.8575C23.288 85.3914 24.9502 81.6191 25.0224 81.489V81.4745C25.1381 81.2722 25.3693 81.2288 27.8264 81.2144L28.2167 82.0527C28.419 82.5152 30.0956 86.3453 31.9457 90.5513C33.7812 94.7573 35.2121 98.2406 35.1399 98.2839C35.0676 98.3273 34.4317 98.3417 33.7234 98.3273C33.0297 98.3128 32.3648 98.2984 32.2781 98.2984C32.1769 98.2839 31.7289 97.4022 30.5003 94.3815H27.7541C26.251 94.3815 24.9791 94.3381 24.9502 94.2658C24.9213 94.208 25.1381 93.6154 25.9475 91.7076L27.5807 91.6642C28.4624 91.6498 29.1995 91.592 29.1995 91.5197C29.1995 91.4619 28.6069 90.0021 27.8698 88.2677C27.1326 86.5477 26.4967 85.1312 26.4533 85.1312C26.41 85.1168 25.1092 88.0798 23.5626 91.7076C21.3657 96.8386 20.6864 98.2984 20.4985 98.2839H19.2989H18.0703C17.9113 98.2839 17.7812 98.2116 17.7812 98.1394C17.7812 98.0671 19.3856 94.3381 21.3368 89.8575Z" fill="white"/>
<path d="M72.9935 98.2984V89.7708V81.2433H78.4858C81.5066 81.2433 83.9782 81.2866 83.9782 81.3444C83.9782 81.4167 83.7325 82.0382 82.8942 84.0039L76.0288 83.9894V88.47L82.1715 88.4845L81.1597 91.0716H76.0288V95.6967H79.9312C82.952 95.6967 83.8336 95.7401 83.8336 95.8702C83.8336 95.9714 83.6457 96.5639 82.9664 98.2984H72.9935Z" fill="white"/>
<path d="M50.7352 85.4348V83.6281L50.7496 81.8069L53.6981 81.8937L53.7704 85.4348H57.2392V87.8919H53.7704V91.433V91.4331C53.7704 94.9741 53.7704 94.9741 54.1173 95.3643C54.4208 95.7112 54.5798 95.769 55.2447 95.769C55.6638 95.769 56.2564 95.7112 57.0947 95.5522V97.8648L56.5599 98.1105C56.2564 98.2406 55.4904 98.3706 54.8544 98.414C54.2185 98.4429 53.438 98.3995 53.12 98.3273C52.802 98.2406 52.3251 98.0237 52.0504 97.8359C51.7758 97.648 51.3856 97.1854 51.1832 96.7807C50.8085 96.0745 50.8074 96.0151 50.6641 88.0328L50.6629 87.9641L49.4055 87.9208C48.6972 87.9063 48.1335 87.8774 48.1335 87.8485C48.1335 87.834 48.3503 87.2993 49.1019 85.507L50.7352 85.4348Z" fill="white"/>
<path d="M99.8625 85.4492L99.877 83.6281V81.8214L102.826 81.9081L102.898 85.4492H106.367V87.9063H102.898V91.4474C102.898 94.9741 102.898 94.9885 103.245 95.3788C103.548 95.7256 103.707 95.7835 104.372 95.7835C104.791 95.769 105.384 95.7256 106.222 95.5667V97.8792L105.687 98.1105C105.384 98.2406 104.618 98.3851 103.982 98.414C103.346 98.4574 102.565 98.414 102.247 98.3273C101.929 98.2406 101.452 98.0237 101.178 97.8503C100.903 97.6624 100.513 97.1854 100.311 96.7952C99.9493 96.087 99.9348 96.0147 99.7903 87.9786L98.5328 87.9352C97.8391 87.9208 97.2754 87.8485 97.2754 87.7907C97.2754 87.7329 97.4922 87.1981 98.2148 85.5215L99.8625 85.4492Z" fill="white"/>
<path d="M61.3585 85.8828C61.7487 85.6805 62.3702 85.4492 62.7316 85.348C63.0784 85.2613 63.8589 85.1746 64.466 85.1602C65.0586 85.1602 65.8969 85.2469 66.3449 85.3625C66.7785 85.4781 67.4578 85.7383 67.8625 85.9262C68.2528 86.1285 68.9321 86.6344 69.3802 87.068C69.8138 87.5016 70.3485 88.1665 70.5653 88.5567C70.7677 88.947 71.0423 89.6985 71.1724 90.2044C71.288 90.7247 71.4036 91.4763 71.4036 91.8666C71.4036 92.2713 71.3025 92.965 71.1868 93.4275C71.0568 93.8756 70.8111 94.5694 70.6232 94.9452C70.4353 95.3209 70.0161 95.928 69.6981 96.2749C69.3946 96.6362 68.8165 97.1421 68.4262 97.3878C68.036 97.648 67.3278 97.9948 66.8508 98.1538C66.3738 98.3128 65.55 98.4863 65.0441 98.5441C64.5238 98.5874 63.7144 98.5441 63.2374 98.4574C62.7605 98.3706 61.9077 98.0816 61.3585 97.8214C60.737 97.5323 60.0577 97.0554 59.6241 96.6073C59.2194 96.2171 58.7279 95.5667 58.5111 95.1764C58.2943 94.7862 58.0197 94.0779 57.8896 93.601C57.774 93.124 57.6728 92.3435 57.6728 91.8666C57.6728 91.3896 57.774 90.6091 57.8896 90.1322C58.0197 89.6552 58.2943 88.947 58.5111 88.5567C58.7279 88.1809 59.2916 87.4872 59.7686 87.0391C60.2456 86.591 60.9538 86.0707 61.3585 85.8828Z" fill="white"/>
<path d="M90.0775 85.7094C90.4244 85.5359 91.017 85.3625 91.4217 85.3047C91.812 85.2469 92.4045 85.2324 92.7225 85.2613C93.0405 85.2902 93.5175 85.377 93.8065 85.4637C94.0811 85.5504 94.5581 85.7672 94.8472 85.9551C95.1507 86.1574 95.5843 86.5766 95.83 86.9235C96.0757 87.2559 96.3792 87.8919 96.5093 88.3255C96.7117 88.9903 96.755 89.9153 96.7695 98.2984H93.8065L93.7632 94.0779C93.7343 90.0021 93.7198 89.8286 93.4018 89.236C93.2139 88.8892 92.8382 88.4845 92.5346 88.2966C92.1155 88.0508 91.7686 87.9641 91.0459 87.9641C90.251 87.9641 89.9908 88.0364 89.4849 88.3688C89.1525 88.5856 88.7478 89.0337 88.5599 89.3806C88.2564 89.9732 88.2419 90.1466 88.1697 98.2984H85.279V85.4348H88.1697L88.1552 86.2008C88.1552 86.62 88.1986 87.0102 88.2275 87.068C88.2709 87.1258 88.5744 86.909 88.8923 86.591C89.2103 86.2731 89.7451 85.8828 90.0775 85.7094Z" fill="white"/>
<path d="M111.946 86.6055C112.264 86.2586 112.842 85.825 113.246 85.6371C113.695 85.4203 114.244 85.2902 115.414 85.2902L116.022 86.7356C116.368 87.5305 116.6 88.2243 116.542 88.2532C116.484 88.2966 116.022 88.3255 115.501 88.3255C114.966 88.3255 114.186 88.4411 113.752 88.5712C113.16 88.7446 112.769 88.9903 112.22 89.5396C111.772 90.0021 111.382 90.5658 111.223 90.9994C110.992 91.6064 110.948 92.2424 110.905 95.0174C110.862 98.1972 110.847 98.2984 110.573 98.2984H109.344H108.115C107.826 98.2984 107.826 98.2116 107.899 85.507L110.862 85.4348V86.7067L110.862 86.7117C110.876 87.9353 110.876 87.9636 111.122 87.6028C111.252 87.4149 111.628 86.9524 111.946 86.6055Z" fill="white"/>
<path d="M119.245 90.8404C118.002 87.9208 116.975 85.4781 116.947 85.4203C116.918 85.348 117.611 85.2902 120.112 85.2902L120.806 87.1403C121.196 88.152 121.846 89.8575 123.017 92.8783L122.396 94.4537C122.049 95.3209 121.702 96.0581 121.629 96.087C121.543 96.1159 120.473 93.76 119.245 90.8404Z" fill="white"/>
<path d="M124.578 92.358C125.879 88.8313 127.006 85.7961 127.064 85.6227C127.18 85.3047 127.266 85.2902 128.712 85.2902C130.085 85.2902 130.215 85.3191 130.171 85.5504C130.143 85.6805 128.928 88.8602 127.483 92.5892C126.038 96.3327 124.679 99.7004 124.477 100.091C124.26 100.481 123.754 101.088 123.364 101.435C122.8 101.926 122.453 102.114 121.846 102.23C121.398 102.316 120.676 102.345 120.213 102.288C119.765 102.244 119.028 102.071 118.594 101.912C118.146 101.753 117.799 101.608 117.785 101.594C117.785 101.565 118.016 101.045 118.811 99.3101L119.317 99.5269C119.592 99.657 120.155 99.7437 120.574 99.7437C121.254 99.7437 121.384 99.6859 121.774 99.2667C122.106 98.891 122.757 97.3011 124.578 92.358Z" fill="white"/>
<path d="M36.0504 95.3354C35.8915 94.7717 35.8481 93.6154 35.8481 90.031V85.4348H38.7388L38.7822 89.5974C38.8111 92.5459 38.8689 93.8756 38.999 94.1791C39.1001 94.4248 39.3892 94.8295 39.6494 95.0897C39.8951 95.3499 40.3287 95.6245 40.6177 95.7112C40.8924 95.7835 41.3404 95.8413 41.6295 95.8413C41.9041 95.8413 42.3955 95.7256 42.7135 95.5667C43.0315 95.4221 43.4362 95.1475 43.6096 94.9596C43.7831 94.7717 44.0288 94.367 44.1444 94.0779C44.3323 93.6299 44.3756 92.8205 44.3756 85.4348H47.4109V98.2984L44.4479 98.2261L44.3756 96.4917L43.653 97.1854C43.2483 97.5612 42.6123 98.0093 42.2365 98.1827C41.7162 98.4284 41.2681 98.5007 40.3865 98.5152C39.3169 98.5152 39.1146 98.4718 38.2185 98.0093C37.4235 97.6191 37.12 97.3589 36.7442 96.7807C36.4696 96.3905 36.1661 95.7401 36.0504 95.3354Z" fill="white"/>
<path d="M68.1469 38.0272C69.1009 37.7093 70.5029 37.3624 71.2544 37.2323C72.165 37.0878 73.249 37.03 74.4342 37.0589C75.4315 37.0878 76.7612 37.2323 77.3972 37.3624C78.0331 37.4925 79.2328 37.8249 80.0711 38.0995C80.9094 38.3741 82.3403 38.9812 83.2508 39.4437C84.1614 39.8917 85.5345 40.6578 86.2861 41.1203C87.0376 41.5973 88.2806 42.4356 89.0322 42.9992C89.7838 43.5629 90.8678 44.4157 91.4315 44.8926C91.9952 45.3552 93.1226 46.3814 93.9609 47.1474C94.7847 47.9134 96.1867 49.3299 97.0539 50.2982C97.9211 51.2666 98.6582 52.1338 98.6871 52.2206C98.716 52.3217 98.1235 53.0444 97.3719 53.8393C96.6203 54.6343 95.2472 55.964 94.3077 56.8023C93.3827 57.6406 91.9518 58.8403 91.1424 59.4618C90.3475 60.0833 89.0322 61.0372 88.2373 61.572C87.4423 62.0923 86.1704 62.8728 85.4188 63.3064C84.6673 63.7255 83.4821 64.3181 82.7883 64.6216C82.0801 64.9396 81.4152 65.1853 81.2996 65.1853C81.184 65.1853 80.2734 64.0146 79.2761 62.5837C78.2788 61.1528 77.455 59.9821 77.4405 59.9821C77.4116 59.9821 77.0069 60.1122 76.53 60.2567C76.053 60.4157 75.1713 60.5747 74.5787 60.6325C73.8272 60.6903 73.1478 60.6614 72.3385 60.5024C71.7025 60.3723 70.7919 60.0833 70.315 59.8664C69.838 59.6352 69.0864 59.1871 68.6528 58.8692C68.2192 58.5367 67.5688 57.9297 67.2219 57.4961C66.875 57.0769 66.3692 56.2675 66.109 55.7183C65.8344 55.1691 65.5164 54.2151 65.3863 53.6225C65.2273 52.8854 65.184 52.1772 65.2418 51.3823C65.2852 50.7319 65.4875 49.749 65.6899 49.142C65.8922 48.5494 66.268 47.7111 66.5282 47.2919C66.7739 46.8583 67.4243 46.0923 67.9735 45.5864C68.5227 45.0661 69.361 44.4446 69.9103 44.17C70.4595 43.8954 71.2833 43.5774 71.7603 43.4473C72.2373 43.3172 73.2201 43.216 73.9283 43.216C74.651 43.216 75.6194 43.3172 76.0964 43.4328C76.5733 43.5485 77.455 43.8954 78.0476 44.1989C78.7992 44.5602 79.4351 45.0516 80.1433 45.7454C80.8371 46.4536 81.3285 47.0896 81.6898 47.8412C81.9934 48.4337 82.3403 49.3154 82.4559 49.7924C82.5715 50.2693 82.6727 51.1944 82.6727 51.8592C82.6727 52.5096 82.6004 53.3913 82.5137 53.8104C82.427 54.2151 82.1524 54.9812 81.9211 55.5015C81.6898 56.0218 81.2418 56.7734 80.3746 57.8863L81.5453 59.5485C82.1813 60.459 82.745 61.2684 82.8028 61.3263C82.8461 61.3841 83.4098 61.1384 84.0458 60.7915C84.6817 60.4301 85.8958 59.6641 86.7486 59.086C87.5869 58.5078 88.9889 57.4383 89.8416 56.73C90.7088 56.0218 92.1108 54.7499 92.9636 53.9116C93.8308 53.0733 94.5245 52.2928 94.5245 52.1772C94.5101 52.0616 93.4261 50.8764 92.0964 49.5611C90.7666 48.2314 89.0033 46.6126 88.165 45.9622C87.3267 45.2973 85.9681 44.3001 85.1298 43.7508C84.2915 43.2016 82.8317 42.3777 81.8777 41.9152C80.9238 41.4527 79.623 40.9035 78.9871 40.7011C78.3511 40.4988 77.3249 40.2242 76.7034 40.1085C76.0964 39.9929 74.8967 39.8917 74.044 39.8917C73.1768 39.8917 71.9627 39.9785 71.3267 40.1085C70.6908 40.2242 69.6501 40.4843 69.0142 40.6867C68.3782 40.889 67.0051 41.4672 65.9789 41.973C64.9527 42.4789 63.4207 43.3606 62.5824 43.9098C61.7441 44.4735 60.4721 45.3985 59.7495 45.9911C59.0123 46.5693 57.8127 47.6099 57.0756 48.2892C56.324 48.9685 55.1822 50.1248 53.3321 52.1772L54.3005 53.2034C54.8497 53.7671 56.0349 54.8945 56.9455 55.7038C57.8561 56.5132 59.2292 57.6262 59.9807 58.1898C60.7323 58.768 61.9464 59.5918 62.6546 60.0399C63.3628 60.4879 64.6637 61.2106 65.5453 61.6442C66.427 62.0778 67.7278 62.6126 68.436 62.8583C69.1442 63.0896 70.2861 63.4076 70.9654 63.5376C71.7025 63.6966 72.8588 63.7978 73.8561 63.7978C74.7666 63.8122 75.7928 63.7689 76.7468 63.5954L77.5417 64.7517C77.9753 65.3877 78.3366 65.9658 78.3366 66.0525C78.3366 66.1393 78.1921 66.226 78.0187 66.2549C77.8308 66.2982 77.1948 66.3994 76.6022 66.4861C75.9085 66.6018 74.6944 66.6307 73.2779 66.5873C71.558 66.5295 70.7052 66.4283 69.5923 66.1537C68.7974 65.9514 67.5977 65.5756 66.9184 65.3299C66.2391 65.0842 65.0394 64.5638 64.2445 64.1736C63.4496 63.7978 62.0909 63.0462 61.2093 62.5114C60.3276 61.9767 59.0702 61.1384 58.3908 60.6614C57.7115 60.17 56.3818 59.1293 55.4279 58.3344C54.474 57.5394 52.6673 55.8628 49.1406 52.3217L49.6031 51.7147C49.8633 51.3678 51.0196 50.1248 52.1759 48.9396C53.3321 47.7689 55.0376 46.1356 55.9771 45.3263C56.931 44.5313 58.4487 43.3172 59.3737 42.6524C60.3132 41.9875 61.6862 41.0914 62.4378 40.6433C63.1894 40.1953 64.4035 39.5593 65.1117 39.2124C65.8199 38.88 67.193 38.3452 68.1469 38.0272Z" fill="#00D639"/>
<path d="M70.964 46.9307C71.2386 46.7573 71.8312 46.5116 72.2648 46.367C72.8429 46.1791 73.3777 46.1213 74.216 46.1502C75.141 46.1936 75.5602 46.2948 76.3551 46.6561C76.8899 46.9163 77.627 47.4221 78.0173 47.7979C78.4075 48.1882 78.8845 48.8097 79.0868 49.2144C79.2892 49.6046 79.5349 50.3273 79.6361 50.8042C79.7372 51.3101 79.7661 52.0328 79.7228 52.5387C79.665 53.0156 79.4482 53.7961 79.2314 54.2731C79.0001 54.75 78.5665 55.4294 78.2485 55.7618C77.945 56.1087 77.3958 56.5856 77.0344 56.8024C76.6731 57.0337 75.9938 57.3228 75.5168 57.4528C74.9098 57.6263 74.3172 57.6841 73.5656 57.6407C72.7562 57.5974 72.2503 57.4673 71.5421 57.1493C70.9929 56.8892 70.2991 56.4122 69.8944 55.993C69.4897 55.5883 68.9838 54.8801 68.7381 54.3453C68.319 53.4781 68.2901 53.2902 68.2901 51.8883C68.2901 50.5296 68.3334 50.2839 68.6948 49.5323C68.9116 49.0843 69.3885 48.3761 69.7643 47.9714C70.1546 47.5667 70.6894 47.1042 70.964 46.9307Z" fill="black"/>
<path d="M61.7571 88.9036C62.0173 88.6434 62.552 88.2677 62.9423 88.0798C63.3904 87.863 63.9396 87.7329 64.3876 87.7329C64.7923 87.7329 65.3994 87.8196 65.7607 87.9497C66.1221 88.0653 66.6713 88.3833 66.9893 88.6434C67.3072 88.9181 67.7264 89.4528 67.9287 89.8431C68.1745 90.3345 68.3045 90.8693 68.3479 91.563C68.3768 92.2857 68.319 92.806 68.1455 93.3697C67.9576 93.9334 67.6686 94.367 67.1772 94.844C66.6857 95.3499 66.2666 95.5956 65.7318 95.7546C65.3127 95.8702 64.7634 95.9714 64.5322 95.9714C64.3009 95.9714 63.7517 95.8702 63.347 95.7546C62.7978 95.5956 62.3786 95.3499 61.8872 94.844C61.3958 94.367 61.1067 93.9334 60.9188 93.3697C60.7743 92.9361 60.6586 92.1845 60.6731 91.7076C60.6731 91.1439 60.7743 90.5947 60.9766 90.1177C61.1501 89.713 61.4969 89.1782 61.7571 88.9036Z" fill="black"/>
<path d="M74.1582 115.166C74.2594 114.862 74.4473 114.559 74.5773 114.472C74.693 114.4 74.9676 114.327 75.1988 114.327C75.459 114.327 75.6903 114.457 75.8782 114.718C76.0805 114.978 76.1817 115.339 76.1672 115.729C76.1672 116.076 76.0805 116.524 75.9649 116.741C75.8637 116.972 75.6614 117.189 75.5313 117.247C75.4012 117.319 75.1844 117.363 75.0543 117.363C74.9098 117.363 74.6496 117.218 74.4762 117.045C74.3027 116.857 74.1293 116.481 74.0715 116.206C73.9992 115.903 74.0426 115.484 74.1582 115.166Z" fill="black"/>
</g>
<defs>
<clipPath id="clip0_9621_11929">
<rect y="0.946045" width="148" height="148" rx="20" fill="white"/>
</clipPath>
</defs>
</svg>
