<svg width="148" height="148" viewBox="0 0 148 148" fill="none" xmlns="http://www.w3.org/2000/svg">
<rect width="148" height="148" rx="20" fill="white"/>
<g filter="url(#filter0_d_9585_11810)">
<path d="M105.432 56.4271C98.1909 51.1412 77.892 34.1788 77.892 34.1788C75.637 32.2722 72.2663 32.5543 70.3619 34.8072C68.4532 37.06 68.7353 40.4307 70.9881 42.3373L82.5857 52.1522H42.3789C39.4272 52.1522 37.0354 54.544 37.0354 57.4958C37.0354 60.4475 39.4272 62.8393 42.3789 62.8393H61.1603L26.3013 89.5932C23.9609 91.3908 23.5184 94.7444 25.316 97.0848C26.3676 98.4571 27.9536 99.1752 29.5587 99.1752C30.6937 99.1752 31.8372 98.8161 32.8097 98.0702L54.1753 81.672C54.1689 81.9199 54.1347 82.1572 54.1347 82.4051C54.1347 99.1132 68.0962 112 86.1958 112C104.295 112 119.683 99.1132 119.683 82.4051C119.683 71.9767 113.717 62.4759 105.432 56.4271Z" fill="url(#paint0_linear_9585_11810)"/>
<path d="M87.2616 99.1755C98.7711 99.1755 108.101 90.5629 108.101 79.9388C108.101 69.3147 98.7711 60.7021 87.2616 60.7021C75.7521 60.7021 66.4219 69.3147 66.4219 79.9388C66.4219 90.5629 75.7521 99.1755 87.2616 99.1755Z" fill="white"/>
<path opacity="0.07" d="M87.26 60.702C98.7699 60.702 108.1 69.3136 108.1 79.9387C108.1 90.5637 98.7699 99.1754 87.26 99.1754C75.7501 99.1754 66.4203 90.5637 66.4203 79.9387C66.4203 69.3136 75.7501 60.702 87.26 60.702ZM87.26 59.6333C75.1794 59.6333 65.3516 68.7429 65.3516 79.9387C65.3516 91.1344 75.1794 100.244 87.26 100.244C99.3406 100.244 109.168 91.1344 109.168 79.9387C109.168 68.7429 99.3406 59.6333 87.26 59.6333Z" fill="black"/>
<path opacity="0.05" d="M87.2662 59.6332C99.3468 59.6332 109.175 68.7428 109.175 79.9385C109.175 91.1343 99.3468 100.244 87.2662 100.244C75.1856 100.244 65.3578 91.1343 65.3578 79.9385C65.3578 68.7428 75.1856 59.6332 87.2662 59.6332ZM87.2662 58.5645C74.5956 58.5645 64.2891 68.1529 64.2891 79.9385C64.2891 91.7242 74.5956 101.313 87.2662 101.313C99.9368 101.313 110.243 91.7242 110.243 79.9385C110.243 68.1529 99.9368 58.5645 87.2662 58.5645Z" fill="black"/>
<path d="M87.2636 90.626C93.7561 90.626 99.0193 85.8413 99.0193 79.939C99.0193 74.0367 93.7561 69.252 87.2636 69.252C80.771 69.252 75.5078 74.0367 75.5078 79.939C75.5078 85.8413 80.771 90.626 87.2636 90.626Z" fill="#0370C8"/>
<path opacity="0.05" d="M87.2603 68.183C94.3309 68.183 100.085 73.4559 100.085 79.9387C100.085 86.4215 94.3309 91.6945 87.2603 91.6945C80.1898 91.6945 74.4359 86.4215 74.4359 79.9387C74.4359 73.4559 80.1898 68.183 87.2603 68.183ZM87.2603 67.1143C79.5999 67.1143 73.3672 72.8682 73.3672 79.9387C73.3672 87.0093 79.5999 92.7632 87.2603 92.7632C94.9208 92.7632 101.153 87.0093 101.153 79.9387C101.153 72.8682 94.9208 67.1143 87.2603 67.1143Z" fill="black"/>
<path opacity="0.07" d="M87.262 69.2513C93.7554 69.2513 99.0177 74.037 99.0177 79.9384C99.0177 85.8397 93.7554 90.6254 87.262 90.6254C80.7685 90.6254 75.5062 85.8397 75.5062 79.9384C75.5062 74.037 80.7685 69.2513 87.262 69.2513ZM87.262 68.1826C80.1914 68.1826 74.4375 73.4556 74.4375 79.9384C74.4375 86.4211 80.1914 91.6941 87.262 91.6941C94.3325 91.6941 100.086 86.4211 100.086 79.9384C100.086 73.4556 94.3325 68.1826 87.262 68.1826Z" fill="black"/>
</g>
<defs>
<filter id="filter0_d_9585_11810" x="14.5109" y="25.2146" width="118.869" height="102.485" filterUnits="userSpaceOnUse" color-interpolation-filters="sRGB">
<feFlood flood-opacity="0" result="BackgroundImageFix"/>
<feColorMatrix in="SourceAlpha" type="matrix" values="0 0 0 0 0 0 0 0 0 0 0 0 0 0 0 0 0 0 127 0" result="hardAlpha"/>
<feOffset dx="2" dy="4"/>
<feGaussianBlur stdDeviation="5.85"/>
<feComposite in2="hardAlpha" operator="out"/>
<feColorMatrix type="matrix" values="0 0 0 0 0 0 0 0 0 0 0 0 0 0 0 0 0 0 0.25 0"/>
<feBlend mode="normal" in2="BackgroundImageFix" result="effect1_dropShadow_9585_11810"/>
<feBlend mode="normal" in="SourceGraphic" in2="effect1_dropShadow_9585_11810" result="shape"/>
</filter>
<linearGradient id="paint0_linear_9585_11810" x1="24.211" y1="72.4576" x2="119.683" y2="72.4576" gradientUnits="userSpaceOnUse">
<stop stop-color="#FFA402"/>
<stop offset="1" stop-color="#FF8800"/>
</linearGradient>
</defs>
</svg>
