<svg width="148" height="148" viewBox="0 0 148 148" fill="none" xmlns="http://www.w3.org/2000/svg">
<rect width="148" height="148" rx="20" fill="#F4BEFF"/>
<path d="M36.9974 67.8333H24.6641C21.2631 67.8333 18.4974 65.0676 18.4974 61.6667V27.1827C22.0771 25.9062 24.6641 22.5145 24.6641 18.5C24.6641 13.4002 20.5139 9.25 15.4141 9.25C10.3142 9.25 6.16406 13.4002 6.16406 18.5C6.16406 22.5145 8.75098 25.9062 12.3307 27.1827V61.6667C12.3307 68.4685 17.8622 74 24.6641 74H36.9974C38.6994 74 40.0807 72.6187 40.0807 70.9167C40.0807 69.2147 38.6994 67.8333 36.9974 67.8333ZM15.4141 15.4167C17.113 15.4167 18.4974 16.8011 18.4974 18.5C18.4974 20.1989 17.113 21.5833 15.4141 21.5833C13.7151 21.5833 12.3307 20.1989 12.3307 18.5C12.3307 16.8011 13.7151 15.4167 15.4141 15.4167Z" fill="url(#paint0_linear_9585_11876)"/>
<path d="M131.039 80.1667H126.414V64.75H131.039C135.297 64.75 138.747 68.2002 138.747 72.4583C138.747 76.7164 135.297 80.1667 131.039 80.1667Z" fill="#FEAC01"/>
<path d="M107.914 129.5H46.2474C34.3272 129.5 24.6641 119.837 24.6641 107.917V46.2498C24.6641 34.3297 34.3272 24.6665 46.2474 24.6665H107.914C119.834 24.6665 129.497 34.3297 129.497 46.2498V107.917C129.497 119.837 119.834 129.5 107.914 129.5Z" fill="url(#paint1_linear_9585_11876)"/>
<path opacity="0.05" d="M77.0807 107.917C95.8124 107.917 110.997 92.7318 110.997 74.0002C110.997 55.2685 95.8124 40.0835 77.0807 40.0835C58.3491 40.0835 43.1641 55.2685 43.1641 74.0002C43.1641 92.7318 58.3491 107.917 77.0807 107.917Z" fill="black"/>
<path opacity="0.07" d="M77.0859 106.375C94.9662 106.375 109.461 91.8802 109.461 74C109.461 56.1198 94.9662 41.625 77.0859 41.625C59.2057 41.625 44.7109 56.1198 44.7109 74C44.7109 91.8802 59.2057 106.375 77.0859 106.375Z" fill="black"/>
<path d="M77.0833 104.833C94.1121 104.833 107.917 91.0286 107.917 73.9998C107.917 56.9711 94.1121 43.1665 77.0833 43.1665C60.0546 43.1665 46.25 56.9711 46.25 73.9998C46.25 91.0286 60.0546 104.833 77.0833 104.833Z" fill="white"/>
<path d="M77.0833 95.5832C89.0035 95.5832 98.6667 85.92 98.6667 73.9998C98.6667 62.0797 89.0035 52.4165 77.0833 52.4165C65.1632 52.4165 55.5 62.0797 55.5 73.9998C55.5 85.92 65.1632 95.5832 77.0833 95.5832Z" fill="#FEAC01"/>
<path opacity="0.07" d="M107.917 84.7915C96.866 84.7915 87.875 93.7825 87.875 104.833V129.5H107.917C119.837 129.5 129.5 119.837 129.5 107.917V84.7915H107.917Z" fill="black"/>
<path opacity="0.05" d="M129.503 107.917V83.25H107.919C96.0176 83.25 86.3359 92.9317 86.3359 104.833V129.5H107.919C119.839 129.5 129.503 119.837 129.503 107.917Z" fill="black"/>
<path d="M77.0833 86.3332C83.8948 86.3332 89.4167 80.8113 89.4167 73.9998C89.4167 67.1883 83.8948 61.6665 77.0833 61.6665C70.2718 61.6665 64.75 67.1883 64.75 73.9998C64.75 80.8113 70.2718 86.3332 77.0833 86.3332Z" fill="url(#paint2_linear_9585_11876)"/>
<path d="M120.247 135.667H89.4141V104.833C89.4141 94.6153 97.6959 86.3335 107.914 86.3335H138.747V117.167C138.747 127.385 130.466 135.667 120.247 135.667Z" fill="url(#paint3_linear_9585_11876)"/>
<path d="M84.7891 70.9165C87.3434 70.9165 89.4141 68.8458 89.4141 66.2915C89.4141 63.7372 87.3434 61.6665 84.7891 61.6665C82.2347 61.6665 80.1641 63.7372 80.1641 66.2915C80.1641 68.8458 82.2347 70.9165 84.7891 70.9165Z" fill="white"/>
<path d="M67.8333 86.3332C69.5362 86.3332 70.9167 84.9527 70.9167 83.2498C70.9167 81.547 69.5362 80.1665 67.8333 80.1665C66.1305 80.1665 64.75 81.547 64.75 83.2498C64.75 84.9527 66.1305 86.3332 67.8333 86.3332Z" fill="white"/>
<path opacity="0.07" d="M124.677 106.862L109.988 99.5177C109.334 99.1909 108.64 99.0244 107.922 99.0244C105.372 99.0244 103.297 101.099 103.297 103.652V118.341C103.297 120.894 105.372 122.97 107.922 122.97C108.64 122.97 109.337 122.803 109.988 122.476L124.677 115.132C126.252 114.342 127.233 112.758 127.233 110.994C127.233 109.23 126.252 107.652 124.677 106.862Z" fill="black"/>
<path opacity="0.05" d="M125.362 105.484L110.673 98.1395C109.804 97.7048 108.876 97.4858 107.917 97.4858C104.516 97.4858 101.75 100.255 101.75 103.656V118.345C101.75 121.749 104.516 124.514 107.917 124.514C108.876 124.514 109.804 124.295 110.673 123.861L125.362 116.516C127.465 115.465 128.772 113.353 128.772 111C128.772 108.648 127.465 106.535 125.362 105.484Z" fill="black"/>
<path d="M64.75 40.0833C64.75 40.0833 77.0833 24.6666 89.4167 40.0833C89.4167 40.0833 77.0833 33.9166 64.75 40.0833Z" fill="url(#paint4_linear_9585_11876)"/>
<path d="M104.836 118.345V103.656C104.836 101.365 107.247 99.8723 109.298 100.899L123.987 108.244C126.259 109.381 126.259 112.622 123.987 113.76L109.298 121.104C107.247 122.128 104.836 120.635 104.836 118.345Z" fill="white"/>
<defs>
<linearGradient id="paint0_linear_9585_11876" x1="6.16406" y1="41.625" x2="40.0807" y2="41.625" gradientUnits="userSpaceOnUse">
<stop stop-color="#41474A"/>
<stop offset="1" stop-color="#323538"/>
</linearGradient>
<linearGradient id="paint1_linear_9585_11876" x1="77.0807" y1="144.685" x2="77.0807" y2="16.5635" gradientUnits="userSpaceOnUse">
<stop offset="0.003" stop-color="#895DFD"/>
<stop offset="0.723" stop-color="#9863F2"/>
<stop offset="1" stop-color="#9F66ED"/>
</linearGradient>
<linearGradient id="paint2_linear_9585_11876" x1="67.3832" y1="64.1147" x2="87.4587" y2="84.5726" gradientUnits="userSpaceOnUse">
<stop stop-color="#391E72"/>
<stop offset="0.573" stop-color="#391E5A"/>
<stop offset="1" stop-color="#391E46"/>
</linearGradient>
<linearGradient id="paint3_linear_9585_11876" x1="101.051" y1="82.3714" x2="128.998" y2="143.776" gradientUnits="userSpaceOnUse">
<stop offset="0.002" stop-color="#9C55D4"/>
<stop offset="0.003" stop-color="#FF8100"/>
<stop offset="0.19" stop-color="#FF8900"/>
<stop offset="0.488" stop-color="#FEA000"/>
<stop offset="0.856" stop-color="#FCC600"/>
<stop offset="1" stop-color="#FBD600"/>
</linearGradient>
<linearGradient id="paint4_linear_9585_11876" x1="64.75" y1="36.6577" x2="89.4167" y2="36.6577" gradientUnits="userSpaceOnUse">
<stop stop-color="#391E72"/>
<stop offset="0.573" stop-color="#391E5A"/>
<stop offset="1" stop-color="#391E46"/>
</linearGradient>
</defs>
</svg>
