<svg width="148" height="148" viewBox="0 0 148 148" fill="none" xmlns="http://www.w3.org/2000/svg">
<rect width="148" height="148" rx="20" fill="#001E36"/>
<path d="M7.5 56.1165C7.5 39.7118 7.5 31.5093 10.7789 25.2435C13.6631 19.732 18.2653 15.2509 23.9258 12.4426C30.3609 9.25 38.7851 9.25 55.6332 9.25H92.3668C109.215 9.25 117.639 9.25 124.074 12.4426C129.735 15.2509 134.337 19.732 137.221 25.2435C140.5 31.5093 140.5 39.7118 140.5 56.1165V91.8835C140.5 108.288 140.5 116.491 137.221 122.756C134.337 128.268 129.735 132.749 124.074 135.557C117.639 138.75 109.215 138.75 92.3668 138.75H55.6332C38.7851 138.75 30.3609 138.75 23.9258 135.557C18.2653 132.749 13.6631 128.268 10.7789 122.756C7.5 116.491 7.5 108.288 7.5 91.8835V56.1165Z" fill="#001E36"/>
<path d="M36 104.137V47.1907C36 46.8036 36.1662 46.5821 36.5542 46.5821C42.2809 46.5821 48.0052 46.25 53.7332 46.25C63.0285 46.25 73.0928 49.3446 76.6206 58.8124C77.4518 61.1369 77.895 63.5165 77.895 66.0071C77.895 70.7667 76.7868 74.6956 74.57 77.7948C68.3779 86.4519 57.6458 86.3173 48.0256 86.3173V104.082C48.1006 104.608 47.6403 104.857 47.1943 104.857H36.665C36.2217 104.857 36 104.636 36 104.137ZM48.0807 57.263V75.8579C51.8954 76.1298 55.8868 76.1594 59.5519 74.9726C63.5984 73.8358 65.8143 70.4258 65.8143 66.3392C65.9264 62.857 63.978 59.5159 60.6606 58.2593C57.0396 56.7931 51.9894 56.7053 48.0807 57.263Z" fill="#31A8FF"/>
<path d="M112.459 72.1841C110.782 71.3234 108.996 70.6939 107.15 70.3128C104.778 69.7694 95.4214 67.8658 95.4176 72.6295C95.5007 75.2889 99.8365 76.5918 101.752 77.3516C108.478 79.5999 116.088 83.6185 115.939 91.697C116.144 101.754 106.137 105.774 97.5589 105.775C93.0934 105.82 88.4413 105.146 84.3544 103.28C83.9639 103.079 83.7131 102.649 83.7297 102.211V92.5878C83.6856 92.202 84.1112 91.8649 84.4437 92.1424C88.4479 94.5002 93.1941 95.6454 97.8268 95.7064C99.8717 95.7064 103.924 95.5135 103.894 92.5878C103.894 89.7804 99.0456 88.4896 97.1129 87.7764C94.3113 86.8028 91.6551 85.4537 89.2169 83.767C85.8093 81.4004 83.6718 77.606 83.7297 73.4315C83.7098 63.9623 92.9215 59.7119 101.217 59.71C105.095 59.6786 109.26 59.9584 112.87 61.492C113.389 61.6405 113.497 62.1733 113.495 62.6501V71.6495C113.527 72.2082 112.89 72.3983 112.459 72.1841Z" fill="#31A8FF"/>
</svg>
