<svg width="30" height="30" viewBox="0 0 30 30" fill="none" xmlns="http://www.w3.org/2000/svg">
<g id="bxl:linkedin">
<path id="Vector" d="M6.22914 8.99637C7.73964 8.99637 8.96414 7.77187 8.96414 6.26137C8.96414 4.75087 7.73964 3.52637 6.22914 3.52637C4.71864 3.52637 3.49414 4.75087 3.49414 6.26137C3.49414 7.77187 4.71864 8.99637 6.22914 8.99637Z" fill="#2A2A2A"/>
<path id="Vector_2" d="M11.5466 11.0684V26.2421H16.2579V18.7384C16.2579 16.7584 16.6304 14.8409 19.0854 14.8409C21.5066 14.8409 21.5366 17.1046 21.5366 18.8634V26.2434H26.2504V17.9221C26.2504 13.8346 25.3704 10.6934 20.5929 10.6934C18.2991 10.6934 16.7616 11.9521 16.1329 13.1434H16.0691V11.0684H11.5466ZM3.86914 11.0684H8.58789V26.2421H3.86914V11.0684Z" fill="#2A2A2A"/>
</g>
</svg>
