<svg width="30" height="30" viewBox="0 0 30 30" fill="none" xmlns="http://www.w3.org/2000/svg">
<g id="bi:twitter" clip-path="url(#clip0_1_421)">
<path id="Vector" d="M9.42375 28.1253C20.745 28.1253 26.9381 18.7447 26.9381 10.6241C26.9406 10.3603 26.9369 10.0966 26.9269 9.83282C28.1322 8.95953 29.1728 7.87898 30 6.64157C28.8733 7.13708 27.68 7.46433 26.4581 7.61282C27.7455 6.84352 28.7096 5.63285 29.1712 4.20595C27.9624 4.92355 26.6385 5.42659 25.2581 5.69282C24.3303 4.70474 23.1026 4.05017 21.7652 3.83049C20.4277 3.61082 19.0551 3.8383 17.86 4.47771C16.6649 5.11711 15.714 6.13275 15.1546 7.36731C14.5952 8.60187 14.4585 9.98645 14.7656 11.3066C12.3181 11.1844 9.92371 10.5489 7.7378 9.44126C5.5519 8.33361 3.62339 6.7786 2.0775 4.8772C1.29296 6.23309 1.05366 7.83667 1.40814 9.36254C1.76262 10.8884 2.68433 12.2223 3.98625 13.0934C3.01014 13.0619 2.05536 12.7998 1.2 12.3284V12.4128C1.20239 13.8329 1.69466 15.2087 2.59373 16.3079C3.4928 17.4072 4.7436 18.1626 6.135 18.4466C5.60676 18.5922 5.06106 18.6647 4.51312 18.6622C4.12672 18.6662 3.74094 18.6304 3.36188 18.5553C3.75449 19.7784 4.52021 20.8478 5.55157 21.6135C6.58293 22.3792 7.82816 22.8027 9.1125 22.8247C6.93019 24.5365 4.23609 25.4656 1.4625 25.4628C0.973685 25.4665 0.485149 25.4383 0 25.3784C2.81517 27.1737 6.08487 28.1268 9.42375 28.1253Z" fill="#2A2A2A"/>
</g>
<defs>
<clipPath id="clip0_1_421">
<rect width="30" height="30" fill="white"/>
</clipPath>
</defs>
</svg>
